%TF.GenerationSoftware,KiCad,Pcbnew,10.0.0*%
%TF.CreationDate,2026-03-25T13:21:57+11:00*%
%TF.ProjectId,CameraBoard,43616d65-7261-4426-9f61-72642e6b6963,rev?*%
%TF.SameCoordinates,Original*%
%TF.FileFunction,Copper,L1,Top*%
%TF.FilePolarity,Positive*%
%FSLAX46Y46*%
G04 Gerber Fmt 4.6, Leading zero omitted, Abs format (unit mm)*
G04 Created by KiCad (PCBNEW 10.0.0) date 2026-03-25 13:21:57*
%MOMM*%
%LPD*%
G01*
G04 APERTURE LIST*
G04 Aperture macros list*
%AMRoundRect*
0 Rectangle with rounded corners*
0 $1 Rounding radius*
0 $2 $3 $4 $5 $6 $7 $8 $9 X,Y pos of 4 corners*
0 Add a 4 corners polygon primitive as box body*
4,1,4,$2,$3,$4,$5,$6,$7,$8,$9,$2,$3,0*
0 Add four circle primitives for the rounded corners*
1,1,$1+$1,$2,$3*
1,1,$1+$1,$4,$5*
1,1,$1+$1,$6,$7*
1,1,$1+$1,$8,$9*
0 Add four rect primitives between the rounded corners*
20,1,$1+$1,$2,$3,$4,$5,0*
20,1,$1+$1,$4,$5,$6,$7,0*
20,1,$1+$1,$6,$7,$8,$9,0*
20,1,$1+$1,$8,$9,$2,$3,0*%
%AMFreePoly0*
4,1,6,1.000000,0.000000,0.500000,-0.750000,-0.500000,-0.750000,-0.500000,0.750000,0.500000,0.750000,1.000000,0.000000,1.000000,0.000000,$1*%
%AMFreePoly1*
4,1,6,0.500000,-0.750000,-0.650000,-0.750000,-0.150000,0.000000,-0.650000,0.750000,0.500000,0.750000,0.500000,-0.750000,0.500000,-0.750000,$1*%
G04 Aperture macros list end*
%TA.AperFunction,SMDPad,CuDef*%
%ADD10RoundRect,0.250000X-0.337500X-0.475000X0.337500X-0.475000X0.337500X0.475000X-0.337500X0.475000X0*%
%TD*%
%TA.AperFunction,ComponentPad*%
%ADD11C,0.800000*%
%TD*%
%TA.AperFunction,ComponentPad*%
%ADD12C,6.400000*%
%TD*%
%TA.AperFunction,SMDPad,CuDef*%
%ADD13RoundRect,0.090000X-0.660000X-0.360000X0.660000X-0.360000X0.660000X0.360000X-0.660000X0.360000X0*%
%TD*%
%TA.AperFunction,SMDPad,CuDef*%
%ADD14RoundRect,0.250000X-0.350000X-0.450000X0.350000X-0.450000X0.350000X0.450000X-0.350000X0.450000X0*%
%TD*%
%TA.AperFunction,SMDPad,CuDef*%
%ADD15RoundRect,0.250000X0.337500X0.475000X-0.337500X0.475000X-0.337500X-0.475000X0.337500X-0.475000X0*%
%TD*%
%TA.AperFunction,SMDPad,CuDef*%
%ADD16RoundRect,0.237500X-0.300000X-0.237500X0.300000X-0.237500X0.300000X0.237500X-0.300000X0.237500X0*%
%TD*%
%TA.AperFunction,SMDPad,CuDef*%
%ADD17RoundRect,0.250000X0.450000X-0.350000X0.450000X0.350000X-0.450000X0.350000X-0.450000X-0.350000X0*%
%TD*%
%TA.AperFunction,SMDPad,CuDef*%
%ADD18FreePoly0,180.000000*%
%TD*%
%TA.AperFunction,SMDPad,CuDef*%
%ADD19FreePoly1,180.000000*%
%TD*%
%TA.AperFunction,SMDPad,CuDef*%
%ADD20RoundRect,0.250000X-0.475000X0.337500X-0.475000X-0.337500X0.475000X-0.337500X0.475000X0.337500X0*%
%TD*%
%TA.AperFunction,ComponentPad*%
%ADD21R,1.700000X1.700000*%
%TD*%
%TA.AperFunction,ComponentPad*%
%ADD22C,1.700000*%
%TD*%
%TA.AperFunction,SMDPad,CuDef*%
%ADD23R,1.150000X0.600000*%
%TD*%
%TA.AperFunction,SMDPad,CuDef*%
%ADD24RoundRect,0.250000X0.475000X-0.337500X0.475000X0.337500X-0.475000X0.337500X-0.475000X-0.337500X0*%
%TD*%
%TA.AperFunction,SMDPad,CuDef*%
%ADD25RoundRect,0.250000X-0.450000X0.350000X-0.450000X-0.350000X0.450000X-0.350000X0.450000X0.350000X0*%
%TD*%
%TA.AperFunction,SMDPad,CuDef*%
%ADD26RoundRect,0.150000X0.850000X0.350000X-0.850000X0.350000X-0.850000X-0.350000X0.850000X-0.350000X0*%
%TD*%
%TA.AperFunction,ComponentPad*%
%ADD27R,2.300000X2.300000*%
%TD*%
%TA.AperFunction,ComponentPad*%
%ADD28C,2.300000*%
%TD*%
%TA.AperFunction,SMDPad,CuDef*%
%ADD29RoundRect,0.150000X-0.150000X0.825000X-0.150000X-0.825000X0.150000X-0.825000X0.150000X0.825000X0*%
%TD*%
%TA.AperFunction,SMDPad,CuDef*%
%ADD30RoundRect,0.237500X-0.237500X0.300000X-0.237500X-0.300000X0.237500X-0.300000X0.237500X0.300000X0*%
%TD*%
%TA.AperFunction,SMDPad,CuDef*%
%ADD31R,0.600000X1.150000*%
%TD*%
%TA.AperFunction,SMDPad,CuDef*%
%ADD32RoundRect,0.116250X-0.873750X-0.348750X0.873750X-0.348750X0.873750X0.348750X-0.873750X0.348750X0*%
%TD*%
%TA.AperFunction,SMDPad,CuDef*%
%ADD33RoundRect,0.247500X-0.742500X-1.367500X0.742500X-1.367500X0.742500X1.367500X-0.742500X1.367500X0*%
%TD*%
%TA.AperFunction,SMDPad,CuDef*%
%ADD34RoundRect,0.200000X0.200000X0.275000X-0.200000X0.275000X-0.200000X-0.275000X0.200000X-0.275000X0*%
%TD*%
%TA.AperFunction,SMDPad,CuDef*%
%ADD35R,1.450000X0.600000*%
%TD*%
%TA.AperFunction,SMDPad,CuDef*%
%ADD36R,1.450000X0.300000*%
%TD*%
%TA.AperFunction,HeatsinkPad*%
%ADD37O,2.100000X1.000000*%
%TD*%
%TA.AperFunction,HeatsinkPad*%
%ADD38O,1.600000X1.000000*%
%TD*%
%TA.AperFunction,ComponentPad*%
%ADD39R,1.000000X1.000000*%
%TD*%
%TA.AperFunction,ComponentPad*%
%ADD40C,1.000000*%
%TD*%
%TA.AperFunction,ComponentPad*%
%ADD41RoundRect,0.250000X-0.625000X0.350000X-0.625000X-0.350000X0.625000X-0.350000X0.625000X0.350000X0*%
%TD*%
%TA.AperFunction,ComponentPad*%
%ADD42O,1.750000X1.200000*%
%TD*%
%TA.AperFunction,SMDPad,CuDef*%
%ADD43RoundRect,0.075000X-0.075000X0.700000X-0.075000X-0.700000X0.075000X-0.700000X0.075000X0.700000X0*%
%TD*%
%TA.AperFunction,SMDPad,CuDef*%
%ADD44RoundRect,0.075000X-0.700000X0.075000X-0.700000X-0.075000X0.700000X-0.075000X0.700000X0.075000X0*%
%TD*%
%TA.AperFunction,SMDPad,CuDef*%
%ADD45RoundRect,0.250000X-0.587500X-1.625000X0.587500X-1.625000X0.587500X1.625000X-0.587500X1.625000X0*%
%TD*%
%TA.AperFunction,SMDPad,CuDef*%
%ADD46RoundRect,0.250000X0.800000X0.650000X-0.800000X0.650000X-0.800000X-0.650000X0.800000X-0.650000X0*%
%TD*%
%TA.AperFunction,SMDPad,CuDef*%
%ADD47RoundRect,0.237500X-0.237500X0.287500X-0.237500X-0.287500X0.237500X-0.287500X0.237500X0.287500X0*%
%TD*%
%TA.AperFunction,SMDPad,CuDef*%
%ADD48RoundRect,0.250000X1.625000X-0.587500X1.625000X0.587500X-1.625000X0.587500X-1.625000X-0.587500X0*%
%TD*%
%TA.AperFunction,ViaPad*%
%ADD49C,0.600000*%
%TD*%
%TA.AperFunction,Conductor*%
%ADD50C,0.200000*%
%TD*%
%TA.AperFunction,Conductor*%
%ADD51C,0.500000*%
%TD*%
%TA.AperFunction,Conductor*%
%ADD52C,1.000000*%
%TD*%
G04 APERTURE END LIST*
D10*
%TO.P,C8,1*%
%TO.N,GND*%
X90537500Y-63887500D03*
%TO.P,C8,2*%
%TO.N,+3.3V*%
X92612500Y-63887500D03*
%TD*%
D11*
%TO.P,REF\u002A\u002A,1*%
%TO.N,N/C*%
X75450000Y-133150000D03*
X77147056Y-133852944D03*
X73752944Y-133852944D03*
X77850000Y-135550000D03*
D12*
X75450000Y-135550000D03*
D11*
X73050000Y-135550000D03*
X77147056Y-137247056D03*
X73752944Y-137247056D03*
X75450000Y-137950000D03*
%TD*%
D10*
%TO.P,C9,1*%
%TO.N,GND*%
X90537500Y-69687500D03*
%TO.P,C9,2*%
%TO.N,+3.3VA*%
X92612500Y-69687500D03*
%TD*%
%TO.P,C22,1*%
%TO.N,+3.3V*%
X115637500Y-63900000D03*
%TO.P,C22,2*%
%TO.N,GND*%
X117712500Y-63900000D03*
%TD*%
D13*
%TO.P,D5,1,VDD_1*%
%TO.N,+3.3V*%
X114150000Y-111350000D03*
%TO.P,D5,2,VSS_2*%
%TO.N,GND*%
X114150000Y-114650000D03*
%TO.P,D5,3*%
%TO.N,N/C*%
X119050000Y-114650000D03*
%TO.P,D5,4,DIN_4*%
%TO.N,/MCU/RGB_DATA*%
X119050000Y-111350000D03*
%TD*%
D14*
%TO.P,R5,1*%
%TO.N,/Camera_left/PWN_EN*%
X76838690Y-94209375D03*
%TO.P,R5,2*%
%TO.N,+3.3V*%
X78838690Y-94209375D03*
%TD*%
D15*
%TO.P,C5,1*%
%TO.N,+3.3V*%
X93187500Y-83150000D03*
%TO.P,C5,2*%
%TO.N,GND*%
X91112500Y-83150000D03*
%TD*%
D16*
%TO.P,C14,1*%
%TO.N,/MCU/OSC IN*%
X102937500Y-68268750D03*
%TO.P,C14,2*%
%TO.N,GND*%
X104662500Y-68268750D03*
%TD*%
D17*
%TO.P,R8,1*%
%TO.N,Net-(J3-CC1)*%
X82000000Y-65075000D03*
%TO.P,R8,2*%
%TO.N,GND*%
X82000000Y-63075000D03*
%TD*%
D18*
%TO.P,JP1,1,A_1*%
%TO.N,Net-(JP1-A)*%
X115000000Y-75000000D03*
D19*
%TO.P,JP1,2,B_2*%
%TO.N,/Can_transceiver/CANL*%
X113550000Y-75000000D03*
%TD*%
D11*
%TO.P,REF\u002A\u002A,1*%
%TO.N,N/C*%
X117450000Y-133150000D03*
X119147056Y-133852944D03*
X115752944Y-133852944D03*
X119850000Y-135550000D03*
D12*
X117450000Y-135550000D03*
D11*
X115050000Y-135550000D03*
X119147056Y-137247056D03*
X115752944Y-137247056D03*
X117450000Y-137950000D03*
%TD*%
D20*
%TO.P,C10,1*%
%TO.N,+3.3V*%
X106250000Y-83912500D03*
%TO.P,C10,2*%
%TO.N,GND*%
X106250000Y-85987500D03*
%TD*%
D21*
%TO.P,J_BUCK_OUT_A1,1,Pin_1_1*%
%TO.N,GND*%
X87200000Y-101000000D03*
D22*
%TO.P,J_BUCK_OUT_A1,2,Pin_2_2*%
X89740000Y-101000000D03*
%TD*%
D23*
%TO.P,U6,1,VIN_1*%
%TO.N,+5V*%
X76687500Y-126207125D03*
%TO.P,U6,2,GND_2*%
%TO.N,GND*%
X76687500Y-127157125D03*
%TO.P,U6,3,ON_3*%
%TO.N,/Camera_center/PWN_EN*%
X76687500Y-128107125D03*
%TO.P,U6,4,CT_4*%
%TO.N,unconnected-(U6-CT-Pad4)*%
X79187500Y-128107125D03*
%TO.P,U6,5,QOD_5*%
%TO.N,unconnected-(U6-QOD-Pad5)*%
X79187500Y-127157125D03*
%TO.P,U6,6,VOUT_6*%
%TO.N,/Camera_center/<NO NET>*%
X79187500Y-126207125D03*
%TD*%
D21*
%TO.P,J_BUCK_IN_B1,1,Pin_1_1*%
%TO.N,+BATT*%
X100600000Y-124025000D03*
D22*
%TO.P,J_BUCK_IN_B1,2,Pin_2_2*%
X103140000Y-124025000D03*
%TD*%
D21*
%TO.P,J_BUCK_IN_A1,1,Pin_1_1*%
%TO.N,GND*%
X87200000Y-124025000D03*
D22*
%TO.P,J_BUCK_IN_A1,2,Pin_2_2*%
X89740000Y-124025000D03*
%TD*%
D23*
%TO.P,U3,1,VIN_1*%
%TO.N,+5V*%
X76838690Y-90709375D03*
%TO.P,U3,2,GND_2*%
%TO.N,GND*%
X76838690Y-91659375D03*
%TO.P,U3,3,ON_3*%
%TO.N,/Camera_left/PWN_EN*%
X76838690Y-92609375D03*
%TO.P,U3,4,CT_4*%
%TO.N,unconnected-(U3-CT-Pad4)*%
X79338690Y-92609375D03*
%TO.P,U3,5,QOD_5*%
%TO.N,unconnected-(U3-QOD-Pad5)*%
X79338690Y-91659375D03*
%TO.P,U3,6,VOUT_6*%
%TO.N,/Camera_left/<NO NET>*%
X79338690Y-90709375D03*
%TD*%
D24*
%TO.P,C12,1*%
%TO.N,+3.3VA*%
X94575000Y-69825000D03*
%TO.P,C12,2*%
%TO.N,GND*%
X94575000Y-67750000D03*
%TD*%
D25*
%TO.P,FB1,1*%
%TO.N,+3.3V*%
X92575000Y-65787500D03*
%TO.P,FB1,2*%
%TO.N,+3.3VA*%
X92575000Y-67787500D03*
%TD*%
D26*
%TO.P,BootSwitch1,1,1_1*%
%TO.N,+3.3V*%
X119700000Y-85400000D03*
%TO.P,BootSwitch1,2,2_2*%
%TO.N,unconnected-(BootSwitch1-Pad2)*%
X113700000Y-85400000D03*
%TO.P,BootSwitch1,3,3_3*%
%TO.N,unconnected-(BootSwitch1-Pad3)*%
X119700000Y-81700000D03*
%TO.P,BootSwitch1,4,4_4*%
%TO.N,/MCU/BOOT0*%
X113700000Y-81700000D03*
%TD*%
D15*
%TO.P,C4,1*%
%TO.N,Net-(U1-VCAP_2)*%
X104087500Y-85450000D03*
%TO.P,C4,2*%
%TO.N,GND*%
X102012500Y-85450000D03*
%TD*%
D20*
%TO.P,C16,1*%
%TO.N,Net-(D2-K)*%
X92300000Y-89200000D03*
%TO.P,C16,2*%
%TO.N,GND*%
X92300000Y-91275000D03*
%TD*%
D27*
%TO.P,PowerIn1,1,Pin_1_1*%
%TO.N,+BATT*%
X109600000Y-124370000D03*
D28*
%TO.P,PowerIn1,2,Pin_2_2*%
%TO.N,GND*%
X109600000Y-118870000D03*
%TD*%
D14*
%TO.P,R10,1*%
%TO.N,/Camera_center/PWN_EN*%
X76850000Y-129775000D03*
%TO.P,R10,2*%
%TO.N,+3.3V*%
X78850000Y-129775000D03*
%TD*%
D29*
%TO.P,U4,1,D_1*%
%TO.N,/Can_transceiver/CAN_TX_2*%
X118730000Y-67075000D03*
%TO.P,U4,2,GND_2*%
%TO.N,GND*%
X117460000Y-67075000D03*
%TO.P,U4,3,VCC_3*%
%TO.N,+3.3V*%
X116190000Y-67075000D03*
%TO.P,U4,4,R_4*%
%TO.N,/Can_transceiver/CAN_RX_2*%
X114920000Y-67075000D03*
%TO.P,U4,5,Vref_5*%
%TO.N,unconnected-(U4-Vref-Pad5)*%
X114920000Y-72025000D03*
%TO.P,U4,6,CANL_6*%
%TO.N,/Can_transceiver/CANL*%
X116190000Y-72025000D03*
%TO.P,U4,7,CANH_7*%
%TO.N,/Can_transceiver/CANH*%
X117460000Y-72025000D03*
%TO.P,U4,8,Rs_8*%
%TO.N,GND*%
X118730000Y-72025000D03*
%TD*%
D10*
%TO.P,C7,1*%
%TO.N,+3.3V*%
X106662500Y-71300000D03*
%TO.P,C7,2*%
%TO.N,GND*%
X108737500Y-71300000D03*
%TD*%
%TO.P,C29,1*%
%TO.N,/Camera_center/<NO NET>*%
X79217875Y-122644625D03*
%TO.P,C29,2*%
%TO.N,GND*%
X81292875Y-122644625D03*
%TD*%
D30*
%TO.P,C15,1*%
%TO.N,/MCU/OSC OUT*%
X99126000Y-65705250D03*
%TO.P,C15,2*%
%TO.N,GND*%
X99126000Y-67430250D03*
%TD*%
D14*
%TO.P,R2,1*%
%TO.N,GND*%
X109830000Y-83520000D03*
%TO.P,R2,2*%
%TO.N,/MCU/BOOT0*%
X111830000Y-83520000D03*
%TD*%
D31*
%TO.P,D4,1,1_1*%
%TO.N,/MCU/D-*%
X83800000Y-66975000D03*
%TO.P,D4,2,2_2*%
%TO.N,GND*%
X82850000Y-66975000D03*
%TO.P,D4,3,3_3*%
%TO.N,unconnected-(D4-Pad3)*%
X81900000Y-66975000D03*
%TO.P,D4,4,4_4*%
%TO.N,unconnected-(D4-Pad4)*%
X81900000Y-69475000D03*
%TO.P,D4,5,5_5*%
%TO.N,/MCU/VBUS*%
X82850000Y-69475000D03*
%TO.P,D4,6,6_6*%
%TO.N,/MCU/D+*%
X83800000Y-69475000D03*
%TD*%
D20*
%TO.P,C27,1*%
%TO.N,+5V*%
X74937500Y-126119625D03*
%TO.P,C27,2*%
%TO.N,GND*%
X74937500Y-128194625D03*
%TD*%
D14*
%TO.P,R3,1*%
%TO.N,Net-(PowerLED1-A)*%
X116962500Y-105650000D03*
%TO.P,R3,2*%
%TO.N,+3.3V*%
X118962500Y-105650000D03*
%TD*%
D20*
%TO.P,C18,1*%
%TO.N,+5V*%
X74988690Y-90421875D03*
%TO.P,C18,2*%
%TO.N,GND*%
X74988690Y-92496875D03*
%TD*%
D24*
%TO.P,C2,1*%
%TO.N,/MCU/NRST*%
X111575000Y-92787500D03*
%TO.P,C2,2*%
%TO.N,Net-(C2-Pad2)*%
X111575000Y-90712500D03*
%TD*%
%TO.P,C6,1*%
%TO.N,+3.3V*%
X93150000Y-75637500D03*
%TO.P,C6,2*%
%TO.N,GND*%
X93150000Y-73562500D03*
%TD*%
D32*
%TO.P,U2,1,Vin_1*%
%TO.N,Net-(D2-K)*%
X95485000Y-89400000D03*
%TO.P,U2,2,GND_2*%
%TO.N,GND*%
X95485000Y-91700000D03*
%TO.P,U2,3,Vout_3*%
%TO.N,+3.3V*%
X95485000Y-94000000D03*
D33*
%TO.P,U2,4,Vout_4*%
X101515000Y-91700000D03*
%TD*%
D26*
%TO.P,RSTSwitch1,1,1_1*%
%TO.N,unconnected-(RSTSwitch1-Pad1)*%
X119700000Y-93150000D03*
%TO.P,RSTSwitch1,2,2_2*%
%TO.N,Net-(C2-Pad2)*%
X113700000Y-93150000D03*
%TO.P,RSTSwitch1,3,3_3*%
%TO.N,GND*%
X119700000Y-89450000D03*
%TO.P,RSTSwitch1,4,4_4*%
%TO.N,unconnected-(RSTSwitch1-Pad4)*%
X113700000Y-89450000D03*
%TD*%
D15*
%TO.P,C3,1*%
%TO.N,Net-(U1-VCAP_1)*%
X93187500Y-81000000D03*
%TO.P,C3,2*%
%TO.N,GND*%
X91112500Y-81000000D03*
%TD*%
D14*
%TO.P,R1,1*%
%TO.N,+3.3V*%
X107615000Y-92750000D03*
%TO.P,R1,2*%
%TO.N,/MCU/NRST*%
X109615000Y-92750000D03*
%TD*%
D34*
%TO.P,R6,1*%
%TO.N,/Can_transceiver/CANH*%
X118285000Y-74990000D03*
%TO.P,R6,2*%
%TO.N,Net-(JP1-A)*%
X116635000Y-74990000D03*
%TD*%
D11*
%TO.P,REF\u002A\u002A,1*%
%TO.N,N/C*%
X117450000Y-41150000D03*
X119147056Y-41852944D03*
X115752944Y-41852944D03*
X119850000Y-43550000D03*
D12*
X117450000Y-43550000D03*
D11*
X115050000Y-43550000D03*
X119147056Y-45247056D03*
X115752944Y-45247056D03*
X117450000Y-45950000D03*
%TD*%
D21*
%TO.P,J_BUCK_OUT_B1,1,Pin_1_1*%
%TO.N,+5V*%
X100600000Y-101000000D03*
D22*
%TO.P,J_BUCK_OUT_B1,2,Pin_2_2*%
X103140000Y-101000000D03*
%TD*%
D10*
%TO.P,C30,1*%
%TO.N,/Camera_center/<NO NET>*%
X79217875Y-120644625D03*
%TO.P,C30,2*%
%TO.N,GND*%
X81292875Y-120644625D03*
%TD*%
D35*
%TO.P,J3,A1,GND_A1*%
%TO.N,GND*%
X79745000Y-64425000D03*
%TO.P,J3,A4,VBUS_A4*%
%TO.N,/MCU/VBUS*%
X79745000Y-65225000D03*
D36*
%TO.P,J3,A5,CC1_A5*%
%TO.N,Net-(J3-CC1)*%
X79745000Y-66425000D03*
%TO.P,J3,A6,D+_A6*%
%TO.N,/MCU/D+*%
X79745000Y-67425000D03*
%TO.P,J3,A7,D-_A7*%
%TO.N,/MCU/D-*%
X79745000Y-67925000D03*
%TO.P,J3,A8,SBU1_A8*%
%TO.N,unconnected-(J3-SBU1-PadA8)*%
X79745000Y-68925000D03*
D35*
%TO.P,J3,A9,VBUS_A9*%
%TO.N,/MCU/VBUS*%
X79745000Y-70125000D03*
%TO.P,J3,A12,GND_A12*%
%TO.N,GND*%
X79745000Y-70925000D03*
%TO.P,J3,B1,GND_B1*%
X79745000Y-70925000D03*
%TO.P,J3,B4,VBUS_B4*%
%TO.N,/MCU/VBUS*%
X79745000Y-70125000D03*
D36*
%TO.P,J3,B5,CC2_B5*%
%TO.N,Net-(J3-CC2)*%
X79745000Y-69425000D03*
%TO.P,J3,B6,D+_B6*%
%TO.N,/MCU/D+*%
X79745000Y-68425000D03*
%TO.P,J3,B7,D-_B7*%
%TO.N,/MCU/D-*%
X79745000Y-66925000D03*
%TO.P,J3,B8,SBU2_B8*%
%TO.N,unconnected-(J3-SBU2-PadB8)*%
X79745000Y-65925000D03*
D35*
%TO.P,J3,B9,VBUS_B9*%
%TO.N,/MCU/VBUS*%
X79745000Y-65225000D03*
%TO.P,J3,B12,GND_B12*%
%TO.N,GND*%
X79745000Y-64425000D03*
D37*
%TO.P,J3,S1,SHIELD_S1*%
%TO.N,unconnected-(J3-SHIELD-PadS1)_3*%
X78830000Y-63355000D03*
D38*
%TO.N,unconnected-(J3-SHIELD-PadS1)_1*%
X74650000Y-63355000D03*
D37*
%TO.N,unconnected-(J3-SHIELD-PadS1)_2*%
X78830000Y-71995000D03*
D38*
%TO.N,unconnected-(J3-SHIELD-PadS1)*%
X74650000Y-71995000D03*
%TD*%
D39*
%TO.P,J1,1,TCK_1*%
%TO.N,/MCU/SWCLK*%
X93200000Y-46470000D03*
D40*
%TO.P,J1,2,GND_2*%
%TO.N,GND*%
X91930000Y-46470000D03*
%TO.P,J1,3,TDO_3*%
%TO.N,unconnected-(J1-TDO-Pad3)*%
X93200000Y-45200000D03*
%TO.P,J1,4,PGM/NC_4*%
%TO.N,unconnected-(J1-PGM{slash}NC-Pad4)*%
X91930000Y-45200000D03*
%TO.P,J1,5,TMS_5*%
%TO.N,/MCU/SWDIO*%
X93200000Y-43930000D03*
%TO.P,J1,6,VJTAG_6*%
%TO.N,+3.3V*%
X91930000Y-43930000D03*
%TO.P,J1,7,VPUMP_7*%
%TO.N,unconnected-(J1-VPUMP-Pad7)*%
X93200000Y-42660000D03*
%TO.P,J1,8,~{TRST}_8*%
%TO.N,/MCU/NRST*%
X91930000Y-42660000D03*
%TO.P,J1,9,TDI_9*%
%TO.N,unconnected-(J1-TDI-Pad9)*%
X93200000Y-41390000D03*
%TO.P,J1,10,GND_10*%
%TO.N,GND*%
X91930000Y-41390000D03*
%TD*%
D15*
%TO.P,C31,1*%
%TO.N,+3.3V*%
X93137500Y-85200000D03*
%TO.P,C31,2*%
%TO.N,GND*%
X91062500Y-85200000D03*
%TD*%
D41*
%TO.P,Cam3,1,Pin_1_1*%
%TO.N,/Camera_center/CAM_UART_RX*%
X75900000Y-116875000D03*
D42*
%TO.P,Cam3,2,Pin_2_2*%
%TO.N,GND*%
X75900000Y-118875000D03*
%TO.P,Cam3,3,Pin_3_3*%
%TO.N,/Camera_center/<NO NET>*%
X75900000Y-120875000D03*
%TD*%
D41*
%TO.P,Cam1,1,Pin_1_1*%
%TO.N,/Camera_center/CAM_UART_RX*%
X76038690Y-81959375D03*
D42*
%TO.P,Cam1,2,Pin_2_2*%
%TO.N,GND*%
X76038690Y-83959375D03*
%TO.P,Cam1,3,Pin_3_3*%
%TO.N,/Camera_left/<NO NET>*%
X76038690Y-85959375D03*
%TD*%
D24*
%TO.P,C13,1*%
%TO.N,+3.3VA*%
X96575000Y-69825000D03*
%TO.P,C13,2*%
%TO.N,GND*%
X96575000Y-67750000D03*
%TD*%
D43*
%TO.P,U1,1,VBAT_1*%
%TO.N,+3.3V*%
X104600000Y-71975000D03*
%TO.P,U1,2,PC13_2*%
%TO.N,unconnected-(U1-PC13-Pad2)*%
X104100000Y-71975000D03*
%TO.P,U1,3,PC14_3*%
%TO.N,unconnected-(U1-PC14-Pad3)*%
X103600000Y-71975000D03*
%TO.P,U1,4,PC15_4*%
%TO.N,unconnected-(U1-PC15-Pad4)*%
X103100000Y-71975000D03*
%TO.P,U1,5,PH0_5*%
%TO.N,/MCU/OSC IN*%
X102600000Y-71975000D03*
%TO.P,U1,6,PH1_6*%
%TO.N,/MCU/OSC OUT*%
X102100000Y-71975000D03*
%TO.P,U1,7,NRST_7*%
%TO.N,/MCU/NRST*%
X101600000Y-71975000D03*
%TO.P,U1,8,PC0_8*%
%TO.N,/Camera_left/PWN_EN*%
X101100000Y-71975000D03*
%TO.P,U1,9,PC1_9*%
%TO.N,/Camera_right/PWN_EN*%
X100600000Y-71975000D03*
%TO.P,U1,10,PC2_10*%
%TO.N,/Camera_center/PWN_EN*%
X100100000Y-71975000D03*
%TO.P,U1,11,PC3_11*%
%TO.N,unconnected-(U1-PC3-Pad11)*%
X99600000Y-71975000D03*
%TO.P,U1,12,VSSA_12*%
%TO.N,GND*%
X99100000Y-71975000D03*
%TO.P,U1,13,VDDA_13*%
%TO.N,+3.3VA*%
X98600000Y-71975000D03*
%TO.P,U1,14,PA0_14*%
%TO.N,/Camera_center/CAM_UART_RX*%
X98100000Y-71975000D03*
%TO.P,U1,15,PA1_15*%
%TO.N,unconnected-(U1-PA1-Pad15)*%
X97600000Y-71975000D03*
%TO.P,U1,16,PA2_16*%
%TO.N,unconnected-(U1-PA2-Pad16)*%
X97100000Y-71975000D03*
D44*
%TO.P,U1,17,PA3_17*%
%TO.N,unconnected-(U1-PA3-Pad17)*%
X95175000Y-73900000D03*
%TO.P,U1,18,VSS_18*%
%TO.N,GND*%
X95175000Y-74400000D03*
%TO.P,U1,19,VDD_19*%
%TO.N,+3.3V*%
X95175000Y-74900000D03*
%TO.P,U1,20,PA4_20*%
%TO.N,unconnected-(U1-PA4-Pad20)*%
X95175000Y-75400000D03*
%TO.P,U1,21,PA5_21*%
%TO.N,unconnected-(U1-PA5-Pad21)*%
X95175000Y-75900000D03*
%TO.P,U1,22,PA6_22*%
%TO.N,unconnected-(U1-PA6-Pad22)*%
X95175000Y-76400000D03*
%TO.P,U1,23,PA7_23*%
%TO.N,unconnected-(U1-PA7-Pad23)*%
X95175000Y-76900000D03*
%TO.P,U1,24,PC4_24*%
%TO.N,/MCU/RGB_DATA*%
X95175000Y-77400000D03*
%TO.P,U1,25,PC5_25*%
%TO.N,unconnected-(U1-PC5-Pad25)*%
X95175000Y-77900000D03*
%TO.P,U1,26,PB0_26*%
%TO.N,unconnected-(U1-PB0-Pad26)*%
X95175000Y-78400000D03*
%TO.P,U1,27,PB1_27*%
%TO.N,unconnected-(U1-PB1-Pad27)*%
X95175000Y-78900000D03*
%TO.P,U1,28,PB2_28*%
%TO.N,unconnected-(U1-PB2-Pad28)*%
X95175000Y-79400000D03*
%TO.P,U1,29,PB10_29*%
%TO.N,unconnected-(U1-PB10-Pad29)*%
X95175000Y-79900000D03*
%TO.P,U1,30,PB11_30*%
%TO.N,unconnected-(U1-PB11-Pad30)*%
X95175000Y-80400000D03*
%TO.P,U1,31,VCAP_1_31*%
%TO.N,Net-(U1-VCAP_1)*%
X95175000Y-80900000D03*
%TO.P,U1,32,VDD_32*%
%TO.N,+3.3V*%
X95175000Y-81400000D03*
D43*
%TO.P,U1,33,PB12_33*%
%TO.N,/Can_transceiver/CAN_TX_2*%
X97100000Y-83325000D03*
%TO.P,U1,34,PB13_34*%
%TO.N,/Can_transceiver/CAN_RX_2*%
X97600000Y-83325000D03*
%TO.P,U1,35,PB14_35*%
%TO.N,unconnected-(U1-PB14-Pad35)*%
X98100000Y-83325000D03*
%TO.P,U1,36,PB15_36*%
%TO.N,unconnected-(U1-PB15-Pad36)*%
X98600000Y-83325000D03*
%TO.P,U1,37,PC6_37*%
%TO.N,unconnected-(U1-PC6-Pad37)*%
X99100000Y-83325000D03*
%TO.P,U1,38,PC7_38*%
%TO.N,unconnected-(U1-PC7-Pad38)*%
X99600000Y-83325000D03*
%TO.P,U1,39,PC8_39*%
%TO.N,unconnected-(U1-PC8-Pad39)*%
X100100000Y-83325000D03*
%TO.P,U1,40,PC9_40*%
%TO.N,unconnected-(U1-PC9-Pad40)*%
X100600000Y-83325000D03*
%TO.P,U1,41,PA8_41*%
%TO.N,unconnected-(U1-PA8-Pad41)*%
X101100000Y-83325000D03*
%TO.P,U1,42,PA9_42*%
%TO.N,/MCU/VBUS*%
X101600000Y-83325000D03*
%TO.P,U1,43,PA10_43*%
%TO.N,unconnected-(U1-PA10-Pad43)*%
X102100000Y-83325000D03*
%TO.P,U1,44,PA11_44*%
%TO.N,/MCU/D-*%
X102600000Y-83325000D03*
%TO.P,U1,45,PA12_45*%
%TO.N,/MCU/D+*%
X103100000Y-83325000D03*
%TO.P,U1,46,PA13_46*%
%TO.N,/MCU/SWDIO*%
X103600000Y-83325000D03*
%TO.P,U1,47,VCAP_2_47*%
%TO.N,Net-(U1-VCAP_2)*%
X104100000Y-83325000D03*
%TO.P,U1,48,VDD_48*%
%TO.N,+3.3V*%
X104600000Y-83325000D03*
D44*
%TO.P,U1,49,PA14_49*%
%TO.N,/MCU/SWCLK*%
X106525000Y-81400000D03*
%TO.P,U1,50,PA15_50*%
%TO.N,unconnected-(U1-PA15-Pad50)*%
X106525000Y-80900000D03*
%TO.P,U1,51,PC10_51*%
%TO.N,unconnected-(U1-PC10-Pad51)*%
X106525000Y-80400000D03*
%TO.P,U1,52,PC11_52*%
%TO.N,unconnected-(U1-PC11-Pad52)*%
X106525000Y-79900000D03*
%TO.P,U1,53,PC12_53*%
%TO.N,unconnected-(U1-PC12-Pad53)*%
X106525000Y-79400000D03*
%TO.P,U1,54,PD2_54*%
%TO.N,unconnected-(U1-PD2-Pad54)*%
X106525000Y-78900000D03*
%TO.P,U1,55,PB3_55*%
%TO.N,unconnected-(U1-PB3-Pad55)*%
X106525000Y-78400000D03*
%TO.P,U1,56,PB4_56*%
%TO.N,unconnected-(U1-PB4-Pad56)*%
X106525000Y-77900000D03*
%TO.P,U1,57,PB5_57*%
%TO.N,unconnected-(U1-PB5-Pad57)*%
X106525000Y-77400000D03*
%TO.P,U1,58,PB6_58*%
%TO.N,unconnected-(U1-PB6-Pad58)*%
X106525000Y-76900000D03*
%TO.P,U1,59,PB7_59*%
%TO.N,unconnected-(U1-PB7-Pad59)*%
X106525000Y-76400000D03*
%TO.P,U1,60,BOOT0_60*%
%TO.N,/MCU/BOOT0*%
X106525000Y-75900000D03*
%TO.P,U1,61,PB8_61*%
%TO.N,unconnected-(U1-PB8-Pad61)*%
X106525000Y-75400000D03*
%TO.P,U1,62,PB9_62*%
%TO.N,unconnected-(U1-PB9-Pad62)*%
X106525000Y-74900000D03*
%TO.P,U1,63,VSS_63*%
%TO.N,GND*%
X106525000Y-74400000D03*
%TO.P,U1,64,VDD_64*%
%TO.N,+3.3V*%
X106525000Y-73900000D03*
%TD*%
D45*
%TO.P,D2,1,K_1*%
%TO.N,Net-(D2-K)*%
X88612500Y-96200000D03*
%TO.P,D2,2,A_2*%
%TO.N,+BATT*%
X92987500Y-96200000D03*
%TD*%
D46*
%TO.P,Y1,1,1_1*%
%TO.N,/MCU/OSC IN*%
X104051000Y-64017750D03*
%TO.P,Y1,2,2_2*%
%TO.N,GND*%
X101151000Y-64017750D03*
%TO.P,Y1,3,3_3*%
%TO.N,/MCU/OSC OUT*%
X101151000Y-66317750D03*
%TO.P,Y1,4,4_4*%
%TO.N,GND*%
X104051000Y-66317750D03*
%TD*%
D27*
%TO.P,CAN_OUT1,1,Pin_1_1*%
%TO.N,/Can_transceiver/CANH*%
X101200000Y-53800000D03*
D28*
%TO.P,CAN_OUT1,2,Pin_2_2*%
%TO.N,/Can_transceiver/CANL*%
X101200000Y-59300000D03*
%TD*%
D10*
%TO.P,C24,1*%
%TO.N,/Camera_right/<NO NET>*%
X79012500Y-106556250D03*
%TO.P,C24,2*%
%TO.N,GND*%
X81087500Y-106556250D03*
%TD*%
D11*
%TO.P,REF\u002A\u002A,1*%
%TO.N,N/C*%
X75450000Y-41150000D03*
X77147056Y-41852944D03*
X73752944Y-41852944D03*
X77850000Y-43550000D03*
D12*
X75450000Y-43550000D03*
D11*
X73050000Y-43550000D03*
X77147056Y-45247056D03*
X73752944Y-45247056D03*
X75450000Y-45950000D03*
%TD*%
D20*
%TO.P,C23,1*%
%TO.N,+5V*%
X74650000Y-107918750D03*
%TO.P,C23,2*%
%TO.N,GND*%
X74650000Y-109993750D03*
%TD*%
D14*
%TO.P,R9,1*%
%TO.N,/Camera_right/PWN_EN*%
X76550000Y-111756250D03*
%TO.P,R9,2*%
%TO.N,+3.3V*%
X78550000Y-111756250D03*
%TD*%
D10*
%TO.P,C25,1*%
%TO.N,/Camera_right/<NO NET>*%
X79012500Y-104556250D03*
%TO.P,C25,2*%
%TO.N,GND*%
X81087500Y-104556250D03*
%TD*%
D47*
%TO.P,PowerLED1,1,K_1*%
%TO.N,GND*%
X115062500Y-103875000D03*
%TO.P,PowerLED1,2,A_2*%
%TO.N,Net-(PowerLED1-A)*%
X115062500Y-105625000D03*
%TD*%
D14*
%TO.P,R7,1*%
%TO.N,Net-(J3-CC2)*%
X76850000Y-74025000D03*
%TO.P,R7,2*%
%TO.N,GND*%
X78850000Y-74025000D03*
%TD*%
D20*
%TO.P,C32,1*%
%TO.N,+3.3V*%
X88950000Y-44912500D03*
%TO.P,C32,2*%
%TO.N,GND*%
X88950000Y-46987500D03*
%TD*%
D10*
%TO.P,C28,1*%
%TO.N,/Camera_center/<NO NET>*%
X79217875Y-124781250D03*
%TO.P,C28,2*%
%TO.N,GND*%
X81292875Y-124781250D03*
%TD*%
D20*
%TO.P,C11,1*%
%TO.N,+3.3V*%
X108800000Y-73612500D03*
%TO.P,C11,2*%
%TO.N,GND*%
X108800000Y-75687500D03*
%TD*%
D41*
%TO.P,Cam2,1,Pin_1_1*%
%TO.N,/Camera_center/CAM_UART_RX*%
X75900000Y-99256250D03*
D42*
%TO.P,Cam2,2,Pin_2_2*%
%TO.N,GND*%
X75900000Y-101256250D03*
%TO.P,Cam2,3,Pin_3_3*%
%TO.N,/Camera_right/<NO NET>*%
X75900000Y-103256250D03*
%TD*%
D48*
%TO.P,D3,1,K_1*%
%TO.N,Net-(D2-K)*%
X88000000Y-91587500D03*
%TO.P,D3,2,A_2*%
%TO.N,/MCU/VBUS*%
X88000000Y-87212500D03*
%TD*%
D10*
%TO.P,C26,1*%
%TO.N,/Camera_right/<NO NET>*%
X79012500Y-102556250D03*
%TO.P,C26,2*%
%TO.N,GND*%
X81087500Y-102556250D03*
%TD*%
D23*
%TO.P,U5,1,VIN_1*%
%TO.N,+5V*%
X76600000Y-108106250D03*
%TO.P,U5,2,GND_2*%
%TO.N,GND*%
X76600000Y-109056250D03*
%TO.P,U5,3,ON_3*%
%TO.N,/Camera_right/PWN_EN*%
X76600000Y-110006250D03*
%TO.P,U5,4,CT_4*%
%TO.N,unconnected-(U5-CT-Pad4)*%
X79100000Y-110006250D03*
%TO.P,U5,5,QOD_5*%
%TO.N,unconnected-(U5-QOD-Pad5)*%
X79100000Y-109056250D03*
%TO.P,U5,6,VOUT_6*%
%TO.N,/Camera_right/<NO NET>*%
X79100000Y-108106250D03*
%TD*%
D10*
%TO.P,C19,1*%
%TO.N,/Camera_left/<NO NET>*%
X79419940Y-89209375D03*
%TO.P,C19,2*%
%TO.N,GND*%
X81494940Y-89209375D03*
%TD*%
D27*
%TO.P,CAN_IN1,1,Pin_1_1*%
%TO.N,/Can_transceiver/CANH*%
X109600000Y-53800000D03*
D28*
%TO.P,CAN_IN1,2,Pin_2_2*%
%TO.N,/Can_transceiver/CANL*%
X109600000Y-59300000D03*
%TD*%
D24*
%TO.P,C17,1*%
%TO.N,+3.3V*%
X103937500Y-92437500D03*
%TO.P,C17,2*%
%TO.N,GND*%
X103937500Y-90362500D03*
%TD*%
D10*
%TO.P,C20,1*%
%TO.N,/Camera_left/<NO NET>*%
X79419940Y-87209375D03*
%TO.P,C20,2*%
%TO.N,GND*%
X81494940Y-87209375D03*
%TD*%
%TO.P,C21,1*%
%TO.N,/Camera_left/<NO NET>*%
X79419940Y-85209375D03*
%TO.P,C21,2*%
%TO.N,GND*%
X81494940Y-85209375D03*
%TD*%
D49*
%TO.N,GND*%
X91324265Y-86724265D03*
X105800002Y-62200000D03*
X99200000Y-64000000D03*
X119725000Y-72075000D03*
X99200000Y-68800000D03*
X115050000Y-102200000D03*
X112200000Y-114700000D03*
X104600000Y-69600000D03*
X99100000Y-70500000D03*
X103300000Y-62200000D03*
X90890628Y-70287500D03*
X110300000Y-75800000D03*
X99200000Y-62200000D03*
X83400000Y-65675000D03*
X110900000Y-81900000D03*
X98000000Y-68800000D03*
X81300000Y-126125000D03*
X104400000Y-62200000D03*
X100500000Y-62200000D03*
X94625000Y-66337500D03*
X92200000Y-93400000D03*
X103900000Y-88800000D03*
X81100000Y-108106250D03*
X102050000Y-86950000D03*
X103500000Y-69600000D03*
X75150000Y-127840380D03*
X74850000Y-110006250D03*
X105800000Y-64300000D03*
X105800002Y-63200000D03*
X105800000Y-69600000D03*
X98900000Y-96100000D03*
X105800000Y-66400000D03*
X105800000Y-65300000D03*
X90537500Y-65325000D03*
X102400000Y-62200000D03*
X117525000Y-68575000D03*
X107225000Y-87050000D03*
X105800000Y-67400000D03*
X100300000Y-69600000D03*
X120000000Y-88325000D03*
X98000000Y-65400000D03*
X89000000Y-48900000D03*
X93500000Y-92900000D03*
X82800000Y-88200000D03*
X108600000Y-69100000D03*
X80600000Y-73600000D03*
X101900000Y-88800000D03*
X91700000Y-73600000D03*
X99200000Y-63000000D03*
X98000000Y-67800000D03*
X83600000Y-63100000D03*
X74888690Y-92509375D03*
X105800000Y-68300000D03*
X98000000Y-64000000D03*
X91210795Y-81404280D03*
X98000000Y-66500000D03*
X101400000Y-62200000D03*
%TO.N,+3.3V*%
X93175000Y-86450000D03*
X80288690Y-94486732D03*
X86750000Y-44900000D03*
X91750000Y-75650000D03*
X106075000Y-92750000D03*
X110300000Y-73600000D03*
X118975000Y-103950000D03*
X92675000Y-62287500D03*
X106700000Y-69700000D03*
X107700000Y-83912500D03*
X101500000Y-95900000D03*
X113769608Y-63880392D03*
X80000000Y-111806250D03*
X114100000Y-109200000D03*
X80440380Y-128265380D03*
X97035125Y-96321734D03*
X119950000Y-86575000D03*
%TO.N,/MCU/RGB_DATA*%
X101900000Y-81200000D03*
X111200000Y-108100000D03*
%TO.N,/Camera_left/PWN_EN*%
X98900000Y-73800000D03*
X80400000Y-96200000D03*
%TO.N,/Camera_center/PWN_EN*%
X99805915Y-73235206D03*
X80900000Y-131600000D03*
%TO.N,/Can_transceiver/CAN_TX_2*%
X110016287Y-69532469D03*
X100700000Y-81000000D03*
%TO.N,/Can_transceiver/CAN_RX_2*%
X99601000Y-81566100D03*
X109953168Y-67077179D03*
%TO.N,/MCU/D+*%
X86100000Y-68000000D03*
X85200000Y-69500000D03*
%TO.N,/MCU/NRST*%
X91200000Y-71600000D03*
X105000000Y-77450000D03*
X109600000Y-91300000D03*
%TO.N,/MCU/SWCLK*%
X107400000Y-82200000D03*
X96200000Y-47300000D03*
%TO.N,/MCU/SWDIO*%
X108650000Y-81550000D03*
%TO.N,/Camera_center/CAM_UART_RX*%
X78575000Y-99325000D03*
X98100000Y-73400000D03*
X78550000Y-81975000D03*
X78625000Y-116875000D03*
%TO.N,/Camera_right/PWN_EN*%
X79800000Y-113500000D03*
X99639466Y-74260534D03*
%TD*%
%TO.N,GND*%
D50*
X99200000Y-62200000D02*
X99200000Y-64000000D01*
X115062500Y-103875000D02*
X115062500Y-102212500D01*
D51*
X109830000Y-83520000D02*
X109830000Y-82820000D01*
D50*
X108737500Y-71300000D02*
X108737500Y-69237500D01*
X99100000Y-71975000D02*
X99100000Y-70500000D01*
X81095000Y-63075000D02*
X82000000Y-63075000D01*
D51*
X81087500Y-108093750D02*
X81100000Y-108106250D01*
X81087500Y-106556250D02*
X81087500Y-108093750D01*
D50*
X79745000Y-64425000D02*
X81095000Y-63075000D01*
X94575000Y-67750000D02*
X94575000Y-66387500D01*
X90537500Y-70432439D02*
X90592561Y-70487500D01*
X81809375Y-87209375D02*
X82800000Y-88200000D01*
X120025000Y-88350000D02*
X120000000Y-88325000D01*
X99200000Y-64000000D02*
X98000000Y-64000000D01*
X101151000Y-62449000D02*
X101400000Y-62200000D01*
X117460000Y-68510000D02*
X117525000Y-68575000D01*
D51*
X103937500Y-88837500D02*
X103900000Y-88800000D01*
X112250000Y-114650000D02*
X112200000Y-114700000D01*
D50*
X119675000Y-72025000D02*
X119725000Y-72075000D01*
X90537500Y-69687500D02*
X90537500Y-70432439D01*
D51*
X81494940Y-89209375D02*
X81494940Y-85209375D01*
X92300000Y-91700000D02*
X93500000Y-92900000D01*
D50*
X76600000Y-109056250D02*
X75800000Y-109056250D01*
X115062500Y-102212500D02*
X115050000Y-102200000D01*
X120025000Y-89450000D02*
X120025000Y-88350000D01*
X105800000Y-62200000D02*
X99200000Y-62200000D01*
X82850000Y-66975000D02*
X82850000Y-66225000D01*
X75912500Y-127157125D02*
X74937500Y-128132125D01*
D51*
X81087500Y-106556250D02*
X81087500Y-102556250D01*
X81292875Y-120644625D02*
X81292875Y-124781250D01*
D50*
X91737500Y-73562500D02*
X91700000Y-73600000D01*
X102012500Y-86912500D02*
X102050000Y-86950000D01*
D51*
X88950000Y-48850000D02*
X89000000Y-48900000D01*
D50*
X93150000Y-73562500D02*
X93987500Y-74400000D01*
X105800000Y-69600000D02*
X105800000Y-62200000D01*
X98000000Y-64000000D02*
X98000000Y-68800000D01*
X101151000Y-64017750D02*
X101151000Y-62449000D01*
X117460000Y-67075000D02*
X117460000Y-64677500D01*
D51*
X109830000Y-82820000D02*
X110750000Y-81900000D01*
D50*
X107362500Y-74400000D02*
X108762500Y-75800000D01*
X108762500Y-75800000D02*
X110300000Y-75800000D01*
X105768750Y-68268750D02*
X105800000Y-68300000D01*
X117460000Y-64677500D02*
X118237500Y-63900000D01*
X78850000Y-74025000D02*
X80175000Y-74025000D01*
D51*
X88950000Y-46987500D02*
X88950000Y-48850000D01*
D50*
X76838690Y-91659375D02*
X75826190Y-91659375D01*
X98369750Y-67430250D02*
X98000000Y-67800000D01*
X117460000Y-67075000D02*
X117460000Y-68510000D01*
X90690628Y-70487500D02*
X90890628Y-70287500D01*
X75800000Y-109056250D02*
X74850000Y-110006250D01*
D51*
X106250000Y-86075000D02*
X107225000Y-87050000D01*
D50*
X80600000Y-71780000D02*
X80600000Y-73600000D01*
X82850000Y-66225000D02*
X83400000Y-65675000D01*
D51*
X91112500Y-86512500D02*
X91324265Y-86724265D01*
D50*
X93150000Y-73562500D02*
X91737500Y-73562500D01*
X105717750Y-66317750D02*
X105800000Y-66400000D01*
D51*
X92300000Y-91275000D02*
X92300000Y-91700000D01*
D50*
X98000000Y-68800000D02*
X100300000Y-68800000D01*
D51*
X94700000Y-91700000D02*
X93500000Y-92900000D01*
D50*
X75826190Y-91659375D02*
X74988690Y-92496875D01*
X90537500Y-65325000D02*
X90537500Y-63887500D01*
X100300000Y-68800000D02*
X100300000Y-69600000D01*
X82000000Y-63075000D02*
X83575000Y-63075000D01*
X93987500Y-74400000D02*
X95175000Y-74400000D01*
X76687500Y-127157125D02*
X75912500Y-127157125D01*
D51*
X91112500Y-83150000D02*
X91112500Y-86512500D01*
X81292875Y-124781250D02*
X81292875Y-126117875D01*
D50*
X118730000Y-72025000D02*
X119675000Y-72025000D01*
X83575000Y-63075000D02*
X83600000Y-63100000D01*
D51*
X95485000Y-91700000D02*
X94700000Y-91700000D01*
D50*
X102012500Y-85450000D02*
X102012500Y-86912500D01*
X90592561Y-70487500D02*
X90690628Y-70487500D01*
X79745000Y-70925000D02*
X80600000Y-71780000D01*
X106525000Y-74400000D02*
X107362500Y-74400000D01*
X103500000Y-69600000D02*
X105800000Y-69600000D01*
X108737500Y-69237500D02*
X108600000Y-69100000D01*
X80175000Y-74025000D02*
X80600000Y-73600000D01*
X104662500Y-68268750D02*
X105768750Y-68268750D01*
D51*
X114150000Y-114650000D02*
X112250000Y-114650000D01*
D50*
X104051000Y-66317750D02*
X105717750Y-66317750D01*
D51*
X81292875Y-126117875D02*
X81300000Y-126125000D01*
X110750000Y-81900000D02*
X110900000Y-81900000D01*
D50*
X99126000Y-67430250D02*
X98369750Y-67430250D01*
D51*
X103937500Y-90362500D02*
X103937500Y-88837500D01*
D50*
X94575000Y-66387500D02*
X94625000Y-66337500D01*
X94575000Y-67750000D02*
X96575000Y-67750000D01*
%TO.N,+3.3V*%
X78838690Y-94209375D02*
X80011333Y-94209375D01*
X78850000Y-129775000D02*
X79530760Y-129775000D01*
D51*
X88950000Y-44912500D02*
X86762500Y-44912500D01*
D50*
X108662500Y-73600000D02*
X110300000Y-73600000D01*
X80440380Y-128865380D02*
X80440380Y-128265380D01*
D51*
X114150000Y-109250000D02*
X114100000Y-109200000D01*
D50*
X116190000Y-67075000D02*
X116190000Y-64977500D01*
X107615000Y-92750000D02*
X106075000Y-92750000D01*
D51*
X101515000Y-95885000D02*
X101500000Y-95900000D01*
X101515000Y-91700000D02*
X103200000Y-91700000D01*
D50*
X93425000Y-83150000D02*
X95175000Y-81400000D01*
D51*
X92612500Y-63887500D02*
X92612500Y-62350000D01*
X86762500Y-44912500D02*
X86750000Y-44900000D01*
D50*
X115112500Y-63900000D02*
X113789216Y-63900000D01*
X93150000Y-75637500D02*
X93887500Y-74900000D01*
X79950000Y-111756250D02*
X80000000Y-111806250D01*
D51*
X92612500Y-63887500D02*
X92612500Y-65750000D01*
X97035125Y-95550125D02*
X97035125Y-96321734D01*
X89932500Y-43930000D02*
X91930000Y-43930000D01*
D50*
X104600000Y-71975000D02*
X105275000Y-71300000D01*
D51*
X93187500Y-86437500D02*
X93175000Y-86450000D01*
D50*
X106525000Y-73900000D02*
X108362500Y-73900000D01*
X105275000Y-71300000D02*
X106662500Y-71300000D01*
D51*
X95485000Y-94000000D02*
X99215000Y-94000000D01*
X93187500Y-85150000D02*
X93187500Y-86437500D01*
D50*
X106250000Y-83912500D02*
X107700000Y-83912500D01*
X78550000Y-111756250D02*
X79950000Y-111756250D01*
D51*
X103200000Y-91700000D02*
X103937500Y-92437500D01*
D50*
X116190000Y-64977500D02*
X115112500Y-63900000D01*
D51*
X114150000Y-111350000D02*
X114150000Y-109250000D01*
D50*
X113789216Y-63900000D02*
X113769608Y-63880392D01*
X105187500Y-83912500D02*
X104600000Y-83325000D01*
D51*
X92612500Y-62350000D02*
X92675000Y-62287500D01*
X88950000Y-44912500D02*
X89932500Y-43930000D01*
X93150000Y-75637500D02*
X91762500Y-75637500D01*
X93187500Y-85150000D02*
X93187500Y-83150000D01*
D50*
X118962500Y-105650000D02*
X118962500Y-103962500D01*
X106662500Y-69737500D02*
X106700000Y-69700000D01*
D51*
X101515000Y-91700000D02*
X101515000Y-95885000D01*
X95485000Y-94000000D02*
X97035125Y-95550125D01*
D50*
X79530760Y-129775000D02*
X80440380Y-128865380D01*
X80011333Y-94209375D02*
X80288690Y-94486732D01*
D51*
X91762500Y-75637500D02*
X91750000Y-75650000D01*
D50*
X118962500Y-103962500D02*
X118975000Y-103950000D01*
X106250000Y-83912500D02*
X105187500Y-83912500D01*
X106662500Y-71300000D02*
X106662500Y-69737500D01*
D51*
X99215000Y-94000000D02*
X101515000Y-91700000D01*
X119950000Y-85400000D02*
X119950000Y-86575000D01*
D50*
X93887500Y-74900000D02*
X95175000Y-74900000D01*
%TO.N,+3.3VA*%
D51*
X92575000Y-67787500D02*
X92575000Y-69650000D01*
D50*
X97300000Y-69825000D02*
X98600000Y-71125000D01*
D51*
X92612500Y-69687500D02*
X94437500Y-69687500D01*
D50*
X98600000Y-71125000D02*
X98600000Y-71975000D01*
D51*
X94575000Y-69825000D02*
X96575000Y-69825000D01*
D50*
X96575000Y-69825000D02*
X97300000Y-69825000D01*
%TO.N,/MCU/RGB_DATA*%
X111200000Y-108100000D02*
X115800000Y-108100000D01*
X115800000Y-108100000D02*
X119050000Y-111350000D01*
X98100000Y-77400000D02*
X101900000Y-81200000D01*
X95175000Y-77400000D02*
X98100000Y-77400000D01*
%TO.N,/Camera_left/PWN_EN*%
X98900000Y-74410534D02*
X98900000Y-73800000D01*
X99989466Y-74910534D02*
X99400000Y-74910534D01*
X78377818Y-95700000D02*
X78877818Y-96200000D01*
X101100000Y-73800000D02*
X99989466Y-74910534D01*
X101100000Y-71975000D02*
X101100000Y-73800000D01*
X76838690Y-92609375D02*
X76838690Y-93808375D01*
X78329315Y-95700000D02*
X78377818Y-95700000D01*
X78877818Y-96200000D02*
X80400000Y-96200000D01*
X76838690Y-94209375D02*
X78329315Y-95700000D01*
X99400000Y-74910534D02*
X98900000Y-74410534D01*
%TO.N,/MCU/OSC IN*%
X104051000Y-64017750D02*
X102700000Y-65368750D01*
X102700000Y-65368750D02*
X102700000Y-68031250D01*
X102600000Y-68606250D02*
X102600000Y-71975000D01*
%TO.N,Net-(J3-CC1)*%
X82000000Y-65075000D02*
X80650000Y-66425000D01*
X80650000Y-66425000D02*
X79745000Y-66425000D01*
%TO.N,Net-(JP1-A)*%
X115000000Y-75000000D02*
X116625000Y-75000000D01*
%TO.N,/Can_transceiver/CANL*%
X116190000Y-71050001D02*
X115294570Y-70154571D01*
X110025000Y-59230000D02*
X103075000Y-59230000D01*
X109300000Y-69580761D02*
X109300000Y-59955000D01*
X116190000Y-72025000D02*
X116190000Y-72999999D01*
X103050000Y-59205000D02*
X101200000Y-59205000D01*
X114373387Y-73944000D02*
X113550000Y-74767387D01*
X109450000Y-69730761D02*
X109300000Y-69580761D01*
X109704639Y-70154571D02*
X109450000Y-69899932D01*
X115245999Y-73944000D02*
X114373387Y-73944000D01*
X115294570Y-70154571D02*
X109704639Y-70154571D01*
X116190000Y-72025000D02*
X116190000Y-71050001D01*
X103075000Y-59230000D02*
X103050000Y-59205000D01*
X116190000Y-72999999D02*
X115245999Y-73944000D01*
X109450000Y-69899932D02*
X109450000Y-69730761D01*
%TO.N,+5V*%
D51*
X72625000Y-96250000D02*
X72625000Y-105893750D01*
X74650000Y-107918750D02*
X76412500Y-107918750D01*
X73819625Y-126119625D02*
X74937500Y-126119625D01*
X72625000Y-105893750D02*
X72625000Y-124925000D01*
X79350000Y-97450000D02*
X83850000Y-97450000D01*
X73818750Y-107918750D02*
X74650000Y-107918750D01*
X78150000Y-96250000D02*
X79350000Y-97450000D01*
X84750000Y-98350000D02*
X87551708Y-98350000D01*
X72625000Y-105893750D02*
X72625000Y-106725000D01*
X100600000Y-101000000D02*
X103140000Y-101000000D01*
X88052708Y-98851000D02*
X98451000Y-98851000D01*
X98451000Y-98851000D02*
X100600000Y-101000000D01*
X76412500Y-107918750D02*
X76600000Y-108106250D01*
X72625000Y-91225000D02*
X73428125Y-90421875D01*
X83850000Y-97450000D02*
X84750000Y-98350000D01*
X74988690Y-90421875D02*
X76551190Y-90421875D01*
X72625000Y-96250000D02*
X72625000Y-91225000D01*
X74937500Y-126119625D02*
X76600000Y-126119625D01*
X72625000Y-124925000D02*
X73819625Y-126119625D01*
X72625000Y-96250000D02*
X78150000Y-96250000D01*
X76600000Y-126119625D02*
X76687500Y-126207125D01*
X87551708Y-98350000D02*
X88052708Y-98851000D01*
X73428125Y-90421875D02*
X74988690Y-90421875D01*
X72625000Y-106725000D02*
X73818750Y-107918750D01*
X76551190Y-90421875D02*
X76838690Y-90709375D01*
%TO.N,/Camera_center/PWN_EN*%
D50*
X100100000Y-72941121D02*
X100100000Y-71975000D01*
X78675000Y-131600000D02*
X80900000Y-131600000D01*
X76850000Y-129775000D02*
X78675000Y-131600000D01*
X99805915Y-73235206D02*
X100100000Y-72941121D01*
X76687500Y-128107125D02*
X77133550Y-128553175D01*
X77133550Y-128553175D02*
X77133550Y-129491450D01*
%TO.N,/Camera_center/<NO NET>*%
X78350000Y-120875000D02*
X75900000Y-120875000D01*
X79187500Y-126207125D02*
X79187500Y-124811625D01*
X79217875Y-120644625D02*
X78580375Y-120644625D01*
X79217875Y-124781250D02*
X79217875Y-122644625D01*
X78580375Y-120644625D02*
X78350000Y-120875000D01*
X79217875Y-122644625D02*
X79217875Y-120644625D01*
%TO.N,+BATT*%
D52*
X94387500Y-97600000D02*
X92987500Y-96200000D01*
X103485000Y-124370000D02*
X109600000Y-124370000D01*
X100600000Y-124025000D02*
X103140000Y-124025000D01*
X103140000Y-124025000D02*
X103485000Y-124370000D01*
X106050000Y-97900000D02*
X98843503Y-97900000D01*
X106050000Y-114600000D02*
X106050000Y-97900000D01*
X103140000Y-117510000D02*
X106050000Y-114600000D01*
X98543502Y-97600000D02*
X94387500Y-97600000D01*
X103140000Y-124025000D02*
X103140000Y-117510000D01*
X98843503Y-97900000D02*
X98543502Y-97600000D01*
%TO.N,/Camera_left/<NO NET>*%
D50*
X79419940Y-85209375D02*
X79419940Y-87209375D01*
X76788690Y-85209375D02*
X76038690Y-85959375D01*
X79338690Y-90709375D02*
X79338690Y-89290625D01*
X79419940Y-87209375D02*
X79419940Y-89209375D01*
X79419940Y-85209375D02*
X76788690Y-85209375D01*
%TO.N,/MCU/BOOT0*%
X111830000Y-81981471D02*
X111148529Y-81300000D01*
X111830000Y-83520000D02*
X111830000Y-81981471D01*
X111148529Y-81300000D02*
X109610000Y-81300000D01*
X112130000Y-83520000D02*
X113950000Y-81700000D01*
X107333824Y-75900000D02*
X106525000Y-75900000D01*
X109610000Y-81300000D02*
X107601000Y-79291000D01*
X107601000Y-79291000D02*
X107601000Y-76167176D01*
X107601000Y-76167176D02*
X107333824Y-75900000D01*
%TO.N,Net-(U1-VCAP_2)*%
X104087500Y-85450000D02*
X104087500Y-83337500D01*
%TO.N,Net-(D2-K)*%
D51*
X90600000Y-90900000D02*
X92437500Y-89062500D01*
X88612500Y-92200000D02*
X88000000Y-91587500D01*
X95147500Y-89062500D02*
X95485000Y-89400000D01*
X88612500Y-96200000D02*
X88612500Y-92900000D01*
X90600000Y-92400000D02*
X90600000Y-90900000D01*
X90100000Y-92900000D02*
X90600000Y-92400000D01*
X88612500Y-92900000D02*
X88612500Y-92200000D01*
X92437500Y-89062500D02*
X95147500Y-89062500D01*
X88612500Y-92900000D02*
X90100000Y-92900000D01*
%TO.N,/Can_transceiver/CAN_TX_2*%
D50*
X110038389Y-69554571D02*
X110016287Y-69532469D01*
X100263224Y-80863224D02*
X100400000Y-81000000D01*
X97100000Y-82380760D02*
X98617536Y-80863224D01*
X118730000Y-67075000D02*
X118730000Y-68218529D01*
X117393958Y-69554571D02*
X110038389Y-69554571D01*
X100400000Y-81000000D02*
X100700000Y-81000000D01*
X97100000Y-83325000D02*
X97100000Y-82380760D01*
X98617536Y-80863224D02*
X100263224Y-80863224D01*
X118730000Y-68218529D02*
X117393958Y-69554571D01*
%TO.N,/Can_transceiver/CAN_RX_2*%
X114920000Y-67075000D02*
X109955347Y-67075000D01*
X97600000Y-82516176D02*
X98550076Y-81566100D01*
X98550076Y-81566100D02*
X99601000Y-81566100D01*
X97600000Y-83325000D02*
X97600000Y-82516176D01*
X109955347Y-67075000D02*
X109953168Y-67077179D01*
%TO.N,/Can_transceiver/CANH*%
X103050000Y-53705000D02*
X101200000Y-53705000D01*
X103075000Y-53730000D02*
X103050000Y-53705000D01*
X118285000Y-74990000D02*
X117460000Y-74165000D01*
X117460000Y-72025000D02*
X117460000Y-71050001D01*
X119331000Y-62694840D02*
X110366160Y-53730000D01*
X117460000Y-74165000D02*
X117460000Y-72025000D01*
X119331000Y-69179001D02*
X119331000Y-62694840D01*
X117460000Y-71050001D02*
X119331000Y-69179001D01*
X110366160Y-53730000D02*
X103075000Y-53730000D01*
%TO.N,/MCU/OSC OUT*%
X99126000Y-65705250D02*
X100538500Y-65705250D01*
X101900000Y-67066750D02*
X101900000Y-70966176D01*
X101900000Y-70966176D02*
X102100000Y-71166176D01*
X102100000Y-71166176D02*
X102100000Y-71975000D01*
%TO.N,/MCU/D-*%
X95256408Y-72674000D02*
X102600000Y-80017592D01*
X80771000Y-67879000D02*
X80771000Y-66974000D01*
X83625000Y-67925000D02*
X83800000Y-67750000D01*
X80771000Y-66974000D02*
X80722000Y-66925000D01*
X80722000Y-66925000D02*
X79745000Y-66925000D01*
X102600000Y-80017592D02*
X102600000Y-83325000D01*
X83800000Y-67750000D02*
X83800000Y-66975000D01*
X80725000Y-67925000D02*
X83625000Y-67925000D01*
X83800000Y-67000000D02*
X89474000Y-72674000D01*
X80725000Y-67925000D02*
X80771000Y-67879000D01*
X79745000Y-67925000D02*
X80725000Y-67925000D01*
X89474000Y-72674000D02*
X95256408Y-72674000D01*
%TO.N,/MCU/VBUS*%
D51*
X75799000Y-74772292D02*
X76226708Y-75200000D01*
X81925000Y-75200000D02*
X81925000Y-81137500D01*
D50*
X98521324Y-87212500D02*
X101600000Y-84133824D01*
X101600000Y-84133824D02*
X101600000Y-83325000D01*
D51*
X76000000Y-73076708D02*
X75799000Y-73277708D01*
D50*
X91684559Y-87212500D02*
X98521324Y-87212500D01*
D51*
X81925000Y-70501000D02*
X81925000Y-75200000D01*
X81925000Y-81137500D02*
X88000000Y-87212500D01*
X81149000Y-70501000D02*
X81925000Y-70501000D01*
X82850000Y-70302000D02*
X82850000Y-69475000D01*
X79745000Y-70125000D02*
X80773000Y-70125000D01*
D50*
X78975000Y-65225000D02*
X78200000Y-66000000D01*
D51*
X78200000Y-66000000D02*
X76000000Y-68200000D01*
D50*
X88000000Y-87212500D02*
X88837500Y-88050000D01*
D51*
X82651000Y-70501000D02*
X82850000Y-70302000D01*
X75799000Y-73277708D02*
X75799000Y-74772292D01*
X81925000Y-70501000D02*
X82651000Y-70501000D01*
D50*
X79745000Y-65225000D02*
X78975000Y-65225000D01*
D51*
X80773000Y-70125000D02*
X81149000Y-70501000D01*
D50*
X88837500Y-88050000D02*
X90847059Y-88050000D01*
D51*
X76000000Y-68200000D02*
X76000000Y-73076708D01*
X76226708Y-75200000D02*
X81925000Y-75200000D01*
D50*
X90847059Y-88050000D02*
X91684559Y-87212500D01*
%TO.N,/MCU/D+*%
X83800000Y-69475000D02*
X85175000Y-69475000D01*
X86100000Y-68000000D02*
X86100000Y-68500000D01*
X85175000Y-69475000D02*
X85200000Y-69500000D01*
X78768000Y-67425000D02*
X78719000Y-67474000D01*
X83525000Y-68425000D02*
X83800000Y-68700000D01*
X78775000Y-68425000D02*
X79745000Y-68425000D01*
X79745000Y-68425000D02*
X83525000Y-68425000D01*
X83800000Y-68700000D02*
X83800000Y-69475000D01*
X78719000Y-68369000D02*
X78775000Y-68425000D01*
X89874000Y-72274000D02*
X95422094Y-72274000D01*
X95422094Y-72274000D02*
X103149000Y-80000906D01*
X78719000Y-67474000D02*
X78719000Y-68369000D01*
X79745000Y-67425000D02*
X78768000Y-67425000D01*
X86100000Y-68500000D02*
X89874000Y-72274000D01*
X103149000Y-80000906D02*
X103149000Y-83150000D01*
%TO.N,Net-(PowerLED1-A)*%
D51*
X116962500Y-105650000D02*
X115087500Y-105650000D01*
%TO.N,/MCU/NRST*%
D50*
X95315194Y-71600000D02*
X99215194Y-75500000D01*
X109615000Y-92750000D02*
X111537500Y-92750000D01*
X109615000Y-91315000D02*
X109600000Y-91300000D01*
X109615000Y-92750000D02*
X109615000Y-91315000D01*
X99215194Y-75500000D02*
X102600000Y-75500000D01*
X102825000Y-75275000D02*
X101600000Y-74050000D01*
X102600000Y-75500000D02*
X102825000Y-75275000D01*
X105000000Y-77450000D02*
X102825000Y-75275000D01*
X101600000Y-74050000D02*
X101600000Y-71975000D01*
X91200000Y-71600000D02*
X95315194Y-71600000D01*
%TO.N,Net-(C2-Pad2)*%
X111587500Y-90712500D02*
X114025000Y-93150000D01*
%TO.N,Net-(U1-VCAP_1)*%
X93287500Y-80900000D02*
X95175000Y-80900000D01*
%TO.N,Net-(J3-CC2)*%
X76850000Y-71058992D02*
X78483992Y-69425000D01*
X76850000Y-74025000D02*
X76850000Y-71058992D01*
X78483992Y-69425000D02*
X79745000Y-69425000D01*
%TO.N,/MCU/SWCLK*%
X106525000Y-81400000D02*
X107325000Y-82200000D01*
X96200000Y-47300000D02*
X95370000Y-46470000D01*
X107325000Y-82200000D02*
X107400000Y-82200000D01*
X95370000Y-46470000D02*
X93200000Y-46470000D01*
%TO.N,/MCU/SWDIO*%
X107648529Y-82800000D02*
X107151471Y-82800000D01*
X107151471Y-82800000D02*
X106818647Y-82467176D01*
X103600000Y-82516176D02*
X103600000Y-83325000D01*
X108000000Y-82448529D02*
X107648529Y-82800000D01*
X104832824Y-82249000D02*
X103867176Y-82249000D01*
X108650000Y-81550000D02*
X108000000Y-82200000D01*
X103867176Y-82249000D02*
X103600000Y-82516176D01*
X105051000Y-82467176D02*
X104832824Y-82249000D01*
X108000000Y-82200000D02*
X108000000Y-82448529D01*
X106818647Y-82467176D02*
X105051000Y-82467176D01*
%TO.N,/Camera_center/CAM_UART_RX*%
X75900000Y-116875000D02*
X78625000Y-116875000D01*
X76038690Y-81959375D02*
X78534375Y-81959375D01*
X78534375Y-81959375D02*
X78550000Y-81975000D01*
X75900000Y-99256250D02*
X78506250Y-99256250D01*
X78506250Y-99256250D02*
X78575000Y-99325000D01*
X98100000Y-71975000D02*
X98100000Y-73400000D01*
%TO.N,/Camera_right/PWN_EN*%
X76600000Y-110006250D02*
X76600000Y-111706250D01*
X78293750Y-113500000D02*
X79800000Y-113500000D01*
X100600000Y-71975000D02*
X100600000Y-73300000D01*
X100600000Y-73300000D02*
X99639466Y-74260534D01*
X76550000Y-111756250D02*
X78293750Y-113500000D01*
%TO.N,/Camera_right/<NO NET>*%
X79100000Y-108106250D02*
X79100000Y-102643750D01*
X76600000Y-102556250D02*
X75900000Y-103256250D01*
X79012500Y-102556250D02*
X76600000Y-102556250D01*
%TD*%
%TA.AperFunction,Conductor*%
%TO.N,GND*%
G36*
X102810753Y-87884929D02*
G01*
X102819524Y-87885307D01*
X103089470Y-87906577D01*
X103106858Y-87909200D01*
X103366739Y-87967517D01*
X103383596Y-87972580D01*
X103632595Y-88067116D01*
X103648557Y-88074512D01*
X103881663Y-88203365D01*
X103896419Y-88212950D01*
X104002096Y-88292799D01*
X104108909Y-88373507D01*
X104122168Y-88385092D01*
X104309786Y-88574137D01*
X104321270Y-88587483D01*
X104480210Y-88801179D01*
X104489688Y-88816016D01*
X104616767Y-89050082D01*
X104624047Y-89066112D01*
X104641686Y-89113652D01*
X104646551Y-89183351D01*
X104612961Y-89244616D01*
X104551580Y-89277996D01*
X104512829Y-89280143D01*
X104462491Y-89275000D01*
X104187500Y-89275000D01*
X104187500Y-90238500D01*
X104167815Y-90305539D01*
X104115011Y-90351294D01*
X104063500Y-90362500D01*
X103811500Y-90362500D01*
X103744461Y-90342815D01*
X103698706Y-90290011D01*
X103687500Y-90238500D01*
X103687500Y-89275000D01*
X103412529Y-89275000D01*
X103412512Y-89275001D01*
X103309802Y-89285494D01*
X103143380Y-89340641D01*
X103143375Y-89340643D01*
X102994154Y-89432684D01*
X102870184Y-89556654D01*
X102778143Y-89705875D01*
X102778141Y-89705880D01*
X102722994Y-89872302D01*
X102722991Y-89872317D01*
X102721625Y-89885691D01*
X102695227Y-89950382D01*
X102638045Y-89990531D01*
X102568234Y-89993392D01*
X102524635Y-89972855D01*
X102469200Y-89931942D01*
X102341733Y-89887339D01*
X102341724Y-89887337D01*
X102311467Y-89884500D01*
X100718539Y-89884500D01*
X100688275Y-89887337D01*
X100688266Y-89887339D01*
X100560800Y-89931942D01*
X100452138Y-90012138D01*
X100371943Y-90120799D01*
X100327339Y-90248266D01*
X100327337Y-90248275D01*
X100324500Y-90278532D01*
X100324500Y-92202034D01*
X100304815Y-92269073D01*
X100288181Y-92289715D01*
X99064716Y-93513181D01*
X99003393Y-93546666D01*
X98977035Y-93549500D01*
X96739795Y-93549500D01*
X96672756Y-93529815D01*
X96627414Y-93477907D01*
X96622219Y-93466767D01*
X96543233Y-93387781D01*
X96463282Y-93350499D01*
X96441996Y-93340573D01*
X96441994Y-93340572D01*
X96395867Y-93334500D01*
X94574138Y-93334500D01*
X94528004Y-93340572D01*
X94426766Y-93387781D01*
X94347781Y-93466766D01*
X94300572Y-93568006D01*
X94294500Y-93614132D01*
X94294500Y-94385861D01*
X94300572Y-94431995D01*
X94309349Y-94450816D01*
X94347781Y-94533233D01*
X94426767Y-94612219D01*
X94528004Y-94659427D01*
X94574135Y-94665500D01*
X95462034Y-94665499D01*
X95529073Y-94685183D01*
X95549715Y-94701818D01*
X96548306Y-95700409D01*
X96581791Y-95761732D01*
X96584625Y-95788090D01*
X96584625Y-96067796D01*
X96570508Y-96120485D01*
X96571844Y-96121038D01*
X96568733Y-96128548D01*
X96534625Y-96255842D01*
X96534625Y-96387625D01*
X96568733Y-96514921D01*
X96601679Y-96571984D01*
X96634625Y-96629048D01*
X96634627Y-96629050D01*
X96693396Y-96687819D01*
X96726881Y-96749142D01*
X96721897Y-96818834D01*
X96680025Y-96874767D01*
X96614561Y-96899184D01*
X96605715Y-96899500D01*
X94729019Y-96899500D01*
X94661980Y-96879815D01*
X94641338Y-96863181D01*
X94061819Y-96283662D01*
X94028334Y-96222339D01*
X94025500Y-96195981D01*
X94025500Y-94520730D01*
X94022646Y-94490300D01*
X94022646Y-94490298D01*
X93977793Y-94362119D01*
X93977792Y-94362117D01*
X93976591Y-94360490D01*
X93897150Y-94252850D01*
X93787882Y-94172207D01*
X93787880Y-94172206D01*
X93659700Y-94127353D01*
X93629270Y-94124500D01*
X93629266Y-94124500D01*
X92345734Y-94124500D01*
X92345730Y-94124500D01*
X92315300Y-94127353D01*
X92315298Y-94127353D01*
X92187119Y-94172206D01*
X92187117Y-94172207D01*
X92077850Y-94252850D01*
X91997207Y-94362117D01*
X91997206Y-94362119D01*
X91952353Y-94490298D01*
X91952353Y-94490300D01*
X91949500Y-94520730D01*
X91949500Y-97617329D01*
X91929815Y-97684368D01*
X91877011Y-97730123D01*
X91807853Y-97740067D01*
X91744297Y-97711042D01*
X91716162Y-97675820D01*
X91695922Y-97637985D01*
X91688704Y-97621811D01*
X91597282Y-97370004D01*
X91592443Y-97352969D01*
X91558857Y-97191697D01*
X91537825Y-97090705D01*
X91535464Y-97073178D01*
X91518485Y-96801351D01*
X91518250Y-96792502D01*
X91519736Y-96629047D01*
X91557486Y-92476460D01*
X91577779Y-92409604D01*
X91630997Y-92364331D01*
X91694084Y-92354231D01*
X91775019Y-92362499D01*
X92049999Y-92362499D01*
X92550000Y-92362499D01*
X92824972Y-92362499D01*
X92824986Y-92362498D01*
X92927697Y-92352005D01*
X93094119Y-92296858D01*
X93094124Y-92296856D01*
X93243345Y-92204815D01*
X93337165Y-92110995D01*
X93995000Y-92110995D01*
X93997748Y-92145917D01*
X93997749Y-92145923D01*
X94041186Y-92295433D01*
X94041188Y-92295436D01*
X94120445Y-92429452D01*
X94120451Y-92429461D01*
X94230538Y-92539548D01*
X94230547Y-92539554D01*
X94364563Y-92618811D01*
X94364566Y-92618813D01*
X94514076Y-92662250D01*
X94514082Y-92662251D01*
X94549004Y-92664999D01*
X94549020Y-92665000D01*
X95235000Y-92665000D01*
X95735000Y-92665000D01*
X96420980Y-92665000D01*
X96420995Y-92664999D01*
X96455917Y-92662251D01*
X96455923Y-92662250D01*
X96605433Y-92618813D01*
X96605436Y-92618811D01*
X96739452Y-92539554D01*
X96739461Y-92539548D01*
X96849548Y-92429461D01*
X96849554Y-92429452D01*
X96928811Y-92295436D01*
X96928813Y-92295433D01*
X96972250Y-92145923D01*
X96972251Y-92145917D01*
X96974999Y-92110995D01*
X96975000Y-92110980D01*
X96975000Y-91950000D01*
X95735000Y-91950000D01*
X95735000Y-92665000D01*
X95235000Y-92665000D01*
X95235000Y-91950000D01*
X93995000Y-91950000D01*
X93995000Y-92110995D01*
X93337165Y-92110995D01*
X93367315Y-92080845D01*
X93459356Y-91931624D01*
X93459358Y-91931619D01*
X93483212Y-91859634D01*
X93514505Y-91765197D01*
X93514506Y-91765190D01*
X93524999Y-91662486D01*
X93525000Y-91662473D01*
X93525000Y-91525000D01*
X92550000Y-91525000D01*
X92550000Y-92362499D01*
X92049999Y-92362499D01*
X92050000Y-92362498D01*
X92050000Y-91399000D01*
X92069685Y-91331961D01*
X92119260Y-91289004D01*
X93995000Y-91289004D01*
X93995000Y-91450000D01*
X95235000Y-91450000D01*
X95735000Y-91450000D01*
X96975000Y-91450000D01*
X96975000Y-91289019D01*
X96974999Y-91289004D01*
X96972251Y-91254082D01*
X96972250Y-91254076D01*
X96928813Y-91104566D01*
X96928811Y-91104563D01*
X96849554Y-90970547D01*
X96849548Y-90970538D01*
X96739461Y-90860451D01*
X96739452Y-90860445D01*
X96605436Y-90781188D01*
X96605433Y-90781186D01*
X96455923Y-90737749D01*
X96455917Y-90737748D01*
X96420995Y-90735000D01*
X95735000Y-90735000D01*
X95735000Y-91450000D01*
X95235000Y-91450000D01*
X95235000Y-90735000D01*
X94549004Y-90735000D01*
X94514082Y-90737748D01*
X94514076Y-90737749D01*
X94364566Y-90781186D01*
X94364563Y-90781188D01*
X94230547Y-90860445D01*
X94230538Y-90860451D01*
X94120451Y-90970538D01*
X94120445Y-90970547D01*
X94041188Y-91104563D01*
X94041186Y-91104566D01*
X93997749Y-91254076D01*
X93997748Y-91254082D01*
X93995000Y-91289004D01*
X92119260Y-91289004D01*
X92122489Y-91286206D01*
X92174000Y-91275000D01*
X92300000Y-91275000D01*
X92300000Y-91149000D01*
X92319685Y-91081961D01*
X92372489Y-91036206D01*
X92424000Y-91025000D01*
X93524999Y-91025000D01*
X93524999Y-90887528D01*
X93524998Y-90887513D01*
X93514505Y-90784802D01*
X93459358Y-90618380D01*
X93459356Y-90618375D01*
X93367315Y-90469154D01*
X93243345Y-90345184D01*
X93094124Y-90253143D01*
X93094119Y-90253141D01*
X92925917Y-90197405D01*
X92868472Y-90157633D01*
X92841649Y-90093117D01*
X92853964Y-90024341D01*
X92901507Y-89973141D01*
X92923966Y-89962658D01*
X92959049Y-89950382D01*
X92987882Y-89940293D01*
X93097150Y-89859650D01*
X93177793Y-89750382D01*
X93217467Y-89637000D01*
X93222646Y-89622201D01*
X93224256Y-89614830D01*
X93226379Y-89615293D01*
X93248198Y-89560518D01*
X93305041Y-89519891D01*
X93345802Y-89513000D01*
X94170501Y-89513000D01*
X94237540Y-89532685D01*
X94283295Y-89585489D01*
X94294501Y-89637000D01*
X94294501Y-89785864D01*
X94296398Y-89800281D01*
X94300572Y-89831995D01*
X94326380Y-89887339D01*
X94347781Y-89933233D01*
X94426767Y-90012219D01*
X94528004Y-90059427D01*
X94574135Y-90065500D01*
X96395864Y-90065499D01*
X96441996Y-90059427D01*
X96543233Y-90012219D01*
X96622219Y-89933233D01*
X96669427Y-89831996D01*
X96675500Y-89785865D01*
X96675499Y-89014136D01*
X96669427Y-88968004D01*
X96622219Y-88866767D01*
X96543233Y-88787781D01*
X96441996Y-88740573D01*
X96441994Y-88740572D01*
X96395867Y-88734500D01*
X96395865Y-88734500D01*
X95507965Y-88734500D01*
X95450208Y-88720227D01*
X95433574Y-88711471D01*
X95424114Y-88702011D01*
X95321387Y-88642701D01*
X95297173Y-88636213D01*
X95283781Y-88632624D01*
X95283780Y-88632624D01*
X95240148Y-88620933D01*
X95206809Y-88612000D01*
X95206808Y-88612000D01*
X93212628Y-88612000D01*
X93145589Y-88592315D01*
X93112858Y-88561634D01*
X93097150Y-88540350D01*
X92987882Y-88459707D01*
X92987880Y-88459706D01*
X92859700Y-88414853D01*
X92829270Y-88412000D01*
X92829266Y-88412000D01*
X92500313Y-88412000D01*
X92433274Y-88392315D01*
X92387519Y-88339511D01*
X92377575Y-88270353D01*
X92406600Y-88206797D01*
X92426813Y-88188130D01*
X92507062Y-88129077D01*
X92521998Y-88119651D01*
X92757688Y-87993409D01*
X92773812Y-87986200D01*
X93025064Y-87894747D01*
X93042037Y-87889907D01*
X93303748Y-87835105D01*
X93321250Y-87832726D01*
X93592517Y-87815408D01*
X93601324Y-87815161D01*
X102810753Y-87884929D01*
G37*
%TD.AperFunction*%
%TA.AperFunction,Conductor*%
G36*
X102955039Y-92170185D02*
G01*
X103000794Y-92222989D01*
X103012000Y-92274500D01*
X103012000Y-92829269D01*
X103014853Y-92859699D01*
X103014853Y-92859701D01*
X103059706Y-92987880D01*
X103059707Y-92987882D01*
X103140350Y-93097150D01*
X103249618Y-93177793D01*
X103292345Y-93192744D01*
X103377799Y-93222646D01*
X103408230Y-93225500D01*
X103408234Y-93225500D01*
X104466770Y-93225500D01*
X104497199Y-93222646D01*
X104497201Y-93222646D01*
X104624370Y-93178147D01*
X104625382Y-93177793D01*
X104625382Y-93177792D01*
X104634152Y-93174724D01*
X104635349Y-93178147D01*
X104686523Y-93167740D01*
X104751650Y-93193043D01*
X104792759Y-93249540D01*
X104800000Y-93291293D01*
X104800000Y-96880456D01*
X104799681Y-96889344D01*
X104785664Y-97084388D01*
X104761225Y-97149844D01*
X104705277Y-97191697D01*
X104661983Y-97199500D01*
X99185022Y-97199500D01*
X99117983Y-97179815D01*
X99097341Y-97163182D01*
X98990043Y-97055885D01*
X98875319Y-96979228D01*
X98875306Y-96979221D01*
X98747834Y-96926421D01*
X98747824Y-96926418D01*
X98612497Y-96899500D01*
X98612495Y-96899500D01*
X97464535Y-96899500D01*
X97397496Y-96879815D01*
X97351741Y-96827011D01*
X97341797Y-96757853D01*
X97370822Y-96694297D01*
X97376854Y-96687819D01*
X97435625Y-96629048D01*
X97501517Y-96514920D01*
X97535625Y-96387626D01*
X97535625Y-96255842D01*
X97501517Y-96128548D01*
X97501513Y-96128541D01*
X97498406Y-96121038D01*
X97499741Y-96120485D01*
X97485625Y-96067796D01*
X97485625Y-95490818D01*
X97485625Y-95490816D01*
X97454924Y-95376239D01*
X97454924Y-95376238D01*
X97454924Y-95376237D01*
X97395617Y-95273514D01*
X97395613Y-95273509D01*
X96784284Y-94662181D01*
X96750799Y-94600858D01*
X96755783Y-94531167D01*
X96797654Y-94475233D01*
X96863119Y-94450816D01*
X96871965Y-94450500D01*
X99274308Y-94450500D01*
X99274309Y-94450500D01*
X99364673Y-94426286D01*
X99388887Y-94419799D01*
X99491614Y-94360489D01*
X100383647Y-93468454D01*
X100444968Y-93434971D01*
X100514659Y-93439955D01*
X100544958Y-93456365D01*
X100560799Y-93468057D01*
X100688271Y-93512662D01*
X100718537Y-93515500D01*
X100940500Y-93515499D01*
X101007539Y-93535183D01*
X101053294Y-93587987D01*
X101064500Y-93639499D01*
X101064500Y-95620081D01*
X101047888Y-95682080D01*
X101033608Y-95706813D01*
X101033608Y-95706814D01*
X100999500Y-95834108D01*
X100999500Y-95965891D01*
X101033608Y-96093187D01*
X101038132Y-96101022D01*
X101099500Y-96207314D01*
X101192686Y-96300500D01*
X101306814Y-96366392D01*
X101434108Y-96400500D01*
X101434110Y-96400500D01*
X101565890Y-96400500D01*
X101565892Y-96400500D01*
X101693186Y-96366392D01*
X101807314Y-96300500D01*
X101900500Y-96207314D01*
X101966392Y-96093186D01*
X102000500Y-95965892D01*
X102000500Y-95834108D01*
X101969724Y-95719252D01*
X101965500Y-95687161D01*
X101965500Y-93639499D01*
X101985185Y-93572460D01*
X102037989Y-93526705D01*
X102089500Y-93515499D01*
X102311460Y-93515499D01*
X102311462Y-93515499D01*
X102341729Y-93512662D01*
X102469201Y-93468057D01*
X102577862Y-93387862D01*
X102658057Y-93279201D01*
X102702662Y-93151729D01*
X102705500Y-93121463D01*
X102705500Y-92274500D01*
X102725185Y-92207461D01*
X102777989Y-92161706D01*
X102829500Y-92150500D01*
X102888000Y-92150500D01*
X102955039Y-92170185D01*
G37*
%TD.AperFunction*%
%TD*%
M02*
