%TF.GenerationSoftware,KiCad,Pcbnew,10.0.0*%
%TF.CreationDate,2026-03-25T13:21:57+11:00*%
%TF.ProjectId,CameraBoard,43616d65-7261-4426-9f61-72642e6b6963,rev?*%
%TF.SameCoordinates,Original*%
%TF.FileFunction,Copper,L2,Inr*%
%TF.FilePolarity,Positive*%
%FSLAX46Y46*%
G04 Gerber Fmt 4.6, Leading zero omitted, Abs format (unit mm)*
G04 Created by KiCad (PCBNEW 10.0.0) date 2026-03-25 13:21:57*
%MOMM*%
%LPD*%
G01*
G04 APERTURE LIST*
G04 Aperture macros list*
%AMRoundRect*
0 Rectangle with rounded corners*
0 $1 Rounding radius*
0 $2 $3 $4 $5 $6 $7 $8 $9 X,Y pos of 4 corners*
0 Add a 4 corners polygon primitive as box body*
4,1,4,$2,$3,$4,$5,$6,$7,$8,$9,$2,$3,0*
0 Add four circle primitives for the rounded corners*
1,1,$1+$1,$2,$3*
1,1,$1+$1,$4,$5*
1,1,$1+$1,$6,$7*
1,1,$1+$1,$8,$9*
0 Add four rect primitives between the rounded corners*
20,1,$1+$1,$2,$3,$4,$5,0*
20,1,$1+$1,$4,$5,$6,$7,0*
20,1,$1+$1,$6,$7,$8,$9,0*
20,1,$1+$1,$8,$9,$2,$3,0*%
G04 Aperture macros list end*
%TA.AperFunction,ComponentPad*%
%ADD10C,0.800000*%
%TD*%
%TA.AperFunction,ComponentPad*%
%ADD11C,6.400000*%
%TD*%
%TA.AperFunction,ComponentPad*%
%ADD12R,1.700000X1.700000*%
%TD*%
%TA.AperFunction,ComponentPad*%
%ADD13C,1.700000*%
%TD*%
%TA.AperFunction,ComponentPad*%
%ADD14R,2.300000X2.300000*%
%TD*%
%TA.AperFunction,ComponentPad*%
%ADD15C,2.300000*%
%TD*%
%TA.AperFunction,HeatsinkPad*%
%ADD16O,2.100000X1.000000*%
%TD*%
%TA.AperFunction,HeatsinkPad*%
%ADD17O,1.600000X1.000000*%
%TD*%
%TA.AperFunction,ComponentPad*%
%ADD18R,1.000000X1.000000*%
%TD*%
%TA.AperFunction,ComponentPad*%
%ADD19C,1.000000*%
%TD*%
%TA.AperFunction,ComponentPad*%
%ADD20RoundRect,0.250000X-0.625000X0.350000X-0.625000X-0.350000X0.625000X-0.350000X0.625000X0.350000X0*%
%TD*%
%TA.AperFunction,ComponentPad*%
%ADD21O,1.750000X1.200000*%
%TD*%
%TA.AperFunction,ViaPad*%
%ADD22C,0.600000*%
%TD*%
G04 APERTURE END LIST*
D10*
%TO.N,N/C*%
%TO.C,REF\u002A\u002A*%
X75450000Y-133150000D03*
X77147056Y-133852944D03*
X73752944Y-133852944D03*
X77850000Y-135550000D03*
D11*
X75450000Y-135550000D03*
D10*
X73050000Y-135550000D03*
X77147056Y-137247056D03*
X73752944Y-137247056D03*
X75450000Y-137950000D03*
%TD*%
%TO.N,N/C*%
%TO.C,REF\u002A\u002A*%
X117450000Y-133150000D03*
X119147056Y-133852944D03*
X115752944Y-133852944D03*
X119850000Y-135550000D03*
D11*
X117450000Y-135550000D03*
D10*
X115050000Y-135550000D03*
X119147056Y-137247056D03*
X115752944Y-137247056D03*
X117450000Y-137950000D03*
%TD*%
D12*
%TO.N,GND*%
%TO.C,J_BUCK_OUT_A1*%
X87200000Y-101000000D03*
D13*
X89740000Y-101000000D03*
%TD*%
D12*
%TO.N,+BATT*%
%TO.C,J_BUCK_IN_B1*%
X100600000Y-124025000D03*
D13*
X103140000Y-124025000D03*
%TD*%
D12*
%TO.N,GND*%
%TO.C,J_BUCK_IN_A1*%
X87200000Y-124025000D03*
D13*
X89740000Y-124025000D03*
%TD*%
D14*
%TO.N,+BATT*%
%TO.C,PowerIn1*%
X109600000Y-124370000D03*
D15*
%TO.N,GND*%
X109600000Y-118870000D03*
%TD*%
D10*
%TO.N,N/C*%
%TO.C,REF\u002A\u002A*%
X117450000Y-41150000D03*
X119147056Y-41852944D03*
X115752944Y-41852944D03*
X119850000Y-43550000D03*
D11*
X117450000Y-43550000D03*
D10*
X115050000Y-43550000D03*
X119147056Y-45247056D03*
X115752944Y-45247056D03*
X117450000Y-45950000D03*
%TD*%
D12*
%TO.N,+5V*%
%TO.C,J_BUCK_OUT_B1*%
X100600000Y-101000000D03*
D13*
X103140000Y-101000000D03*
%TD*%
D16*
%TO.N,unconnected-(J3-SHIELD-PadS1)_3*%
%TO.C,J3*%
X78830000Y-63355000D03*
D17*
%TO.N,unconnected-(J3-SHIELD-PadS1)_1*%
X74650000Y-63355000D03*
D16*
%TO.N,unconnected-(J3-SHIELD-PadS1)_2*%
X78830000Y-71995000D03*
D17*
%TO.N,unconnected-(J3-SHIELD-PadS1)*%
X74650000Y-71995000D03*
%TD*%
D18*
%TO.N,/MCU/SWCLK*%
%TO.C,J1*%
X93200000Y-46470000D03*
D19*
%TO.N,GND*%
X91930000Y-46470000D03*
%TO.N,unconnected-(J1-TDO-Pad3)*%
X93200000Y-45200000D03*
%TO.N,unconnected-(J1-PGM{slash}NC-Pad4)*%
X91930000Y-45200000D03*
%TO.N,/MCU/SWDIO*%
X93200000Y-43930000D03*
%TO.N,+3.3V*%
X91930000Y-43930000D03*
%TO.N,unconnected-(J1-VPUMP-Pad7)*%
X93200000Y-42660000D03*
%TO.N,/MCU/NRST*%
X91930000Y-42660000D03*
%TO.N,unconnected-(J1-TDI-Pad9)*%
X93200000Y-41390000D03*
%TO.N,GND*%
X91930000Y-41390000D03*
%TD*%
D20*
%TO.N,/Camera_center/CAM_UART_RX*%
%TO.C,Cam3*%
X75900000Y-116875000D03*
D21*
%TO.N,GND*%
X75900000Y-118875000D03*
%TO.N,/Camera_center/<NO NET>*%
X75900000Y-120875000D03*
%TD*%
D20*
%TO.N,/Camera_center/CAM_UART_RX*%
%TO.C,Cam1*%
X76038690Y-81959375D03*
D21*
%TO.N,GND*%
X76038690Y-83959375D03*
%TO.N,/Camera_left/<NO NET>*%
X76038690Y-85959375D03*
%TD*%
D14*
%TO.N,/Can_transceiver/CANH*%
%TO.C,CAN_OUT1*%
X101200000Y-53800000D03*
D15*
%TO.N,/Can_transceiver/CANL*%
X101200000Y-59300000D03*
%TD*%
D10*
%TO.N,N/C*%
%TO.C,REF\u002A\u002A*%
X75450000Y-41150000D03*
X77147056Y-41852944D03*
X73752944Y-41852944D03*
X77850000Y-43550000D03*
D11*
X75450000Y-43550000D03*
D10*
X73050000Y-43550000D03*
X77147056Y-45247056D03*
X73752944Y-45247056D03*
X75450000Y-45950000D03*
%TD*%
D20*
%TO.N,/Camera_center/CAM_UART_RX*%
%TO.C,Cam2*%
X75900000Y-99256250D03*
D21*
%TO.N,GND*%
X75900000Y-101256250D03*
%TO.N,/Camera_right/<NO NET>*%
X75900000Y-103256250D03*
%TD*%
D14*
%TO.N,/Can_transceiver/CANH*%
%TO.C,CAN_IN1*%
X109600000Y-53800000D03*
D15*
%TO.N,/Can_transceiver/CANL*%
X109600000Y-59300000D03*
%TD*%
D22*
%TO.N,GND*%
X91324265Y-86724265D03*
X105800002Y-62200000D03*
X99200000Y-64000000D03*
X119725000Y-72075000D03*
X99200000Y-68800000D03*
X115050000Y-102200000D03*
X112200000Y-114700000D03*
X104600000Y-69600000D03*
X99100000Y-70500000D03*
X103300000Y-62200000D03*
X90890628Y-70287500D03*
X110300000Y-75800000D03*
X99200000Y-62200000D03*
X83400000Y-65675000D03*
X110900000Y-81900000D03*
X98000000Y-68800000D03*
X81300000Y-126125000D03*
X104400000Y-62200000D03*
X100500000Y-62200000D03*
X94625000Y-66337500D03*
X92200000Y-93400000D03*
X103900000Y-88800000D03*
X81100000Y-108106250D03*
X102050000Y-86950000D03*
X103500000Y-69600000D03*
X75150000Y-127840380D03*
X74850000Y-110006250D03*
X105800000Y-64300000D03*
X105800002Y-63200000D03*
X105800000Y-69600000D03*
X98900000Y-96100000D03*
X105800000Y-66400000D03*
X105800000Y-65300000D03*
X90537500Y-65325000D03*
X102400000Y-62200000D03*
X117525000Y-68575000D03*
X107225000Y-87050000D03*
X105800000Y-67400000D03*
X100300000Y-69600000D03*
X120000000Y-88325000D03*
X98000000Y-65400000D03*
X89000000Y-48900000D03*
X93500000Y-92900000D03*
X82800000Y-88200000D03*
X108600000Y-69100000D03*
X80600000Y-73600000D03*
X101900000Y-88800000D03*
X91700000Y-73600000D03*
X99200000Y-63000000D03*
X98000000Y-67800000D03*
X83600000Y-63100000D03*
X74888690Y-92509375D03*
X105800000Y-68300000D03*
X98000000Y-64000000D03*
X91210795Y-81404280D03*
X98000000Y-66500000D03*
X101400000Y-62200000D03*
%TO.N,+3.3V*%
X93175000Y-86450000D03*
X80288690Y-94486732D03*
X86750000Y-44900000D03*
X91750000Y-75650000D03*
X106075000Y-92750000D03*
X110300000Y-73600000D03*
X118975000Y-103950000D03*
X92675000Y-62287500D03*
X106700000Y-69700000D03*
X107700000Y-83912500D03*
X101500000Y-95900000D03*
X113769608Y-63880392D03*
X80000000Y-111806250D03*
X114100000Y-109200000D03*
X80440380Y-128265380D03*
X97035125Y-96321734D03*
X119950000Y-86575000D03*
%TO.N,/MCU/RGB_DATA*%
X101900000Y-81200000D03*
X111200000Y-108100000D03*
%TO.N,/Camera_left/PWN_EN*%
X98900000Y-73800000D03*
X80400000Y-96200000D03*
%TO.N,/Camera_center/PWN_EN*%
X99805915Y-73235206D03*
X80900000Y-131600000D03*
%TO.N,/Can_transceiver/CAN_TX_2*%
X110016287Y-69532469D03*
X100700000Y-81000000D03*
%TO.N,/Can_transceiver/CAN_RX_2*%
X99601000Y-81566100D03*
X109953168Y-67077179D03*
%TO.N,/MCU/D+*%
X86100000Y-68000000D03*
X85200000Y-69500000D03*
%TO.N,/MCU/NRST*%
X91200000Y-71600000D03*
X105000000Y-77450000D03*
X109600000Y-91300000D03*
%TO.N,/MCU/SWCLK*%
X107400000Y-82200000D03*
X96200000Y-47300000D03*
%TO.N,/MCU/SWDIO*%
X108650000Y-81550000D03*
%TO.N,/Camera_center/CAM_UART_RX*%
X78575000Y-99325000D03*
X98100000Y-73400000D03*
X78550000Y-81975000D03*
X78625000Y-116875000D03*
%TO.N,/Camera_right/PWN_EN*%
X79800000Y-113500000D03*
X99639466Y-74260534D03*
%TD*%
%TA.AperFunction,Conductor*%
%TO.N,GND*%
G36*
X115625487Y-40120185D02*
G01*
X115671242Y-40172989D01*
X115681186Y-40242147D01*
X115652161Y-40305703D01*
X115616901Y-40333858D01*
X115545279Y-40372140D01*
X115545261Y-40372151D01*
X115242964Y-40574140D01*
X115242950Y-40574150D01*
X114961893Y-40804807D01*
X114704807Y-41061893D01*
X114474150Y-41342950D01*
X114474140Y-41342964D01*
X114272151Y-41645261D01*
X114272140Y-41645279D01*
X114100756Y-41965916D01*
X114100754Y-41965921D01*
X113961614Y-42301834D01*
X113856067Y-42649776D01*
X113856064Y-42649787D01*
X113785137Y-43006369D01*
X113749500Y-43368209D01*
X113749500Y-43731790D01*
X113785137Y-44093630D01*
X113856064Y-44450212D01*
X113856067Y-44450223D01*
X113961614Y-44798165D01*
X114100754Y-45134078D01*
X114100756Y-45134083D01*
X114272140Y-45454720D01*
X114272151Y-45454738D01*
X114474140Y-45757035D01*
X114474150Y-45757049D01*
X114704807Y-46038106D01*
X114961893Y-46295192D01*
X114961898Y-46295196D01*
X114961899Y-46295197D01*
X115242956Y-46525854D01*
X115545268Y-46727853D01*
X115545277Y-46727858D01*
X115545279Y-46727859D01*
X115865916Y-46899243D01*
X115865918Y-46899243D01*
X115865924Y-46899247D01*
X116201836Y-47038386D01*
X116549767Y-47143930D01*
X116549773Y-47143931D01*
X116549776Y-47143932D01*
X116549787Y-47143935D01*
X116893645Y-47212331D01*
X116906369Y-47214862D01*
X117268206Y-47250500D01*
X117268209Y-47250500D01*
X117631791Y-47250500D01*
X117631794Y-47250500D01*
X117993631Y-47214862D01*
X118063045Y-47201054D01*
X118350212Y-47143935D01*
X118350223Y-47143932D01*
X118350223Y-47143931D01*
X118350233Y-47143930D01*
X118698164Y-47038386D01*
X119034076Y-46899247D01*
X119354732Y-46727853D01*
X119657044Y-46525854D01*
X119938101Y-46295197D01*
X120195197Y-46038101D01*
X120425854Y-45757044D01*
X120627853Y-45454732D01*
X120716142Y-45289555D01*
X120765104Y-45239711D01*
X120833242Y-45224250D01*
X120898921Y-45248082D01*
X120941290Y-45303639D01*
X120949500Y-45348008D01*
X120949500Y-86272809D01*
X120929815Y-86339848D01*
X120877011Y-86385603D01*
X120807853Y-86395547D01*
X120744297Y-86366522D01*
X120710939Y-86320261D01*
X120659397Y-86195827D01*
X120659390Y-86195814D01*
X120571789Y-86064711D01*
X120571786Y-86064707D01*
X120460292Y-85953213D01*
X120460288Y-85953210D01*
X120329185Y-85865609D01*
X120329172Y-85865602D01*
X120183501Y-85805264D01*
X120183489Y-85805261D01*
X120028845Y-85774500D01*
X120028842Y-85774500D01*
X119871158Y-85774500D01*
X119871155Y-85774500D01*
X119716510Y-85805261D01*
X119716498Y-85805264D01*
X119570827Y-85865602D01*
X119570814Y-85865609D01*
X119439711Y-85953210D01*
X119439707Y-85953213D01*
X119328213Y-86064707D01*
X119328210Y-86064711D01*
X119240609Y-86195814D01*
X119240602Y-86195827D01*
X119180264Y-86341498D01*
X119180261Y-86341510D01*
X119149500Y-86496153D01*
X119149500Y-86653846D01*
X119180261Y-86808489D01*
X119180264Y-86808501D01*
X119240602Y-86954172D01*
X119240609Y-86954185D01*
X119328210Y-87085288D01*
X119328213Y-87085292D01*
X119439707Y-87196786D01*
X119439711Y-87196789D01*
X119570814Y-87284390D01*
X119570827Y-87284397D01*
X119716498Y-87344735D01*
X119716503Y-87344737D01*
X119871153Y-87375499D01*
X119871156Y-87375500D01*
X119871158Y-87375500D01*
X120028844Y-87375500D01*
X120028845Y-87375499D01*
X120183497Y-87344737D01*
X120329179Y-87284394D01*
X120460289Y-87196789D01*
X120571789Y-87085289D01*
X120659394Y-86954179D01*
X120681584Y-86900607D01*
X120710939Y-86829738D01*
X120754779Y-86775334D01*
X120821074Y-86753269D01*
X120888773Y-86770548D01*
X120936384Y-86821685D01*
X120949500Y-86877190D01*
X120949500Y-133751991D01*
X120929815Y-133819030D01*
X120877011Y-133864785D01*
X120807853Y-133874729D01*
X120744297Y-133845704D01*
X120716142Y-133810444D01*
X120627859Y-133645279D01*
X120627858Y-133645277D01*
X120627853Y-133645268D01*
X120425854Y-133342956D01*
X120195197Y-133061899D01*
X120195196Y-133061898D01*
X120195192Y-133061893D01*
X119938106Y-132804807D01*
X119657049Y-132574150D01*
X119657048Y-132574149D01*
X119657044Y-132574146D01*
X119354732Y-132372147D01*
X119354727Y-132372144D01*
X119354720Y-132372140D01*
X119034083Y-132200756D01*
X119034078Y-132200754D01*
X118698165Y-132061614D01*
X118350223Y-131956067D01*
X118350212Y-131956064D01*
X117993630Y-131885137D01*
X117721111Y-131858296D01*
X117631794Y-131849500D01*
X117268206Y-131849500D01*
X117185679Y-131857628D01*
X116906369Y-131885137D01*
X116549787Y-131956064D01*
X116549776Y-131956067D01*
X116201834Y-132061614D01*
X115865921Y-132200754D01*
X115865916Y-132200756D01*
X115545279Y-132372140D01*
X115545261Y-132372151D01*
X115242964Y-132574140D01*
X115242950Y-132574150D01*
X114961893Y-132804807D01*
X114704807Y-133061893D01*
X114474150Y-133342950D01*
X114474140Y-133342964D01*
X114272151Y-133645261D01*
X114272140Y-133645279D01*
X114100756Y-133965916D01*
X114100754Y-133965921D01*
X113961614Y-134301834D01*
X113856067Y-134649776D01*
X113856064Y-134649787D01*
X113785137Y-135006369D01*
X113749500Y-135368209D01*
X113749500Y-135731790D01*
X113785137Y-136093630D01*
X113856064Y-136450212D01*
X113856067Y-136450223D01*
X113961614Y-136798165D01*
X114100754Y-137134078D01*
X114100756Y-137134083D01*
X114272140Y-137454720D01*
X114272151Y-137454738D01*
X114474140Y-137757035D01*
X114474150Y-137757049D01*
X114704807Y-138038106D01*
X114961893Y-138295192D01*
X114961898Y-138295196D01*
X114961899Y-138295197D01*
X115242956Y-138525854D01*
X115545268Y-138727853D01*
X115545277Y-138727858D01*
X115545279Y-138727859D01*
X115803988Y-138866142D01*
X115853833Y-138915104D01*
X115869293Y-138983242D01*
X115845461Y-139048922D01*
X115789904Y-139091290D01*
X115745535Y-139099500D01*
X77154465Y-139099500D01*
X77087426Y-139079815D01*
X77041671Y-139027011D01*
X77031727Y-138957853D01*
X77060752Y-138894297D01*
X77096012Y-138866142D01*
X77229656Y-138794706D01*
X77354732Y-138727853D01*
X77657044Y-138525854D01*
X77938101Y-138295197D01*
X78195197Y-138038101D01*
X78425854Y-137757044D01*
X78627853Y-137454732D01*
X78799247Y-137134076D01*
X78938386Y-136798164D01*
X79043930Y-136450233D01*
X79043932Y-136450223D01*
X79043935Y-136450212D01*
X79114862Y-136093630D01*
X79150500Y-135731790D01*
X79150500Y-135368209D01*
X79114862Y-135006369D01*
X79043935Y-134649787D01*
X79043932Y-134649776D01*
X79043931Y-134649773D01*
X79043930Y-134649767D01*
X78938386Y-134301836D01*
X78799247Y-133965924D01*
X78750502Y-133874729D01*
X78627859Y-133645279D01*
X78627858Y-133645277D01*
X78627853Y-133645268D01*
X78425854Y-133342956D01*
X78195197Y-133061899D01*
X78195196Y-133061898D01*
X78195192Y-133061893D01*
X77938106Y-132804807D01*
X77657049Y-132574150D01*
X77657048Y-132574149D01*
X77657044Y-132574146D01*
X77354732Y-132372147D01*
X77354727Y-132372144D01*
X77354720Y-132372140D01*
X77034083Y-132200756D01*
X77034078Y-132200754D01*
X76698165Y-132061614D01*
X76350223Y-131956067D01*
X76350212Y-131956064D01*
X75993630Y-131885137D01*
X75721111Y-131858296D01*
X75631794Y-131849500D01*
X75268206Y-131849500D01*
X75185679Y-131857628D01*
X74906369Y-131885137D01*
X74549787Y-131956064D01*
X74549776Y-131956067D01*
X74201834Y-132061614D01*
X73865921Y-132200754D01*
X73865916Y-132200756D01*
X73545279Y-132372140D01*
X73545261Y-132372151D01*
X73242964Y-132574140D01*
X73242950Y-132574150D01*
X72961893Y-132804807D01*
X72704807Y-133061893D01*
X72474150Y-133342950D01*
X72474140Y-133342964D01*
X72272151Y-133645261D01*
X72272140Y-133645279D01*
X72183858Y-133810444D01*
X72134896Y-133860289D01*
X72066758Y-133875749D01*
X72001078Y-133851917D01*
X71958710Y-133796360D01*
X71950500Y-133751991D01*
X71950500Y-131521153D01*
X80099500Y-131521153D01*
X80099500Y-131678846D01*
X80130261Y-131833489D01*
X80130264Y-131833501D01*
X80190602Y-131979172D01*
X80190609Y-131979185D01*
X80278210Y-132110288D01*
X80278213Y-132110292D01*
X80389707Y-132221786D01*
X80389711Y-132221789D01*
X80520814Y-132309390D01*
X80520827Y-132309397D01*
X80666498Y-132369735D01*
X80666503Y-132369737D01*
X80821153Y-132400499D01*
X80821156Y-132400500D01*
X80821158Y-132400500D01*
X80978844Y-132400500D01*
X80978845Y-132400499D01*
X81133497Y-132369737D01*
X81279179Y-132309394D01*
X81410289Y-132221789D01*
X81521789Y-132110289D01*
X81609394Y-131979179D01*
X81618969Y-131956064D01*
X81669735Y-131833501D01*
X81669737Y-131833497D01*
X81700500Y-131678842D01*
X81700500Y-131555258D01*
X107849500Y-131555258D01*
X107849500Y-131784741D01*
X107872056Y-131956064D01*
X107879452Y-132012238D01*
X107905725Y-132110292D01*
X107938842Y-132233887D01*
X108026650Y-132445876D01*
X108026657Y-132445890D01*
X108141392Y-132644617D01*
X108281081Y-132826661D01*
X108281089Y-132826670D01*
X108443330Y-132988911D01*
X108443338Y-132988918D01*
X108625382Y-133128607D01*
X108625385Y-133128608D01*
X108625388Y-133128611D01*
X108824112Y-133243344D01*
X108824117Y-133243346D01*
X108824123Y-133243349D01*
X108915480Y-133281190D01*
X109036113Y-133331158D01*
X109257762Y-133390548D01*
X109485266Y-133420500D01*
X109485273Y-133420500D01*
X109714727Y-133420500D01*
X109714734Y-133420500D01*
X109942238Y-133390548D01*
X110163887Y-133331158D01*
X110375888Y-133243344D01*
X110574612Y-133128611D01*
X110756661Y-132988919D01*
X110756665Y-132988914D01*
X110756670Y-132988911D01*
X110918911Y-132826670D01*
X110918914Y-132826665D01*
X110918919Y-132826661D01*
X111058611Y-132644612D01*
X111173344Y-132445888D01*
X111261158Y-132233887D01*
X111320548Y-132012238D01*
X111350500Y-131784734D01*
X111350500Y-131555266D01*
X111320548Y-131327762D01*
X111261158Y-131106113D01*
X111173344Y-130894112D01*
X111058611Y-130695388D01*
X111058608Y-130695385D01*
X111058607Y-130695382D01*
X110918918Y-130513338D01*
X110918911Y-130513330D01*
X110756670Y-130351089D01*
X110756661Y-130351081D01*
X110574617Y-130211392D01*
X110375890Y-130096657D01*
X110375876Y-130096650D01*
X110163887Y-130008842D01*
X109942238Y-129949452D01*
X109904215Y-129944446D01*
X109714741Y-129919500D01*
X109714734Y-129919500D01*
X109485266Y-129919500D01*
X109485258Y-129919500D01*
X109268715Y-129948009D01*
X109257762Y-129949452D01*
X109164076Y-129974554D01*
X109036112Y-130008842D01*
X108824123Y-130096650D01*
X108824109Y-130096657D01*
X108625382Y-130211392D01*
X108443338Y-130351081D01*
X108281081Y-130513338D01*
X108141392Y-130695382D01*
X108026657Y-130894109D01*
X108026650Y-130894123D01*
X107938842Y-131106112D01*
X107879453Y-131327759D01*
X107879451Y-131327770D01*
X107849500Y-131555258D01*
X81700500Y-131555258D01*
X81700500Y-131521158D01*
X81700500Y-131521155D01*
X81700499Y-131521153D01*
X81669738Y-131366510D01*
X81669737Y-131366503D01*
X81669735Y-131366498D01*
X81609397Y-131220827D01*
X81609390Y-131220814D01*
X81521789Y-131089711D01*
X81521786Y-131089707D01*
X81410292Y-130978213D01*
X81410288Y-130978210D01*
X81279185Y-130890609D01*
X81279172Y-130890602D01*
X81133501Y-130830264D01*
X81133489Y-130830261D01*
X80978845Y-130799500D01*
X80978842Y-130799500D01*
X80821158Y-130799500D01*
X80821155Y-130799500D01*
X80666510Y-130830261D01*
X80666498Y-130830264D01*
X80520827Y-130890602D01*
X80520814Y-130890609D01*
X80389711Y-130978210D01*
X80389707Y-130978213D01*
X80278213Y-131089707D01*
X80278210Y-131089711D01*
X80190609Y-131220814D01*
X80190602Y-131220827D01*
X80130264Y-131366498D01*
X80130261Y-131366510D01*
X80099500Y-131521153D01*
X71950500Y-131521153D01*
X71950500Y-128186533D01*
X79639880Y-128186533D01*
X79639880Y-128344226D01*
X79670641Y-128498869D01*
X79670644Y-128498881D01*
X79730982Y-128644552D01*
X79730989Y-128644565D01*
X79818590Y-128775668D01*
X79818593Y-128775672D01*
X79930087Y-128887166D01*
X79930091Y-128887169D01*
X80061194Y-128974770D01*
X80061207Y-128974777D01*
X80206878Y-129035115D01*
X80206883Y-129035117D01*
X80361533Y-129065879D01*
X80361536Y-129065880D01*
X80361538Y-129065880D01*
X80519224Y-129065880D01*
X80519225Y-129065879D01*
X80673877Y-129035117D01*
X80819559Y-128974774D01*
X80950669Y-128887169D01*
X81062169Y-128775669D01*
X81149774Y-128644559D01*
X81210117Y-128498877D01*
X81240880Y-128344222D01*
X81240880Y-128186538D01*
X81240880Y-128186535D01*
X81240879Y-128186533D01*
X81210118Y-128031890D01*
X81210117Y-128031883D01*
X81210115Y-128031878D01*
X81149777Y-127886207D01*
X81149770Y-127886194D01*
X81062169Y-127755091D01*
X81062166Y-127755087D01*
X80950672Y-127643593D01*
X80950668Y-127643590D01*
X80819565Y-127555989D01*
X80819552Y-127555982D01*
X80673881Y-127495644D01*
X80673869Y-127495641D01*
X80519225Y-127464880D01*
X80519222Y-127464880D01*
X80361538Y-127464880D01*
X80361535Y-127464880D01*
X80206890Y-127495641D01*
X80206878Y-127495644D01*
X80061207Y-127555982D01*
X80061194Y-127555989D01*
X79930091Y-127643590D01*
X79930087Y-127643593D01*
X79818593Y-127755087D01*
X79818590Y-127755091D01*
X79730989Y-127886194D01*
X79730982Y-127886207D01*
X79670644Y-128031878D01*
X79670641Y-128031890D01*
X79639880Y-128186533D01*
X71950500Y-128186533D01*
X71950500Y-123127155D01*
X85850000Y-123127155D01*
X85850000Y-123775000D01*
X86766988Y-123775000D01*
X86734075Y-123832007D01*
X86700000Y-123959174D01*
X86700000Y-124090826D01*
X86734075Y-124217993D01*
X86766988Y-124275000D01*
X85850000Y-124275000D01*
X85850000Y-124922844D01*
X85856401Y-124982372D01*
X85856403Y-124982379D01*
X85906645Y-125117086D01*
X85906649Y-125117093D01*
X85992809Y-125232187D01*
X85992812Y-125232190D01*
X86107906Y-125318350D01*
X86107913Y-125318354D01*
X86242620Y-125368596D01*
X86242627Y-125368598D01*
X86302155Y-125374999D01*
X86302172Y-125375000D01*
X86950000Y-125375000D01*
X86950000Y-124458012D01*
X87007007Y-124490925D01*
X87134174Y-124525000D01*
X87265826Y-124525000D01*
X87392993Y-124490925D01*
X87450000Y-124458012D01*
X87450000Y-125375000D01*
X88097828Y-125375000D01*
X88097844Y-125374999D01*
X88157372Y-125368598D01*
X88157379Y-125368596D01*
X88292086Y-125318354D01*
X88292093Y-125318350D01*
X88407187Y-125232190D01*
X88407190Y-125232187D01*
X88493350Y-125117093D01*
X88493354Y-125117086D01*
X88515529Y-125057632D01*
X88554319Y-124884390D01*
X88554682Y-124883734D01*
X88554642Y-124882984D01*
X88587642Y-124823802D01*
X89257037Y-124154408D01*
X89274075Y-124217993D01*
X89339901Y-124332007D01*
X89432993Y-124425099D01*
X89547007Y-124490925D01*
X89610590Y-124507962D01*
X88978282Y-125140269D01*
X88978282Y-125140270D01*
X89032449Y-125179624D01*
X89221782Y-125276095D01*
X89423870Y-125341757D01*
X89633754Y-125375000D01*
X89846246Y-125375000D01*
X90056127Y-125341757D01*
X90056130Y-125341757D01*
X90258217Y-125276095D01*
X90447554Y-125179622D01*
X90501716Y-125140270D01*
X90501717Y-125140270D01*
X89869408Y-124507962D01*
X89932993Y-124490925D01*
X90047007Y-124425099D01*
X90140099Y-124332007D01*
X90205925Y-124217993D01*
X90222962Y-124154408D01*
X90855270Y-124786717D01*
X90855270Y-124786716D01*
X90894622Y-124732554D01*
X90991095Y-124543217D01*
X91056757Y-124341130D01*
X91056757Y-124341127D01*
X91090000Y-124131246D01*
X91090000Y-123918753D01*
X91056757Y-123708872D01*
X91056757Y-123708869D01*
X90991095Y-123506782D01*
X90894624Y-123317449D01*
X90855270Y-123263282D01*
X90855269Y-123263282D01*
X90222962Y-123895590D01*
X90205925Y-123832007D01*
X90140099Y-123717993D01*
X90047007Y-123624901D01*
X89932993Y-123559075D01*
X89869409Y-123542037D01*
X90284310Y-123127135D01*
X99249500Y-123127135D01*
X99249500Y-124922870D01*
X99249501Y-124922876D01*
X99255908Y-124982483D01*
X99306202Y-125117328D01*
X99306206Y-125117335D01*
X99392452Y-125232544D01*
X99392455Y-125232547D01*
X99507664Y-125318793D01*
X99507671Y-125318797D01*
X99642517Y-125369091D01*
X99642516Y-125369091D01*
X99649444Y-125369835D01*
X99702127Y-125375500D01*
X101497872Y-125375499D01*
X101557483Y-125369091D01*
X101692331Y-125318796D01*
X101807546Y-125232546D01*
X101893796Y-125117331D01*
X101942810Y-124985916D01*
X101984681Y-124929984D01*
X102050145Y-124905566D01*
X102118418Y-124920417D01*
X102146673Y-124941569D01*
X102260213Y-125055109D01*
X102432179Y-125180048D01*
X102432181Y-125180049D01*
X102432184Y-125180051D01*
X102621588Y-125276557D01*
X102823757Y-125342246D01*
X103033713Y-125375500D01*
X103033714Y-125375500D01*
X103246286Y-125375500D01*
X103246287Y-125375500D01*
X103456243Y-125342246D01*
X103658412Y-125276557D01*
X103847816Y-125180051D01*
X103934138Y-125117335D01*
X104019786Y-125055109D01*
X104019788Y-125055106D01*
X104019792Y-125055104D01*
X104170104Y-124904792D01*
X104170106Y-124904788D01*
X104170109Y-124904786D01*
X104295048Y-124732820D01*
X104295047Y-124732820D01*
X104295051Y-124732816D01*
X104391557Y-124543412D01*
X104457246Y-124341243D01*
X104490500Y-124131287D01*
X104490500Y-123918713D01*
X104457246Y-123708757D01*
X104391557Y-123506588D01*
X104295051Y-123317184D01*
X104189667Y-123172135D01*
X107949500Y-123172135D01*
X107949500Y-125567870D01*
X107949501Y-125567876D01*
X107955908Y-125627483D01*
X108006202Y-125762328D01*
X108006206Y-125762335D01*
X108092452Y-125877544D01*
X108092455Y-125877547D01*
X108207664Y-125963793D01*
X108207671Y-125963797D01*
X108342517Y-126014091D01*
X108342516Y-126014091D01*
X108349444Y-126014835D01*
X108402127Y-126020500D01*
X110797872Y-126020499D01*
X110857483Y-126014091D01*
X110992331Y-125963796D01*
X111107546Y-125877546D01*
X111193796Y-125762331D01*
X111244091Y-125627483D01*
X111250500Y-125567873D01*
X111250499Y-123172128D01*
X111244091Y-123112517D01*
X111200221Y-122994896D01*
X111193797Y-122977671D01*
X111193793Y-122977664D01*
X111107547Y-122862455D01*
X111107544Y-122862452D01*
X110992335Y-122776206D01*
X110992328Y-122776202D01*
X110857482Y-122725908D01*
X110857483Y-122725908D01*
X110797883Y-122719501D01*
X110797881Y-122719500D01*
X110797873Y-122719500D01*
X110797864Y-122719500D01*
X108402129Y-122719500D01*
X108402123Y-122719501D01*
X108342516Y-122725908D01*
X108207671Y-122776202D01*
X108207664Y-122776206D01*
X108092455Y-122862452D01*
X108092452Y-122862455D01*
X108006206Y-122977664D01*
X108006202Y-122977671D01*
X107955908Y-123112517D01*
X107952748Y-123141915D01*
X107949501Y-123172123D01*
X107949500Y-123172135D01*
X104189667Y-123172135D01*
X104170104Y-123145208D01*
X104019792Y-122994896D01*
X104019786Y-122994890D01*
X103847820Y-122869951D01*
X103658414Y-122773444D01*
X103658413Y-122773443D01*
X103658412Y-122773443D01*
X103456243Y-122707754D01*
X103456241Y-122707753D01*
X103456240Y-122707753D01*
X103294957Y-122682208D01*
X103246287Y-122674500D01*
X103033713Y-122674500D01*
X102985042Y-122682208D01*
X102823760Y-122707753D01*
X102621585Y-122773444D01*
X102432179Y-122869951D01*
X102260215Y-122994889D01*
X102146673Y-123108431D01*
X102085350Y-123141915D01*
X102015658Y-123136931D01*
X101959725Y-123095059D01*
X101942810Y-123064082D01*
X101893797Y-122932671D01*
X101893793Y-122932664D01*
X101807547Y-122817455D01*
X101807544Y-122817452D01*
X101692335Y-122731206D01*
X101692328Y-122731202D01*
X101557482Y-122680908D01*
X101557483Y-122680908D01*
X101497883Y-122674501D01*
X101497881Y-122674500D01*
X101497873Y-122674500D01*
X101497864Y-122674500D01*
X99702129Y-122674500D01*
X99702123Y-122674501D01*
X99642516Y-122680908D01*
X99507671Y-122731202D01*
X99507664Y-122731206D01*
X99392455Y-122817452D01*
X99392452Y-122817455D01*
X99306206Y-122932664D01*
X99306202Y-122932671D01*
X99255908Y-123067517D01*
X99249501Y-123127116D01*
X99249500Y-123127135D01*
X90284310Y-123127135D01*
X90375320Y-123036125D01*
X90501716Y-122909728D01*
X90447550Y-122870375D01*
X90258217Y-122773904D01*
X90056129Y-122708242D01*
X89846246Y-122675000D01*
X89633754Y-122675000D01*
X89423872Y-122708242D01*
X89423869Y-122708242D01*
X89221782Y-122773904D01*
X89032439Y-122870380D01*
X88978282Y-122909727D01*
X88978282Y-122909728D01*
X89610591Y-123542037D01*
X89547007Y-123559075D01*
X89432993Y-123624901D01*
X89339901Y-123717993D01*
X89274075Y-123832007D01*
X89257037Y-123895591D01*
X88587642Y-123226196D01*
X88577133Y-123207090D01*
X88567566Y-123197714D01*
X88561488Y-123178644D01*
X88554319Y-123165609D01*
X88515527Y-122992364D01*
X88493354Y-122932913D01*
X88493350Y-122932906D01*
X88407190Y-122817812D01*
X88407187Y-122817809D01*
X88292093Y-122731649D01*
X88292086Y-122731645D01*
X88157379Y-122681403D01*
X88157372Y-122681401D01*
X88097844Y-122675000D01*
X87450000Y-122675000D01*
X87450000Y-123591988D01*
X87392993Y-123559075D01*
X87265826Y-123525000D01*
X87134174Y-123525000D01*
X87007007Y-123559075D01*
X86950000Y-123591988D01*
X86950000Y-122675000D01*
X86302155Y-122675000D01*
X86242627Y-122681401D01*
X86242620Y-122681403D01*
X86107913Y-122731645D01*
X86107906Y-122731649D01*
X85992812Y-122817809D01*
X85992809Y-122817812D01*
X85906649Y-122932906D01*
X85906645Y-122932913D01*
X85856403Y-123067620D01*
X85856401Y-123067627D01*
X85850000Y-123127155D01*
X71950500Y-123127155D01*
X71950500Y-116474983D01*
X74524500Y-116474983D01*
X74524500Y-117275001D01*
X74524501Y-117275019D01*
X74535000Y-117377796D01*
X74535001Y-117377799D01*
X74561840Y-117458792D01*
X74590186Y-117544334D01*
X74682288Y-117693656D01*
X74806344Y-117817712D01*
X74870981Y-117857580D01*
X74917705Y-117909526D01*
X74928928Y-117978489D01*
X74901085Y-118042571D01*
X74893566Y-118050799D01*
X74785964Y-118158401D01*
X74684195Y-118298475D01*
X74605591Y-118452744D01*
X74552085Y-118617415D01*
X74550884Y-118624999D01*
X74550885Y-118625000D01*
X75619670Y-118625000D01*
X75599925Y-118644745D01*
X75550556Y-118730255D01*
X75525000Y-118825630D01*
X75525000Y-118924370D01*
X75550556Y-119019745D01*
X75599925Y-119105255D01*
X75619670Y-119125000D01*
X74550885Y-119125000D01*
X74552085Y-119132584D01*
X74605591Y-119297255D01*
X74684195Y-119451524D01*
X74785967Y-119591602D01*
X74908401Y-119714036D01*
X74991447Y-119774371D01*
X75034114Y-119829701D01*
X75040093Y-119899314D01*
X75007488Y-119961109D01*
X74991450Y-119975007D01*
X74908072Y-120035585D01*
X74785588Y-120158069D01*
X74785588Y-120158070D01*
X74785586Y-120158072D01*
X74755090Y-120200046D01*
X74683768Y-120298211D01*
X74605128Y-120452552D01*
X74551597Y-120617302D01*
X74524500Y-120788389D01*
X74524500Y-120961611D01*
X74551598Y-121132701D01*
X74605127Y-121297445D01*
X74683768Y-121451788D01*
X74785586Y-121591928D01*
X74908072Y-121714414D01*
X75048212Y-121816232D01*
X75202555Y-121894873D01*
X75367299Y-121948402D01*
X75538389Y-121975500D01*
X75538390Y-121975500D01*
X76261610Y-121975500D01*
X76261611Y-121975500D01*
X76432701Y-121948402D01*
X76597445Y-121894873D01*
X76751788Y-121816232D01*
X76891928Y-121714414D01*
X77014414Y-121591928D01*
X77116232Y-121451788D01*
X77194873Y-121297445D01*
X77248402Y-121132701D01*
X77275500Y-120961611D01*
X77275500Y-120788389D01*
X77248402Y-120617299D01*
X77194873Y-120452555D01*
X77116232Y-120298212D01*
X77014414Y-120158072D01*
X76891928Y-120035586D01*
X76808550Y-119975008D01*
X76765885Y-119919677D01*
X76759906Y-119850064D01*
X76792512Y-119788269D01*
X76808552Y-119774371D01*
X76891598Y-119714036D01*
X77014032Y-119591602D01*
X77115804Y-119451524D01*
X77194408Y-119297255D01*
X77247914Y-119132584D01*
X77249115Y-119125000D01*
X76180330Y-119125000D01*
X76200075Y-119105255D01*
X76249444Y-119019745D01*
X76275000Y-118924370D01*
X76275000Y-118825630D01*
X76252093Y-118740142D01*
X107950000Y-118740142D01*
X107950000Y-118999857D01*
X107990629Y-119256377D01*
X108070883Y-119503377D01*
X108188796Y-119734791D01*
X108269951Y-119846492D01*
X108269952Y-119846493D01*
X108809521Y-119306923D01*
X108900924Y-119443717D01*
X109026283Y-119569076D01*
X109163075Y-119660477D01*
X108623505Y-120200046D01*
X108623506Y-120200048D01*
X108735208Y-120281203D01*
X108966622Y-120399116D01*
X109213622Y-120479370D01*
X109470143Y-120520000D01*
X109729857Y-120520000D01*
X109986377Y-120479370D01*
X110233377Y-120399116D01*
X110464788Y-120281205D01*
X110576492Y-120200046D01*
X110576493Y-120200046D01*
X110036924Y-119660477D01*
X110173717Y-119569076D01*
X110299076Y-119443717D01*
X110390477Y-119306924D01*
X110930046Y-119846493D01*
X110930046Y-119846492D01*
X111011205Y-119734788D01*
X111129116Y-119503377D01*
X111209370Y-119256377D01*
X111250000Y-118999857D01*
X111250000Y-118740142D01*
X111209370Y-118483622D01*
X111129116Y-118236622D01*
X111011203Y-118005208D01*
X110930048Y-117893506D01*
X110930046Y-117893505D01*
X110390477Y-118433074D01*
X110299076Y-118296283D01*
X110173717Y-118170924D01*
X110036924Y-118079522D01*
X110576493Y-117539952D01*
X110576492Y-117539951D01*
X110464791Y-117458796D01*
X110233377Y-117340883D01*
X109986377Y-117260629D01*
X109729857Y-117220000D01*
X109470143Y-117220000D01*
X109213622Y-117260629D01*
X108966622Y-117340883D01*
X108735215Y-117458792D01*
X108623506Y-117539952D01*
X109163076Y-118079522D01*
X109026283Y-118170924D01*
X108900924Y-118296283D01*
X108809522Y-118433076D01*
X108269952Y-117893506D01*
X108188792Y-118005215D01*
X108070883Y-118236622D01*
X107990629Y-118483622D01*
X107950000Y-118740142D01*
X76252093Y-118740142D01*
X76249444Y-118730255D01*
X76200075Y-118644745D01*
X76180330Y-118625000D01*
X77249115Y-118625000D01*
X77249115Y-118624999D01*
X77247914Y-118617415D01*
X77194408Y-118452744D01*
X77115804Y-118298475D01*
X77014032Y-118158397D01*
X76906434Y-118050799D01*
X76872949Y-117989476D01*
X76877933Y-117919784D01*
X76919805Y-117863851D01*
X76928995Y-117857594D01*
X76993656Y-117817712D01*
X77117712Y-117693656D01*
X77209814Y-117544334D01*
X77264999Y-117377797D01*
X77275500Y-117275009D01*
X77275499Y-116796153D01*
X77824500Y-116796153D01*
X77824500Y-116953846D01*
X77855261Y-117108489D01*
X77855264Y-117108501D01*
X77915602Y-117254172D01*
X77915609Y-117254185D01*
X78003210Y-117385288D01*
X78003213Y-117385292D01*
X78114707Y-117496786D01*
X78114711Y-117496789D01*
X78245814Y-117584390D01*
X78245827Y-117584397D01*
X78391498Y-117644735D01*
X78391503Y-117644737D01*
X78546153Y-117675499D01*
X78546156Y-117675500D01*
X78546158Y-117675500D01*
X78703844Y-117675500D01*
X78703845Y-117675499D01*
X78858497Y-117644737D01*
X79004179Y-117584394D01*
X79135289Y-117496789D01*
X79246789Y-117385289D01*
X79334394Y-117254179D01*
X79394737Y-117108497D01*
X79425500Y-116953842D01*
X79425500Y-116796158D01*
X79425500Y-116796155D01*
X79425499Y-116796153D01*
X79394738Y-116641510D01*
X79394737Y-116641503D01*
X79394735Y-116641498D01*
X79334397Y-116495827D01*
X79334390Y-116495814D01*
X79246789Y-116364711D01*
X79246786Y-116364707D01*
X79135292Y-116253213D01*
X79135288Y-116253210D01*
X79004185Y-116165609D01*
X79004172Y-116165602D01*
X78858501Y-116105264D01*
X78858489Y-116105261D01*
X78703845Y-116074500D01*
X78703842Y-116074500D01*
X78546158Y-116074500D01*
X78546155Y-116074500D01*
X78391510Y-116105261D01*
X78391498Y-116105264D01*
X78245827Y-116165602D01*
X78245814Y-116165609D01*
X78114711Y-116253210D01*
X78114707Y-116253213D01*
X78003213Y-116364707D01*
X78003210Y-116364711D01*
X77915609Y-116495814D01*
X77915602Y-116495827D01*
X77855264Y-116641498D01*
X77855261Y-116641510D01*
X77824500Y-116796153D01*
X77275499Y-116796153D01*
X77275499Y-116474992D01*
X77264999Y-116372203D01*
X77209814Y-116205666D01*
X77117712Y-116056344D01*
X76993656Y-115932288D01*
X76844334Y-115840186D01*
X76677797Y-115785001D01*
X76677795Y-115785000D01*
X76575010Y-115774500D01*
X75224998Y-115774500D01*
X75224981Y-115774501D01*
X75122203Y-115785000D01*
X75122200Y-115785001D01*
X74955668Y-115840185D01*
X74955663Y-115840187D01*
X74806342Y-115932289D01*
X74682289Y-116056342D01*
X74590187Y-116205663D01*
X74590186Y-116205666D01*
X74535001Y-116372203D01*
X74535001Y-116372204D01*
X74535000Y-116372204D01*
X74524500Y-116474983D01*
X71950500Y-116474983D01*
X71950500Y-113421153D01*
X78999500Y-113421153D01*
X78999500Y-113578846D01*
X79030261Y-113733489D01*
X79030264Y-113733501D01*
X79090602Y-113879172D01*
X79090609Y-113879185D01*
X79178210Y-114010288D01*
X79178213Y-114010292D01*
X79289707Y-114121786D01*
X79289711Y-114121789D01*
X79420814Y-114209390D01*
X79420827Y-114209397D01*
X79566498Y-114269735D01*
X79566503Y-114269737D01*
X79721153Y-114300499D01*
X79721156Y-114300500D01*
X79721158Y-114300500D01*
X79878844Y-114300500D01*
X79878845Y-114300499D01*
X80033497Y-114269737D01*
X80179179Y-114209394D01*
X80310289Y-114121789D01*
X80421789Y-114010289D01*
X80509394Y-113879179D01*
X80569737Y-113733497D01*
X80600500Y-113578842D01*
X80600500Y-113421158D01*
X80600500Y-113421155D01*
X80600499Y-113421153D01*
X80569738Y-113266510D01*
X80569737Y-113266503D01*
X80569735Y-113266498D01*
X80509397Y-113120827D01*
X80509390Y-113120814D01*
X80421789Y-112989711D01*
X80421786Y-112989707D01*
X80310292Y-112878213D01*
X80310288Y-112878210D01*
X80193034Y-112799863D01*
X80148229Y-112746251D01*
X80139522Y-112676926D01*
X80169677Y-112613898D01*
X80227747Y-112578026D01*
X80227665Y-112577756D01*
X80228688Y-112577445D01*
X80229120Y-112577179D01*
X80231135Y-112576703D01*
X80233489Y-112575988D01*
X80233497Y-112575987D01*
X80379179Y-112515644D01*
X80510289Y-112428039D01*
X80621789Y-112316539D01*
X80709394Y-112185429D01*
X80769737Y-112039747D01*
X80800500Y-111885092D01*
X80800500Y-111727408D01*
X80800500Y-111727405D01*
X80800499Y-111727403D01*
X80769738Y-111572760D01*
X80769737Y-111572753D01*
X80769735Y-111572748D01*
X80709397Y-111427077D01*
X80709390Y-111427064D01*
X80621789Y-111295961D01*
X80621786Y-111295957D01*
X80510292Y-111184463D01*
X80510288Y-111184460D01*
X80379185Y-111096859D01*
X80379172Y-111096852D01*
X80233501Y-111036514D01*
X80233489Y-111036511D01*
X80078845Y-111005750D01*
X80078842Y-111005750D01*
X79921158Y-111005750D01*
X79921155Y-111005750D01*
X79766510Y-111036511D01*
X79766498Y-111036514D01*
X79620827Y-111096852D01*
X79620814Y-111096859D01*
X79489711Y-111184460D01*
X79489707Y-111184463D01*
X79378213Y-111295957D01*
X79378210Y-111295961D01*
X79290609Y-111427064D01*
X79290602Y-111427077D01*
X79230264Y-111572748D01*
X79230261Y-111572760D01*
X79199500Y-111727403D01*
X79199500Y-111885096D01*
X79230261Y-112039739D01*
X79230264Y-112039751D01*
X79290602Y-112185422D01*
X79290609Y-112185435D01*
X79378210Y-112316538D01*
X79378213Y-112316542D01*
X79489707Y-112428036D01*
X79489711Y-112428039D01*
X79606965Y-112506386D01*
X79651770Y-112559998D01*
X79660477Y-112629323D01*
X79630323Y-112692351D01*
X79572252Y-112728222D01*
X79572335Y-112728494D01*
X79571308Y-112728805D01*
X79570880Y-112729070D01*
X79568869Y-112729545D01*
X79566498Y-112730264D01*
X79420827Y-112790602D01*
X79420814Y-112790609D01*
X79289711Y-112878210D01*
X79289707Y-112878213D01*
X79178213Y-112989707D01*
X79178210Y-112989711D01*
X79090609Y-113120814D01*
X79090602Y-113120827D01*
X79030264Y-113266498D01*
X79030261Y-113266510D01*
X78999500Y-113421153D01*
X71950500Y-113421153D01*
X71950500Y-109121153D01*
X113299500Y-109121153D01*
X113299500Y-109278846D01*
X113330261Y-109433489D01*
X113330264Y-109433501D01*
X113390602Y-109579172D01*
X113390609Y-109579185D01*
X113478210Y-109710288D01*
X113478213Y-109710292D01*
X113589707Y-109821786D01*
X113589711Y-109821789D01*
X113720814Y-109909390D01*
X113720827Y-109909397D01*
X113866498Y-109969735D01*
X113866503Y-109969737D01*
X114021153Y-110000499D01*
X114021156Y-110000500D01*
X114021158Y-110000500D01*
X114178844Y-110000500D01*
X114178845Y-110000499D01*
X114333497Y-109969737D01*
X114479179Y-109909394D01*
X114610289Y-109821789D01*
X114721789Y-109710289D01*
X114809394Y-109579179D01*
X114869737Y-109433497D01*
X114900500Y-109278842D01*
X114900500Y-109121158D01*
X114900500Y-109121155D01*
X114900499Y-109121153D01*
X114869738Y-108966510D01*
X114869737Y-108966503D01*
X114842398Y-108900500D01*
X114809397Y-108820827D01*
X114809390Y-108820814D01*
X114721789Y-108689711D01*
X114721786Y-108689707D01*
X114610292Y-108578213D01*
X114610288Y-108578210D01*
X114479185Y-108490609D01*
X114479172Y-108490602D01*
X114333501Y-108430264D01*
X114333489Y-108430261D01*
X114178845Y-108399500D01*
X114178842Y-108399500D01*
X114021158Y-108399500D01*
X114021155Y-108399500D01*
X113866510Y-108430261D01*
X113866498Y-108430264D01*
X113720827Y-108490602D01*
X113720814Y-108490609D01*
X113589711Y-108578210D01*
X113589707Y-108578213D01*
X113478213Y-108689707D01*
X113478210Y-108689711D01*
X113390609Y-108820814D01*
X113390602Y-108820827D01*
X113330264Y-108966498D01*
X113330261Y-108966510D01*
X113299500Y-109121153D01*
X71950500Y-109121153D01*
X71950500Y-108021153D01*
X110399500Y-108021153D01*
X110399500Y-108178846D01*
X110430261Y-108333489D01*
X110430264Y-108333501D01*
X110490602Y-108479172D01*
X110490609Y-108479185D01*
X110578210Y-108610288D01*
X110578213Y-108610292D01*
X110689707Y-108721786D01*
X110689711Y-108721789D01*
X110820814Y-108809390D01*
X110820827Y-108809397D01*
X110966498Y-108869735D01*
X110966503Y-108869737D01*
X111121153Y-108900499D01*
X111121156Y-108900500D01*
X111121158Y-108900500D01*
X111278844Y-108900500D01*
X111278845Y-108900499D01*
X111433497Y-108869737D01*
X111551592Y-108820821D01*
X111579172Y-108809397D01*
X111579172Y-108809396D01*
X111579179Y-108809394D01*
X111710289Y-108721789D01*
X111821789Y-108610289D01*
X111909394Y-108479179D01*
X111969737Y-108333497D01*
X112000500Y-108178842D01*
X112000500Y-108021158D01*
X112000500Y-108021155D01*
X112000499Y-108021153D01*
X111969738Y-107866510D01*
X111969737Y-107866503D01*
X111969735Y-107866498D01*
X111909397Y-107720827D01*
X111909390Y-107720814D01*
X111821789Y-107589711D01*
X111821786Y-107589707D01*
X111710292Y-107478213D01*
X111710288Y-107478210D01*
X111579185Y-107390609D01*
X111579172Y-107390602D01*
X111433501Y-107330264D01*
X111433489Y-107330261D01*
X111278845Y-107299500D01*
X111278842Y-107299500D01*
X111121158Y-107299500D01*
X111121155Y-107299500D01*
X110966510Y-107330261D01*
X110966498Y-107330264D01*
X110820827Y-107390602D01*
X110820814Y-107390609D01*
X110689711Y-107478210D01*
X110689707Y-107478213D01*
X110578213Y-107589707D01*
X110578210Y-107589711D01*
X110490609Y-107720814D01*
X110490602Y-107720827D01*
X110430264Y-107866498D01*
X110430261Y-107866510D01*
X110399500Y-108021153D01*
X71950500Y-108021153D01*
X71950500Y-98856233D01*
X74524500Y-98856233D01*
X74524500Y-99656251D01*
X74524501Y-99656269D01*
X74535000Y-99759046D01*
X74535001Y-99759049D01*
X74584250Y-99907671D01*
X74590186Y-99925584D01*
X74682288Y-100074906D01*
X74806344Y-100198962D01*
X74870981Y-100238830D01*
X74917705Y-100290776D01*
X74928928Y-100359739D01*
X74901085Y-100423821D01*
X74893566Y-100432049D01*
X74785964Y-100539651D01*
X74684195Y-100679725D01*
X74605591Y-100833994D01*
X74552085Y-100998665D01*
X74550884Y-101006249D01*
X74550885Y-101006250D01*
X75619670Y-101006250D01*
X75599925Y-101025995D01*
X75550556Y-101111505D01*
X75525000Y-101206880D01*
X75525000Y-101305620D01*
X75550556Y-101400995D01*
X75599925Y-101486505D01*
X75619670Y-101506250D01*
X74550885Y-101506250D01*
X74552085Y-101513834D01*
X74605591Y-101678505D01*
X74684195Y-101832774D01*
X74785967Y-101972852D01*
X74908401Y-102095286D01*
X74991447Y-102155621D01*
X75034114Y-102210951D01*
X75040093Y-102280564D01*
X75007488Y-102342359D01*
X74991450Y-102356257D01*
X74908072Y-102416835D01*
X74785588Y-102539319D01*
X74785588Y-102539320D01*
X74785586Y-102539322D01*
X74741859Y-102599506D01*
X74683768Y-102679461D01*
X74605128Y-102833802D01*
X74551597Y-102998552D01*
X74524500Y-103169639D01*
X74524500Y-103342860D01*
X74539839Y-103439711D01*
X74551598Y-103513951D01*
X74605127Y-103678695D01*
X74683768Y-103833038D01*
X74785586Y-103973178D01*
X74908072Y-104095664D01*
X75048212Y-104197482D01*
X75202555Y-104276123D01*
X75367299Y-104329652D01*
X75538389Y-104356750D01*
X75538390Y-104356750D01*
X76261610Y-104356750D01*
X76261611Y-104356750D01*
X76432701Y-104329652D01*
X76597445Y-104276123D01*
X76751788Y-104197482D01*
X76891928Y-104095664D01*
X77014414Y-103973178D01*
X77088540Y-103871153D01*
X118174500Y-103871153D01*
X118174500Y-104028846D01*
X118205261Y-104183489D01*
X118205264Y-104183501D01*
X118265602Y-104329172D01*
X118265609Y-104329185D01*
X118353210Y-104460288D01*
X118353213Y-104460292D01*
X118464707Y-104571786D01*
X118464711Y-104571789D01*
X118595814Y-104659390D01*
X118595827Y-104659397D01*
X118741498Y-104719735D01*
X118741503Y-104719737D01*
X118896153Y-104750499D01*
X118896156Y-104750500D01*
X118896158Y-104750500D01*
X119053844Y-104750500D01*
X119053845Y-104750499D01*
X119208497Y-104719737D01*
X119354179Y-104659394D01*
X119485289Y-104571789D01*
X119596789Y-104460289D01*
X119684394Y-104329179D01*
X119744737Y-104183497D01*
X119775500Y-104028842D01*
X119775500Y-103871158D01*
X119775500Y-103871155D01*
X119775499Y-103871153D01*
X119763091Y-103808773D01*
X119744737Y-103716503D01*
X119744735Y-103716498D01*
X119684397Y-103570827D01*
X119684390Y-103570814D01*
X119596789Y-103439711D01*
X119596786Y-103439707D01*
X119485292Y-103328213D01*
X119485288Y-103328210D01*
X119354185Y-103240609D01*
X119354172Y-103240602D01*
X119208501Y-103180264D01*
X119208489Y-103180261D01*
X119053845Y-103149500D01*
X119053842Y-103149500D01*
X118896158Y-103149500D01*
X118896155Y-103149500D01*
X118741510Y-103180261D01*
X118741498Y-103180264D01*
X118595827Y-103240602D01*
X118595814Y-103240609D01*
X118464711Y-103328210D01*
X118464707Y-103328213D01*
X118353213Y-103439707D01*
X118353210Y-103439711D01*
X118265609Y-103570814D01*
X118265602Y-103570827D01*
X118205264Y-103716498D01*
X118205261Y-103716510D01*
X118174500Y-103871153D01*
X77088540Y-103871153D01*
X77116232Y-103833038D01*
X77194873Y-103678695D01*
X77248402Y-103513951D01*
X77275500Y-103342861D01*
X77275500Y-103169639D01*
X77248402Y-102998549D01*
X77194873Y-102833805D01*
X77116232Y-102679462D01*
X77014414Y-102539322D01*
X76891928Y-102416836D01*
X76808550Y-102356258D01*
X76765885Y-102300927D01*
X76759906Y-102231314D01*
X76792512Y-102169519D01*
X76808552Y-102155621D01*
X76891598Y-102095286D01*
X77014032Y-101972852D01*
X77115804Y-101832774D01*
X77194408Y-101678505D01*
X77247914Y-101513834D01*
X77249115Y-101506250D01*
X76180330Y-101506250D01*
X76200075Y-101486505D01*
X76249444Y-101400995D01*
X76275000Y-101305620D01*
X76275000Y-101206880D01*
X76249444Y-101111505D01*
X76200075Y-101025995D01*
X76180330Y-101006250D01*
X77249115Y-101006250D01*
X77249115Y-101006249D01*
X77247914Y-100998665D01*
X77194408Y-100833994D01*
X77115804Y-100679725D01*
X77014032Y-100539647D01*
X76906434Y-100432049D01*
X76872949Y-100370726D01*
X76877933Y-100301034D01*
X76919805Y-100245101D01*
X76928995Y-100238844D01*
X76993656Y-100198962D01*
X77117712Y-100074906D01*
X77209814Y-99925584D01*
X77264999Y-99759047D01*
X77275500Y-99656259D01*
X77275499Y-99246153D01*
X77774500Y-99246153D01*
X77774500Y-99403846D01*
X77805261Y-99558489D01*
X77805264Y-99558501D01*
X77865602Y-99704172D01*
X77865609Y-99704185D01*
X77953210Y-99835288D01*
X77953213Y-99835292D01*
X78064707Y-99946786D01*
X78064711Y-99946789D01*
X78195814Y-100034390D01*
X78195827Y-100034397D01*
X78341498Y-100094735D01*
X78341503Y-100094737D01*
X78469579Y-100120213D01*
X78496153Y-100125499D01*
X78496156Y-100125500D01*
X78496158Y-100125500D01*
X78653844Y-100125500D01*
X78653845Y-100125499D01*
X78771204Y-100102155D01*
X85850000Y-100102155D01*
X85850000Y-100750000D01*
X86766988Y-100750000D01*
X86734075Y-100807007D01*
X86700000Y-100934174D01*
X86700000Y-101065826D01*
X86734075Y-101192993D01*
X86766988Y-101250000D01*
X85850000Y-101250000D01*
X85850000Y-101897844D01*
X85856401Y-101957372D01*
X85856403Y-101957379D01*
X85906645Y-102092086D01*
X85906649Y-102092093D01*
X85992809Y-102207187D01*
X85992812Y-102207190D01*
X86107906Y-102293350D01*
X86107913Y-102293354D01*
X86242620Y-102343596D01*
X86242627Y-102343598D01*
X86302155Y-102349999D01*
X86302172Y-102350000D01*
X86950000Y-102350000D01*
X86950000Y-101433012D01*
X87007007Y-101465925D01*
X87134174Y-101500000D01*
X87265826Y-101500000D01*
X87392993Y-101465925D01*
X87450000Y-101433012D01*
X87450000Y-102350000D01*
X88097828Y-102350000D01*
X88097844Y-102349999D01*
X88157372Y-102343598D01*
X88157379Y-102343596D01*
X88292086Y-102293354D01*
X88292093Y-102293350D01*
X88407187Y-102207190D01*
X88407190Y-102207187D01*
X88493350Y-102092093D01*
X88493354Y-102092086D01*
X88515529Y-102032632D01*
X88554319Y-101859390D01*
X88554682Y-101858734D01*
X88554642Y-101857984D01*
X88587642Y-101798802D01*
X89257037Y-101129408D01*
X89274075Y-101192993D01*
X89339901Y-101307007D01*
X89432993Y-101400099D01*
X89547007Y-101465925D01*
X89610590Y-101482962D01*
X88978282Y-102115269D01*
X88978282Y-102115270D01*
X89032449Y-102154624D01*
X89221782Y-102251095D01*
X89423870Y-102316757D01*
X89633754Y-102350000D01*
X89846246Y-102350000D01*
X90056127Y-102316757D01*
X90056130Y-102316757D01*
X90258217Y-102251095D01*
X90447554Y-102154622D01*
X90501716Y-102115270D01*
X90501717Y-102115270D01*
X89869408Y-101482962D01*
X89932993Y-101465925D01*
X90047007Y-101400099D01*
X90140099Y-101307007D01*
X90205925Y-101192993D01*
X90222962Y-101129408D01*
X90855270Y-101761717D01*
X90855270Y-101761716D01*
X90894622Y-101707554D01*
X90991095Y-101518217D01*
X91056757Y-101316130D01*
X91056757Y-101316127D01*
X91090000Y-101106246D01*
X91090000Y-100893753D01*
X91056757Y-100683872D01*
X91056757Y-100683869D01*
X90991095Y-100481782D01*
X90894624Y-100292449D01*
X90855270Y-100238282D01*
X90855269Y-100238282D01*
X90222962Y-100870590D01*
X90205925Y-100807007D01*
X90140099Y-100692993D01*
X90047007Y-100599901D01*
X89932993Y-100534075D01*
X89869409Y-100517037D01*
X90284310Y-100102135D01*
X99249500Y-100102135D01*
X99249500Y-101897870D01*
X99249501Y-101897876D01*
X99255908Y-101957483D01*
X99306202Y-102092328D01*
X99306206Y-102092335D01*
X99392452Y-102207544D01*
X99392455Y-102207547D01*
X99507664Y-102293793D01*
X99507671Y-102293797D01*
X99642517Y-102344091D01*
X99642516Y-102344091D01*
X99649444Y-102344835D01*
X99702127Y-102350500D01*
X101497872Y-102350499D01*
X101557483Y-102344091D01*
X101692331Y-102293796D01*
X101807546Y-102207546D01*
X101893796Y-102092331D01*
X101942810Y-101960916D01*
X101984681Y-101904984D01*
X102050145Y-101880566D01*
X102118418Y-101895417D01*
X102146673Y-101916569D01*
X102260213Y-102030109D01*
X102432179Y-102155048D01*
X102432181Y-102155049D01*
X102432184Y-102155051D01*
X102621588Y-102251557D01*
X102823757Y-102317246D01*
X103033713Y-102350500D01*
X103033714Y-102350500D01*
X103246286Y-102350500D01*
X103246287Y-102350500D01*
X103456243Y-102317246D01*
X103658412Y-102251557D01*
X103847816Y-102155051D01*
X103934138Y-102092335D01*
X104019786Y-102030109D01*
X104019788Y-102030106D01*
X104019792Y-102030104D01*
X104170104Y-101879792D01*
X104170106Y-101879788D01*
X104170109Y-101879786D01*
X104295048Y-101707820D01*
X104295047Y-101707820D01*
X104295051Y-101707816D01*
X104391557Y-101518412D01*
X104457246Y-101316243D01*
X104490500Y-101106287D01*
X104490500Y-100893713D01*
X104457246Y-100683757D01*
X104391557Y-100481588D01*
X104295051Y-100292184D01*
X104295049Y-100292181D01*
X104295048Y-100292179D01*
X104170109Y-100120213D01*
X104019786Y-99969890D01*
X103847820Y-99844951D01*
X103658414Y-99748444D01*
X103658413Y-99748443D01*
X103658412Y-99748443D01*
X103456243Y-99682754D01*
X103456241Y-99682753D01*
X103456240Y-99682753D01*
X103294957Y-99657208D01*
X103246287Y-99649500D01*
X103033713Y-99649500D01*
X102985042Y-99657208D01*
X102823760Y-99682753D01*
X102621585Y-99748444D01*
X102432179Y-99844951D01*
X102260215Y-99969889D01*
X102146673Y-100083431D01*
X102085350Y-100116915D01*
X102015658Y-100111931D01*
X101959725Y-100070059D01*
X101942810Y-100039082D01*
X101893797Y-99907671D01*
X101893793Y-99907664D01*
X101807547Y-99792455D01*
X101807544Y-99792452D01*
X101692335Y-99706206D01*
X101692328Y-99706202D01*
X101557482Y-99655908D01*
X101557483Y-99655908D01*
X101497883Y-99649501D01*
X101497881Y-99649500D01*
X101497873Y-99649500D01*
X101497864Y-99649500D01*
X99702129Y-99649500D01*
X99702123Y-99649501D01*
X99642516Y-99655908D01*
X99507671Y-99706202D01*
X99507664Y-99706206D01*
X99392455Y-99792452D01*
X99392452Y-99792455D01*
X99306206Y-99907664D01*
X99306202Y-99907671D01*
X99255908Y-100042517D01*
X99249501Y-100102116D01*
X99249500Y-100102135D01*
X90284310Y-100102135D01*
X90375320Y-100011125D01*
X90501716Y-99884728D01*
X90447550Y-99845375D01*
X90258217Y-99748904D01*
X90056129Y-99683242D01*
X89846246Y-99650000D01*
X89633754Y-99650000D01*
X89423872Y-99683242D01*
X89423869Y-99683242D01*
X89221782Y-99748904D01*
X89032439Y-99845380D01*
X88978282Y-99884727D01*
X88978282Y-99884728D01*
X89610591Y-100517037D01*
X89547007Y-100534075D01*
X89432993Y-100599901D01*
X89339901Y-100692993D01*
X89274075Y-100807007D01*
X89257037Y-100870591D01*
X88587642Y-100201196D01*
X88577133Y-100182090D01*
X88567566Y-100172714D01*
X88561488Y-100153644D01*
X88554319Y-100140609D01*
X88515527Y-99967364D01*
X88493354Y-99907913D01*
X88493350Y-99907906D01*
X88407190Y-99792812D01*
X88407187Y-99792809D01*
X88292093Y-99706649D01*
X88292086Y-99706645D01*
X88157379Y-99656403D01*
X88157372Y-99656401D01*
X88097844Y-99650000D01*
X87450000Y-99650000D01*
X87450000Y-100566988D01*
X87392993Y-100534075D01*
X87265826Y-100500000D01*
X87134174Y-100500000D01*
X87007007Y-100534075D01*
X86950000Y-100566988D01*
X86950000Y-99650000D01*
X86302155Y-99650000D01*
X86242627Y-99656401D01*
X86242620Y-99656403D01*
X86107913Y-99706645D01*
X86107906Y-99706649D01*
X85992812Y-99792809D01*
X85992809Y-99792812D01*
X85906649Y-99907906D01*
X85906645Y-99907913D01*
X85856403Y-100042620D01*
X85856401Y-100042627D01*
X85850000Y-100102155D01*
X78771204Y-100102155D01*
X78808497Y-100094737D01*
X78954179Y-100034394D01*
X78954185Y-100034390D01*
X79012016Y-99995749D01*
X79054496Y-99967364D01*
X79085289Y-99946789D01*
X79196789Y-99835289D01*
X79284394Y-99704179D01*
X79344737Y-99558497D01*
X79375500Y-99403842D01*
X79375500Y-99246158D01*
X79375500Y-99246155D01*
X79375499Y-99246153D01*
X79344738Y-99091510D01*
X79344737Y-99091503D01*
X79344735Y-99091498D01*
X79284397Y-98945827D01*
X79284390Y-98945814D01*
X79196789Y-98814711D01*
X79196786Y-98814707D01*
X79085292Y-98703213D01*
X79085288Y-98703210D01*
X78954185Y-98615609D01*
X78954172Y-98615602D01*
X78808501Y-98555264D01*
X78808489Y-98555261D01*
X78653845Y-98524500D01*
X78653842Y-98524500D01*
X78496158Y-98524500D01*
X78496155Y-98524500D01*
X78341510Y-98555261D01*
X78341498Y-98555264D01*
X78195827Y-98615602D01*
X78195814Y-98615609D01*
X78064711Y-98703210D01*
X78064707Y-98703213D01*
X77953213Y-98814707D01*
X77953210Y-98814711D01*
X77865609Y-98945814D01*
X77865602Y-98945827D01*
X77805264Y-99091498D01*
X77805261Y-99091510D01*
X77774500Y-99246153D01*
X77275499Y-99246153D01*
X77275499Y-98856242D01*
X77264999Y-98753453D01*
X77209814Y-98586916D01*
X77117712Y-98437594D01*
X76993656Y-98313538D01*
X76844334Y-98221436D01*
X76677797Y-98166251D01*
X76677795Y-98166250D01*
X76575010Y-98155750D01*
X75224998Y-98155750D01*
X75224981Y-98155751D01*
X75122203Y-98166250D01*
X75122200Y-98166251D01*
X74955668Y-98221435D01*
X74955663Y-98221437D01*
X74806342Y-98313539D01*
X74682289Y-98437592D01*
X74590187Y-98586913D01*
X74590186Y-98586916D01*
X74535001Y-98753453D01*
X74535001Y-98753454D01*
X74535000Y-98753454D01*
X74524500Y-98856233D01*
X71950500Y-98856233D01*
X71950500Y-94407885D01*
X79488190Y-94407885D01*
X79488190Y-94565578D01*
X79518951Y-94720221D01*
X79518954Y-94720233D01*
X79579292Y-94865904D01*
X79579299Y-94865917D01*
X79666900Y-94997020D01*
X79666903Y-94997024D01*
X79778397Y-95108518D01*
X79778401Y-95108521D01*
X79909504Y-95196122D01*
X79909517Y-95196129D01*
X80044059Y-95251857D01*
X80098463Y-95295697D01*
X80120528Y-95361991D01*
X80103249Y-95429691D01*
X80052112Y-95477302D01*
X80044063Y-95480978D01*
X80020823Y-95490604D01*
X80020814Y-95490609D01*
X79889711Y-95578210D01*
X79889707Y-95578213D01*
X79778213Y-95689707D01*
X79778210Y-95689711D01*
X79690609Y-95820814D01*
X79690602Y-95820827D01*
X79630264Y-95966498D01*
X79630261Y-95966510D01*
X79599500Y-96121153D01*
X79599500Y-96278846D01*
X79630261Y-96433489D01*
X79630264Y-96433501D01*
X79690602Y-96579172D01*
X79690609Y-96579185D01*
X79778210Y-96710288D01*
X79778213Y-96710292D01*
X79889707Y-96821786D01*
X79889711Y-96821789D01*
X80020814Y-96909390D01*
X80020827Y-96909397D01*
X80103216Y-96943523D01*
X80166503Y-96969737D01*
X80321153Y-97000499D01*
X80321156Y-97000500D01*
X80321158Y-97000500D01*
X80478844Y-97000500D01*
X80478845Y-97000499D01*
X80633497Y-96969737D01*
X80779179Y-96909394D01*
X80910289Y-96821789D01*
X81021789Y-96710289D01*
X81109394Y-96579179D01*
X81169737Y-96433497D01*
X81200500Y-96278842D01*
X81200500Y-96242887D01*
X96234625Y-96242887D01*
X96234625Y-96400580D01*
X96265386Y-96555223D01*
X96265389Y-96555235D01*
X96325727Y-96700906D01*
X96325734Y-96700919D01*
X96413335Y-96832022D01*
X96413338Y-96832026D01*
X96524832Y-96943520D01*
X96524836Y-96943523D01*
X96655939Y-97031124D01*
X96655952Y-97031131D01*
X96801623Y-97091469D01*
X96801628Y-97091471D01*
X96956278Y-97122233D01*
X96956281Y-97122234D01*
X96956283Y-97122234D01*
X97113969Y-97122234D01*
X97113970Y-97122233D01*
X97268622Y-97091471D01*
X97414304Y-97031128D01*
X97545414Y-96943523D01*
X97656914Y-96832023D01*
X97744519Y-96700913D01*
X97744691Y-96700499D01*
X97804860Y-96555235D01*
X97804862Y-96555231D01*
X97835625Y-96400576D01*
X97835625Y-96242892D01*
X97835625Y-96242889D01*
X97835624Y-96242887D01*
X97804862Y-96088237D01*
X97804860Y-96088232D01*
X97744522Y-95942561D01*
X97744512Y-95942543D01*
X97705367Y-95883958D01*
X97705366Y-95883957D01*
X97663401Y-95821153D01*
X100699500Y-95821153D01*
X100699500Y-95978846D01*
X100730261Y-96133489D01*
X100730264Y-96133501D01*
X100790602Y-96279172D01*
X100790609Y-96279185D01*
X100878210Y-96410288D01*
X100878213Y-96410292D01*
X100989707Y-96521786D01*
X100989711Y-96521789D01*
X101120814Y-96609390D01*
X101120827Y-96609397D01*
X101266498Y-96669735D01*
X101266503Y-96669737D01*
X101421153Y-96700499D01*
X101421156Y-96700500D01*
X101421158Y-96700500D01*
X101578844Y-96700500D01*
X101578845Y-96700499D01*
X101733497Y-96669737D01*
X101879179Y-96609394D01*
X102010289Y-96521789D01*
X102121789Y-96410289D01*
X102209394Y-96279179D01*
X102269737Y-96133497D01*
X102300500Y-95978842D01*
X102300500Y-95821158D01*
X102300500Y-95821155D01*
X102300499Y-95821153D01*
X102274353Y-95689711D01*
X102269737Y-95666503D01*
X102269735Y-95666498D01*
X102209397Y-95520827D01*
X102209390Y-95520814D01*
X102121789Y-95389711D01*
X102121786Y-95389707D01*
X102010292Y-95278213D01*
X102010288Y-95278210D01*
X101879185Y-95190609D01*
X101879172Y-95190602D01*
X101733501Y-95130264D01*
X101733489Y-95130261D01*
X101578845Y-95099500D01*
X101578842Y-95099500D01*
X101421158Y-95099500D01*
X101421155Y-95099500D01*
X101266510Y-95130261D01*
X101266498Y-95130264D01*
X101120827Y-95190602D01*
X101120814Y-95190609D01*
X100989711Y-95278210D01*
X100989707Y-95278213D01*
X100878213Y-95389707D01*
X100878210Y-95389711D01*
X100790609Y-95520814D01*
X100790602Y-95520827D01*
X100730264Y-95666498D01*
X100730261Y-95666510D01*
X100699500Y-95821153D01*
X97663401Y-95821153D01*
X97656914Y-95811445D01*
X97656911Y-95811441D01*
X97545417Y-95699947D01*
X97545413Y-95699944D01*
X97414310Y-95612343D01*
X97414297Y-95612336D01*
X97268626Y-95551998D01*
X97268614Y-95551995D01*
X97113970Y-95521234D01*
X97113967Y-95521234D01*
X96956283Y-95521234D01*
X96956280Y-95521234D01*
X96801635Y-95551995D01*
X96801623Y-95551998D01*
X96655952Y-95612336D01*
X96655939Y-95612343D01*
X96524836Y-95699944D01*
X96524832Y-95699947D01*
X96413338Y-95811441D01*
X96413335Y-95811445D01*
X96325734Y-95942548D01*
X96325727Y-95942561D01*
X96265389Y-96088232D01*
X96265386Y-96088244D01*
X96234625Y-96242887D01*
X81200500Y-96242887D01*
X81200500Y-96121158D01*
X81200500Y-96121155D01*
X81200499Y-96121153D01*
X81193953Y-96088244D01*
X81169737Y-95966503D01*
X81159820Y-95942561D01*
X81109397Y-95820827D01*
X81109390Y-95820814D01*
X81021789Y-95689711D01*
X81021786Y-95689707D01*
X80910292Y-95578213D01*
X80910288Y-95578210D01*
X80779185Y-95490609D01*
X80779172Y-95490602D01*
X80644630Y-95434874D01*
X80590226Y-95391033D01*
X80568161Y-95324739D01*
X80585440Y-95257040D01*
X80636577Y-95209429D01*
X80644621Y-95205755D01*
X80667869Y-95196126D01*
X80798979Y-95108521D01*
X80910479Y-94997021D01*
X80998084Y-94865911D01*
X81058427Y-94720229D01*
X81089190Y-94565574D01*
X81089190Y-94407890D01*
X81089190Y-94407887D01*
X81089189Y-94407885D01*
X81058428Y-94253242D01*
X81058427Y-94253235D01*
X81058425Y-94253230D01*
X80998087Y-94107559D01*
X80998080Y-94107546D01*
X80910479Y-93976443D01*
X80910476Y-93976439D01*
X80798982Y-93864945D01*
X80798978Y-93864942D01*
X80667875Y-93777341D01*
X80667862Y-93777334D01*
X80522191Y-93716996D01*
X80522179Y-93716993D01*
X80367535Y-93686232D01*
X80367532Y-93686232D01*
X80209848Y-93686232D01*
X80209845Y-93686232D01*
X80055200Y-93716993D01*
X80055188Y-93716996D01*
X79909517Y-93777334D01*
X79909504Y-93777341D01*
X79778401Y-93864942D01*
X79778397Y-93864945D01*
X79666903Y-93976439D01*
X79666900Y-93976443D01*
X79579299Y-94107546D01*
X79579292Y-94107559D01*
X79518954Y-94253230D01*
X79518951Y-94253242D01*
X79488190Y-94407885D01*
X71950500Y-94407885D01*
X71950500Y-92671153D01*
X105274500Y-92671153D01*
X105274500Y-92828846D01*
X105305261Y-92983489D01*
X105305264Y-92983501D01*
X105365602Y-93129172D01*
X105365609Y-93129185D01*
X105453210Y-93260288D01*
X105453213Y-93260292D01*
X105564707Y-93371786D01*
X105564711Y-93371789D01*
X105695814Y-93459390D01*
X105695827Y-93459397D01*
X105841498Y-93519735D01*
X105841503Y-93519737D01*
X105996153Y-93550499D01*
X105996156Y-93550500D01*
X105996158Y-93550500D01*
X106153844Y-93550500D01*
X106153845Y-93550499D01*
X106308497Y-93519737D01*
X106454179Y-93459394D01*
X106585289Y-93371789D01*
X106696789Y-93260289D01*
X106784394Y-93129179D01*
X106844737Y-92983497D01*
X106875500Y-92828842D01*
X106875500Y-92671158D01*
X106875500Y-92671155D01*
X106875499Y-92671153D01*
X106844738Y-92516510D01*
X106844737Y-92516503D01*
X106844735Y-92516498D01*
X106784397Y-92370827D01*
X106784390Y-92370814D01*
X106696789Y-92239711D01*
X106696786Y-92239707D01*
X106585292Y-92128213D01*
X106585288Y-92128210D01*
X106454185Y-92040609D01*
X106454172Y-92040602D01*
X106308501Y-91980264D01*
X106308489Y-91980261D01*
X106153845Y-91949500D01*
X106153842Y-91949500D01*
X105996158Y-91949500D01*
X105996155Y-91949500D01*
X105841510Y-91980261D01*
X105841498Y-91980264D01*
X105695827Y-92040602D01*
X105695814Y-92040609D01*
X105564711Y-92128210D01*
X105564707Y-92128213D01*
X105453213Y-92239707D01*
X105453210Y-92239711D01*
X105365609Y-92370814D01*
X105365602Y-92370827D01*
X105305264Y-92516498D01*
X105305261Y-92516510D01*
X105274500Y-92671153D01*
X71950500Y-92671153D01*
X71950500Y-91221153D01*
X108799500Y-91221153D01*
X108799500Y-91378846D01*
X108830261Y-91533489D01*
X108830264Y-91533501D01*
X108890602Y-91679172D01*
X108890609Y-91679185D01*
X108978210Y-91810288D01*
X108978213Y-91810292D01*
X109089707Y-91921786D01*
X109089711Y-91921789D01*
X109220814Y-92009390D01*
X109220827Y-92009397D01*
X109296181Y-92040609D01*
X109366503Y-92069737D01*
X109521153Y-92100499D01*
X109521156Y-92100500D01*
X109521158Y-92100500D01*
X109678844Y-92100500D01*
X109678845Y-92100499D01*
X109833497Y-92069737D01*
X109979179Y-92009394D01*
X110110289Y-91921789D01*
X110221789Y-91810289D01*
X110309394Y-91679179D01*
X110369737Y-91533497D01*
X110400500Y-91378842D01*
X110400500Y-91221158D01*
X110400500Y-91221155D01*
X110400499Y-91221153D01*
X110369738Y-91066510D01*
X110369737Y-91066503D01*
X110369735Y-91066498D01*
X110309397Y-90920827D01*
X110309390Y-90920814D01*
X110221789Y-90789711D01*
X110221786Y-90789707D01*
X110110292Y-90678213D01*
X110110288Y-90678210D01*
X109979185Y-90590609D01*
X109979172Y-90590602D01*
X109833501Y-90530264D01*
X109833489Y-90530261D01*
X109678845Y-90499500D01*
X109678842Y-90499500D01*
X109521158Y-90499500D01*
X109521155Y-90499500D01*
X109366510Y-90530261D01*
X109366498Y-90530264D01*
X109220827Y-90590602D01*
X109220814Y-90590609D01*
X109089711Y-90678210D01*
X109089707Y-90678213D01*
X108978213Y-90789707D01*
X108978210Y-90789711D01*
X108890609Y-90920814D01*
X108890602Y-90920827D01*
X108830264Y-91066498D01*
X108830261Y-91066510D01*
X108799500Y-91221153D01*
X71950500Y-91221153D01*
X71950500Y-81559358D01*
X74663190Y-81559358D01*
X74663190Y-82359376D01*
X74663191Y-82359394D01*
X74673690Y-82462171D01*
X74673691Y-82462174D01*
X74681351Y-82485289D01*
X74728876Y-82628709D01*
X74820978Y-82778031D01*
X74945034Y-82902087D01*
X75009671Y-82941955D01*
X75056395Y-82993901D01*
X75067618Y-83062864D01*
X75039775Y-83126946D01*
X75032256Y-83135174D01*
X74924654Y-83242776D01*
X74822885Y-83382850D01*
X74744281Y-83537119D01*
X74690775Y-83701790D01*
X74689574Y-83709374D01*
X74689575Y-83709375D01*
X75758360Y-83709375D01*
X75738615Y-83729120D01*
X75689246Y-83814630D01*
X75663690Y-83910005D01*
X75663690Y-84008745D01*
X75689246Y-84104120D01*
X75738615Y-84189630D01*
X75758360Y-84209375D01*
X74689575Y-84209375D01*
X74690775Y-84216959D01*
X74744281Y-84381630D01*
X74822885Y-84535899D01*
X74924657Y-84675977D01*
X75047091Y-84798411D01*
X75130137Y-84858746D01*
X75172804Y-84914076D01*
X75178783Y-84983689D01*
X75146178Y-85045484D01*
X75130140Y-85059382D01*
X75046762Y-85119960D01*
X74924278Y-85242444D01*
X74924278Y-85242445D01*
X74924276Y-85242447D01*
X74880549Y-85302631D01*
X74822458Y-85382586D01*
X74743818Y-85536927D01*
X74690287Y-85701677D01*
X74670246Y-85828213D01*
X74663190Y-85872764D01*
X74663190Y-86045986D01*
X74671367Y-86097614D01*
X74690287Y-86217072D01*
X74690287Y-86217074D01*
X74690288Y-86217076D01*
X74738846Y-86366522D01*
X74743818Y-86381822D01*
X74750811Y-86395547D01*
X74822458Y-86536163D01*
X74924276Y-86676303D01*
X75046762Y-86798789D01*
X75186902Y-86900607D01*
X75341245Y-86979248D01*
X75505989Y-87032777D01*
X75677079Y-87059875D01*
X75677080Y-87059875D01*
X76400300Y-87059875D01*
X76400301Y-87059875D01*
X76571391Y-87032777D01*
X76736135Y-86979248D01*
X76890478Y-86900607D01*
X77030618Y-86798789D01*
X77153104Y-86676303D01*
X77254922Y-86536163D01*
X77333563Y-86381820D01*
X77337029Y-86371153D01*
X92374500Y-86371153D01*
X92374500Y-86528846D01*
X92405261Y-86683489D01*
X92405264Y-86683501D01*
X92465602Y-86829172D01*
X92465609Y-86829185D01*
X92553210Y-86960288D01*
X92553213Y-86960292D01*
X92664707Y-87071786D01*
X92664711Y-87071789D01*
X92795814Y-87159390D01*
X92795827Y-87159397D01*
X92886101Y-87196789D01*
X92941503Y-87219737D01*
X93096153Y-87250499D01*
X93096156Y-87250500D01*
X93096158Y-87250500D01*
X93253844Y-87250500D01*
X93253845Y-87250499D01*
X93408497Y-87219737D01*
X93554179Y-87159394D01*
X93685289Y-87071789D01*
X93796789Y-86960289D01*
X93884394Y-86829179D01*
X93944737Y-86683497D01*
X93975500Y-86528842D01*
X93975500Y-86371158D01*
X93975500Y-86371155D01*
X93975499Y-86371153D01*
X93944738Y-86216510D01*
X93944737Y-86216503D01*
X93936170Y-86195821D01*
X93884397Y-86070827D01*
X93884390Y-86070814D01*
X93796789Y-85939711D01*
X93796786Y-85939707D01*
X93685292Y-85828213D01*
X93685288Y-85828210D01*
X93554185Y-85740609D01*
X93554172Y-85740602D01*
X93408501Y-85680264D01*
X93408489Y-85680261D01*
X93253845Y-85649500D01*
X93253842Y-85649500D01*
X93096158Y-85649500D01*
X93096155Y-85649500D01*
X92941510Y-85680261D01*
X92941498Y-85680264D01*
X92795827Y-85740602D01*
X92795814Y-85740609D01*
X92664711Y-85828210D01*
X92664707Y-85828213D01*
X92553213Y-85939707D01*
X92553210Y-85939711D01*
X92465609Y-86070814D01*
X92465602Y-86070827D01*
X92405264Y-86216498D01*
X92405261Y-86216510D01*
X92374500Y-86371153D01*
X77337029Y-86371153D01*
X77387092Y-86217076D01*
X77414190Y-86045986D01*
X77414190Y-85872764D01*
X77387092Y-85701674D01*
X77333563Y-85536930D01*
X77254922Y-85382587D01*
X77153104Y-85242447D01*
X77030618Y-85119961D01*
X76947240Y-85059383D01*
X76904575Y-85004052D01*
X76898596Y-84934439D01*
X76931202Y-84872644D01*
X76947242Y-84858746D01*
X77030288Y-84798411D01*
X77152722Y-84675977D01*
X77254494Y-84535899D01*
X77333098Y-84381630D01*
X77386604Y-84216959D01*
X77387805Y-84209375D01*
X76319020Y-84209375D01*
X76338765Y-84189630D01*
X76388134Y-84104120D01*
X76413690Y-84008745D01*
X76413690Y-83910005D01*
X76388134Y-83814630D01*
X76338765Y-83729120D01*
X76319020Y-83709375D01*
X77387805Y-83709375D01*
X77387805Y-83709374D01*
X77386604Y-83701790D01*
X77333098Y-83537119D01*
X77254494Y-83382850D01*
X77152722Y-83242772D01*
X77045124Y-83135174D01*
X77011639Y-83073851D01*
X77016623Y-83004159D01*
X77058495Y-82948226D01*
X77067685Y-82941969D01*
X77132346Y-82902087D01*
X77256402Y-82778031D01*
X77348504Y-82628709D01*
X77403689Y-82462172D01*
X77414190Y-82359384D01*
X77414189Y-81896153D01*
X77749500Y-81896153D01*
X77749500Y-82053846D01*
X77780261Y-82208489D01*
X77780264Y-82208501D01*
X77840602Y-82354172D01*
X77840609Y-82354185D01*
X77928210Y-82485288D01*
X77928213Y-82485292D01*
X78039707Y-82596786D01*
X78039711Y-82596789D01*
X78170814Y-82684390D01*
X78170827Y-82684397D01*
X78316498Y-82744735D01*
X78316503Y-82744737D01*
X78471153Y-82775499D01*
X78471156Y-82775500D01*
X78471158Y-82775500D01*
X78628844Y-82775500D01*
X78628845Y-82775499D01*
X78783497Y-82744737D01*
X78929179Y-82684394D01*
X79060289Y-82596789D01*
X79171789Y-82485289D01*
X79259394Y-82354179D01*
X79319737Y-82208497D01*
X79350500Y-82053842D01*
X79350500Y-81896158D01*
X79350500Y-81896155D01*
X79350499Y-81896153D01*
X79335706Y-81821786D01*
X79319737Y-81741503D01*
X79306808Y-81710289D01*
X79259397Y-81595827D01*
X79259390Y-81595814D01*
X79228816Y-81550057D01*
X79186851Y-81487253D01*
X98800500Y-81487253D01*
X98800500Y-81644946D01*
X98831261Y-81799589D01*
X98831264Y-81799601D01*
X98891602Y-81945272D01*
X98891609Y-81945285D01*
X98979210Y-82076388D01*
X98979213Y-82076392D01*
X99090707Y-82187886D01*
X99090711Y-82187889D01*
X99221814Y-82275490D01*
X99221827Y-82275497D01*
X99328636Y-82319738D01*
X99367503Y-82335837D01*
X99522153Y-82366599D01*
X99522156Y-82366600D01*
X99522158Y-82366600D01*
X99679844Y-82366600D01*
X99679845Y-82366599D01*
X99834497Y-82335837D01*
X99955614Y-82285669D01*
X99980172Y-82275497D01*
X99980172Y-82275496D01*
X99980179Y-82275494D01*
X100111289Y-82187889D01*
X100178025Y-82121153D01*
X106599500Y-82121153D01*
X106599500Y-82278846D01*
X106630261Y-82433489D01*
X106630264Y-82433501D01*
X106690602Y-82579172D01*
X106690609Y-82579185D01*
X106778210Y-82710288D01*
X106778213Y-82710292D01*
X106889707Y-82821786D01*
X106889711Y-82821789D01*
X107020814Y-82909390D01*
X107020827Y-82909397D01*
X107099428Y-82941954D01*
X107166503Y-82969737D01*
X107204057Y-82977207D01*
X107260948Y-82988524D01*
X107322859Y-83020909D01*
X107357434Y-83081625D01*
X107353694Y-83151394D01*
X107312827Y-83208066D01*
X107305648Y-83213243D01*
X107189711Y-83290710D01*
X107189707Y-83290713D01*
X107078213Y-83402207D01*
X107078210Y-83402211D01*
X106990609Y-83533314D01*
X106990602Y-83533327D01*
X106930264Y-83678998D01*
X106930261Y-83679010D01*
X106899500Y-83833653D01*
X106899500Y-83991346D01*
X106930261Y-84145989D01*
X106930264Y-84146001D01*
X106990602Y-84291672D01*
X106990609Y-84291685D01*
X107078210Y-84422788D01*
X107078213Y-84422792D01*
X107189707Y-84534286D01*
X107189711Y-84534289D01*
X107320814Y-84621890D01*
X107320827Y-84621897D01*
X107451390Y-84675977D01*
X107466503Y-84682237D01*
X107621153Y-84712999D01*
X107621156Y-84713000D01*
X107621158Y-84713000D01*
X107778844Y-84713000D01*
X107778845Y-84712999D01*
X107933497Y-84682237D01*
X108079179Y-84621894D01*
X108210289Y-84534289D01*
X108321789Y-84422789D01*
X108409394Y-84291679D01*
X108469737Y-84145997D01*
X108500500Y-83991342D01*
X108500500Y-83833658D01*
X108500500Y-83833655D01*
X108500499Y-83833653D01*
X108475778Y-83709374D01*
X108469737Y-83679003D01*
X108430541Y-83584375D01*
X108409397Y-83533327D01*
X108409390Y-83533314D01*
X108321789Y-83402211D01*
X108321786Y-83402207D01*
X108210292Y-83290713D01*
X108210288Y-83290710D01*
X108079185Y-83203109D01*
X108079172Y-83203102D01*
X107933501Y-83142764D01*
X107933491Y-83142761D01*
X107839050Y-83123975D01*
X107777139Y-83091589D01*
X107742565Y-83030873D01*
X107746306Y-82961104D01*
X107787173Y-82904432D01*
X107794352Y-82899256D01*
X107847232Y-82863922D01*
X107910289Y-82821789D01*
X108021789Y-82710289D01*
X108109394Y-82579179D01*
X108169737Y-82433497D01*
X108179950Y-82382154D01*
X108212334Y-82320243D01*
X108273050Y-82285669D01*
X108342819Y-82289408D01*
X108348992Y-82291773D01*
X108416503Y-82319737D01*
X108571153Y-82350499D01*
X108571156Y-82350500D01*
X108571158Y-82350500D01*
X108728844Y-82350500D01*
X108728845Y-82350499D01*
X108883497Y-82319737D01*
X109029179Y-82259394D01*
X109160289Y-82171789D01*
X109271789Y-82060289D01*
X109359394Y-81929179D01*
X109419737Y-81783497D01*
X109450500Y-81628842D01*
X109450500Y-81471158D01*
X109450500Y-81471155D01*
X109450499Y-81471153D01*
X109447599Y-81456575D01*
X109419737Y-81316503D01*
X109404138Y-81278844D01*
X109359397Y-81170827D01*
X109359390Y-81170814D01*
X109271789Y-81039711D01*
X109271786Y-81039707D01*
X109160292Y-80928213D01*
X109160288Y-80928210D01*
X109029185Y-80840609D01*
X109029172Y-80840602D01*
X108883501Y-80780264D01*
X108883489Y-80780261D01*
X108728845Y-80749500D01*
X108728842Y-80749500D01*
X108571158Y-80749500D01*
X108571155Y-80749500D01*
X108416510Y-80780261D01*
X108416498Y-80780264D01*
X108270827Y-80840602D01*
X108270814Y-80840609D01*
X108139711Y-80928210D01*
X108139707Y-80928213D01*
X108028213Y-81039707D01*
X108028210Y-81039711D01*
X107940609Y-81170814D01*
X107940602Y-81170827D01*
X107880264Y-81316498D01*
X107880261Y-81316507D01*
X107870049Y-81367847D01*
X107837663Y-81429758D01*
X107776947Y-81464331D01*
X107707177Y-81460590D01*
X107700987Y-81458218D01*
X107633497Y-81430263D01*
X107633489Y-81430261D01*
X107478845Y-81399500D01*
X107478842Y-81399500D01*
X107321158Y-81399500D01*
X107321155Y-81399500D01*
X107166510Y-81430261D01*
X107166498Y-81430264D01*
X107020827Y-81490602D01*
X107020814Y-81490609D01*
X106889711Y-81578210D01*
X106889707Y-81578213D01*
X106778213Y-81689707D01*
X106778210Y-81689711D01*
X106690609Y-81820814D01*
X106690602Y-81820827D01*
X106630264Y-81966498D01*
X106630261Y-81966510D01*
X106599500Y-82121153D01*
X100178025Y-82121153D01*
X100222789Y-82076389D01*
X100310394Y-81945279D01*
X100350511Y-81848425D01*
X100394350Y-81794026D01*
X100460644Y-81771960D01*
X100489260Y-81774263D01*
X100530980Y-81782562D01*
X100621155Y-81800500D01*
X100621158Y-81800500D01*
X100778844Y-81800500D01*
X100778845Y-81800499D01*
X100933497Y-81769737D01*
X101079179Y-81709394D01*
X101113800Y-81686261D01*
X101180477Y-81665382D01*
X101247857Y-81683865D01*
X101273553Y-81706331D01*
X101273903Y-81705982D01*
X101389707Y-81821786D01*
X101389711Y-81821789D01*
X101520814Y-81909390D01*
X101520827Y-81909397D01*
X101607470Y-81945285D01*
X101666503Y-81969737D01*
X101821153Y-82000499D01*
X101821156Y-82000500D01*
X101821158Y-82000500D01*
X101978844Y-82000500D01*
X101978845Y-82000499D01*
X101989179Y-81998443D01*
X102014287Y-81993450D01*
X102014292Y-81993449D01*
X102099800Y-81976439D01*
X102133497Y-81969737D01*
X102279179Y-81909394D01*
X102410289Y-81821789D01*
X102521789Y-81710289D01*
X102609394Y-81579179D01*
X102669737Y-81433497D01*
X102700500Y-81278842D01*
X102700500Y-81121158D01*
X102700500Y-81121155D01*
X102700499Y-81121153D01*
X102669737Y-80966503D01*
X102660545Y-80944311D01*
X102609397Y-80820827D01*
X102609390Y-80820814D01*
X102521789Y-80689711D01*
X102521786Y-80689707D01*
X102410292Y-80578213D01*
X102410288Y-80578210D01*
X102279185Y-80490609D01*
X102279172Y-80490602D01*
X102133501Y-80430264D01*
X102133489Y-80430261D01*
X101978845Y-80399500D01*
X101978842Y-80399500D01*
X101821158Y-80399500D01*
X101821155Y-80399500D01*
X101666510Y-80430261D01*
X101666498Y-80430264D01*
X101520827Y-80490602D01*
X101520811Y-80490611D01*
X101486196Y-80513740D01*
X101419519Y-80534617D01*
X101352139Y-80516132D01*
X101326447Y-80493667D01*
X101326097Y-80494018D01*
X101210292Y-80378213D01*
X101210288Y-80378210D01*
X101079185Y-80290609D01*
X101079172Y-80290602D01*
X100933501Y-80230264D01*
X100933489Y-80230261D01*
X100778845Y-80199500D01*
X100778842Y-80199500D01*
X100621158Y-80199500D01*
X100621155Y-80199500D01*
X100466510Y-80230261D01*
X100466498Y-80230264D01*
X100320827Y-80290602D01*
X100320814Y-80290609D01*
X100189711Y-80378210D01*
X100189707Y-80378213D01*
X100078213Y-80489707D01*
X100078210Y-80489711D01*
X99990609Y-80620814D01*
X99990604Y-80620824D01*
X99950489Y-80717671D01*
X99906648Y-80772074D01*
X99840354Y-80794139D01*
X99811737Y-80791835D01*
X99679845Y-80765600D01*
X99679842Y-80765600D01*
X99522158Y-80765600D01*
X99522155Y-80765600D01*
X99367510Y-80796361D01*
X99367498Y-80796364D01*
X99221827Y-80856702D01*
X99221814Y-80856709D01*
X99090711Y-80944310D01*
X99090707Y-80944313D01*
X98979213Y-81055807D01*
X98979210Y-81055811D01*
X98891609Y-81186914D01*
X98891602Y-81186927D01*
X98831264Y-81332598D01*
X98831261Y-81332610D01*
X98800500Y-81487253D01*
X79186851Y-81487253D01*
X79171789Y-81464711D01*
X79171786Y-81464707D01*
X79060292Y-81353213D01*
X79060288Y-81353210D01*
X78929185Y-81265609D01*
X78929172Y-81265602D01*
X78783501Y-81205264D01*
X78783489Y-81205261D01*
X78628845Y-81174500D01*
X78628842Y-81174500D01*
X78471158Y-81174500D01*
X78471155Y-81174500D01*
X78316510Y-81205261D01*
X78316498Y-81205264D01*
X78170827Y-81265602D01*
X78170814Y-81265609D01*
X78039711Y-81353210D01*
X78039707Y-81353213D01*
X77928213Y-81464707D01*
X77928210Y-81464711D01*
X77840609Y-81595814D01*
X77840602Y-81595827D01*
X77780264Y-81741498D01*
X77780261Y-81741510D01*
X77749500Y-81896153D01*
X77414189Y-81896153D01*
X77414189Y-81559367D01*
X77406822Y-81487253D01*
X77403689Y-81456578D01*
X77403688Y-81456575D01*
X77369437Y-81353213D01*
X77348504Y-81290041D01*
X77256402Y-81140719D01*
X77132346Y-81016663D01*
X77015044Y-80944311D01*
X76983026Y-80924562D01*
X76983021Y-80924560D01*
X76981552Y-80924073D01*
X76816487Y-80869376D01*
X76816485Y-80869375D01*
X76713700Y-80858875D01*
X75363688Y-80858875D01*
X75363671Y-80858876D01*
X75260893Y-80869375D01*
X75260890Y-80869376D01*
X75094358Y-80924560D01*
X75094353Y-80924562D01*
X74945032Y-81016664D01*
X74820979Y-81140717D01*
X74728877Y-81290038D01*
X74728876Y-81290041D01*
X74673691Y-81456578D01*
X74673691Y-81456579D01*
X74673690Y-81456579D01*
X74663190Y-81559358D01*
X71950500Y-81559358D01*
X71950500Y-77371153D01*
X104199500Y-77371153D01*
X104199500Y-77528846D01*
X104230261Y-77683489D01*
X104230264Y-77683501D01*
X104290602Y-77829172D01*
X104290609Y-77829185D01*
X104378210Y-77960288D01*
X104378213Y-77960292D01*
X104489707Y-78071786D01*
X104489711Y-78071789D01*
X104620814Y-78159390D01*
X104620827Y-78159397D01*
X104766498Y-78219735D01*
X104766503Y-78219737D01*
X104921153Y-78250499D01*
X104921156Y-78250500D01*
X104921158Y-78250500D01*
X105078844Y-78250500D01*
X105078845Y-78250499D01*
X105233497Y-78219737D01*
X105379179Y-78159394D01*
X105510289Y-78071789D01*
X105621789Y-77960289D01*
X105709394Y-77829179D01*
X105769737Y-77683497D01*
X105800500Y-77528842D01*
X105800500Y-77371158D01*
X105800500Y-77371155D01*
X105800499Y-77371153D01*
X105769738Y-77216510D01*
X105769737Y-77216503D01*
X105769735Y-77216498D01*
X105709397Y-77070827D01*
X105709390Y-77070814D01*
X105621789Y-76939711D01*
X105621786Y-76939707D01*
X105510292Y-76828213D01*
X105510288Y-76828210D01*
X105379185Y-76740609D01*
X105379172Y-76740602D01*
X105233501Y-76680264D01*
X105233489Y-76680261D01*
X105078845Y-76649500D01*
X105078842Y-76649500D01*
X104921158Y-76649500D01*
X104921155Y-76649500D01*
X104766510Y-76680261D01*
X104766498Y-76680264D01*
X104620827Y-76740602D01*
X104620814Y-76740609D01*
X104489711Y-76828210D01*
X104489707Y-76828213D01*
X104378213Y-76939707D01*
X104378210Y-76939711D01*
X104290609Y-77070814D01*
X104290602Y-77070827D01*
X104230264Y-77216498D01*
X104230261Y-77216510D01*
X104199500Y-77371153D01*
X71950500Y-77371153D01*
X71950500Y-75571153D01*
X90949500Y-75571153D01*
X90949500Y-75728846D01*
X90980261Y-75883489D01*
X90980264Y-75883501D01*
X91040602Y-76029172D01*
X91040609Y-76029185D01*
X91128210Y-76160288D01*
X91128213Y-76160292D01*
X91239707Y-76271786D01*
X91239711Y-76271789D01*
X91370814Y-76359390D01*
X91370827Y-76359397D01*
X91516498Y-76419735D01*
X91516503Y-76419737D01*
X91671153Y-76450499D01*
X91671156Y-76450500D01*
X91671158Y-76450500D01*
X91828844Y-76450500D01*
X91828845Y-76450499D01*
X91983497Y-76419737D01*
X92129179Y-76359394D01*
X92260289Y-76271789D01*
X92371789Y-76160289D01*
X92459394Y-76029179D01*
X92519737Y-75883497D01*
X92550500Y-75728842D01*
X92550500Y-75571158D01*
X92550500Y-75571155D01*
X92550499Y-75571153D01*
X92519738Y-75416510D01*
X92519737Y-75416503D01*
X92519735Y-75416498D01*
X92459397Y-75270827D01*
X92459390Y-75270814D01*
X92371789Y-75139711D01*
X92371786Y-75139707D01*
X92260292Y-75028213D01*
X92260288Y-75028210D01*
X92129185Y-74940609D01*
X92129172Y-74940602D01*
X91983501Y-74880264D01*
X91983489Y-74880261D01*
X91828845Y-74849500D01*
X91828842Y-74849500D01*
X91671158Y-74849500D01*
X91671155Y-74849500D01*
X91516510Y-74880261D01*
X91516498Y-74880264D01*
X91370827Y-74940602D01*
X91370814Y-74940609D01*
X91239711Y-75028210D01*
X91239707Y-75028213D01*
X91128213Y-75139707D01*
X91128210Y-75139711D01*
X91040609Y-75270814D01*
X91040602Y-75270827D01*
X90980264Y-75416498D01*
X90980261Y-75416510D01*
X90949500Y-75571153D01*
X71950500Y-75571153D01*
X71950500Y-73321153D01*
X97299500Y-73321153D01*
X97299500Y-73478846D01*
X97330261Y-73633489D01*
X97330264Y-73633501D01*
X97390602Y-73779172D01*
X97390609Y-73779185D01*
X97478210Y-73910288D01*
X97478213Y-73910292D01*
X97589707Y-74021786D01*
X97589711Y-74021789D01*
X97720814Y-74109390D01*
X97720827Y-74109397D01*
X97866498Y-74169735D01*
X97866503Y-74169737D01*
X98021153Y-74200499D01*
X98021156Y-74200500D01*
X98138572Y-74200500D01*
X98205611Y-74220185D01*
X98241674Y-74255608D01*
X98278213Y-74310292D01*
X98389707Y-74421786D01*
X98389711Y-74421789D01*
X98520814Y-74509390D01*
X98520827Y-74509397D01*
X98666498Y-74569735D01*
X98666503Y-74569737D01*
X98821153Y-74600499D01*
X98821156Y-74600500D01*
X98821158Y-74600500D01*
X98837591Y-74600500D01*
X98904630Y-74620185D01*
X98940693Y-74655609D01*
X99017676Y-74770822D01*
X99017679Y-74770826D01*
X99129173Y-74882320D01*
X99129177Y-74882323D01*
X99260280Y-74969924D01*
X99260293Y-74969931D01*
X99405964Y-75030269D01*
X99405969Y-75030271D01*
X99560619Y-75061033D01*
X99560622Y-75061034D01*
X99560624Y-75061034D01*
X99718310Y-75061034D01*
X99718311Y-75061033D01*
X99872963Y-75030271D01*
X100018645Y-74969928D01*
X100149755Y-74882323D01*
X100261255Y-74770823D01*
X100348860Y-74639713D01*
X100409203Y-74494031D01*
X100439966Y-74339376D01*
X100439966Y-74181692D01*
X100439966Y-74181689D01*
X100439965Y-74181687D01*
X100437588Y-74169735D01*
X100409203Y-74027037D01*
X100389377Y-73979172D01*
X100363867Y-73917584D01*
X100356398Y-73848115D01*
X100387674Y-73785636D01*
X100390730Y-73782468D01*
X100427704Y-73745495D01*
X100515309Y-73614385D01*
X100553927Y-73521153D01*
X109499500Y-73521153D01*
X109499500Y-73678846D01*
X109530261Y-73833489D01*
X109530264Y-73833501D01*
X109590602Y-73979172D01*
X109590609Y-73979185D01*
X109678210Y-74110288D01*
X109678213Y-74110292D01*
X109789707Y-74221786D01*
X109789711Y-74221789D01*
X109920814Y-74309390D01*
X109920827Y-74309397D01*
X110066498Y-74369735D01*
X110066503Y-74369737D01*
X110221153Y-74400499D01*
X110221156Y-74400500D01*
X110221158Y-74400500D01*
X110378844Y-74400500D01*
X110378845Y-74400499D01*
X110533497Y-74369737D01*
X110679179Y-74309394D01*
X110810289Y-74221789D01*
X110921789Y-74110289D01*
X111009394Y-73979179D01*
X111069737Y-73833497D01*
X111100500Y-73678842D01*
X111100500Y-73521158D01*
X111100500Y-73521155D01*
X111100499Y-73521153D01*
X111069737Y-73366503D01*
X111048011Y-73314052D01*
X111009397Y-73220827D01*
X111009390Y-73220814D01*
X110921789Y-73089711D01*
X110921786Y-73089707D01*
X110810292Y-72978213D01*
X110810288Y-72978210D01*
X110679185Y-72890609D01*
X110679172Y-72890602D01*
X110533501Y-72830264D01*
X110533489Y-72830261D01*
X110378845Y-72799500D01*
X110378842Y-72799500D01*
X110221158Y-72799500D01*
X110221155Y-72799500D01*
X110066510Y-72830261D01*
X110066498Y-72830264D01*
X109920827Y-72890602D01*
X109920814Y-72890609D01*
X109789711Y-72978210D01*
X109789707Y-72978213D01*
X109678213Y-73089707D01*
X109678210Y-73089711D01*
X109590609Y-73220814D01*
X109590602Y-73220827D01*
X109530264Y-73366498D01*
X109530261Y-73366510D01*
X109499500Y-73521153D01*
X100553927Y-73521153D01*
X100575652Y-73468703D01*
X100606415Y-73314048D01*
X100606415Y-73156364D01*
X100606415Y-73156361D01*
X100606414Y-73156359D01*
X100593156Y-73089707D01*
X100575652Y-73001709D01*
X100565919Y-72978211D01*
X100515312Y-72856033D01*
X100515305Y-72856020D01*
X100427704Y-72724917D01*
X100427701Y-72724913D01*
X100316207Y-72613419D01*
X100316203Y-72613416D01*
X100185100Y-72525815D01*
X100185087Y-72525808D01*
X100039416Y-72465470D01*
X100039404Y-72465467D01*
X99884760Y-72434706D01*
X99884757Y-72434706D01*
X99727073Y-72434706D01*
X99727070Y-72434706D01*
X99572425Y-72465467D01*
X99572413Y-72465470D01*
X99426742Y-72525808D01*
X99426729Y-72525815D01*
X99295626Y-72613416D01*
X99295622Y-72613419D01*
X99184128Y-72724913D01*
X99184125Y-72724917D01*
X99096524Y-72856020D01*
X99096519Y-72856030D01*
X99068799Y-72922953D01*
X99024958Y-72977356D01*
X98958664Y-72999421D01*
X98954238Y-72999500D01*
X98861427Y-72999500D01*
X98794388Y-72979815D01*
X98758325Y-72944390D01*
X98721792Y-72889715D01*
X98721786Y-72889707D01*
X98610292Y-72778213D01*
X98610288Y-72778210D01*
X98479185Y-72690609D01*
X98479172Y-72690602D01*
X98333501Y-72630264D01*
X98333489Y-72630261D01*
X98178845Y-72599500D01*
X98178842Y-72599500D01*
X98021158Y-72599500D01*
X98021155Y-72599500D01*
X97866510Y-72630261D01*
X97866498Y-72630264D01*
X97720827Y-72690602D01*
X97720814Y-72690609D01*
X97589711Y-72778210D01*
X97589707Y-72778213D01*
X97478213Y-72889707D01*
X97478210Y-72889711D01*
X97390609Y-73020814D01*
X97390602Y-73020827D01*
X97330264Y-73166498D01*
X97330261Y-73166510D01*
X97299500Y-73321153D01*
X71950500Y-73321153D01*
X71950500Y-72093543D01*
X73349499Y-72093543D01*
X73387947Y-72286829D01*
X73387950Y-72286839D01*
X73463364Y-72468907D01*
X73463371Y-72468920D01*
X73572860Y-72632781D01*
X73572863Y-72632785D01*
X73712214Y-72772136D01*
X73712218Y-72772139D01*
X73876079Y-72881628D01*
X73876092Y-72881635D01*
X74027598Y-72944390D01*
X74058165Y-72957051D01*
X74058169Y-72957051D01*
X74058170Y-72957052D01*
X74251456Y-72995500D01*
X74251459Y-72995500D01*
X75048543Y-72995500D01*
X75178582Y-72969632D01*
X75241835Y-72957051D01*
X75382655Y-72898721D01*
X75423907Y-72881635D01*
X75423907Y-72881634D01*
X75423914Y-72881632D01*
X75587782Y-72772139D01*
X75727139Y-72632782D01*
X75836632Y-72468914D01*
X75912051Y-72286835D01*
X75950500Y-72093543D01*
X77279499Y-72093543D01*
X77317947Y-72286829D01*
X77317950Y-72286839D01*
X77393364Y-72468907D01*
X77393371Y-72468920D01*
X77502860Y-72632781D01*
X77502863Y-72632785D01*
X77642214Y-72772136D01*
X77642218Y-72772139D01*
X77806079Y-72881628D01*
X77806092Y-72881635D01*
X77957598Y-72944390D01*
X77988165Y-72957051D01*
X77988169Y-72957051D01*
X77988170Y-72957052D01*
X78181456Y-72995500D01*
X78181459Y-72995500D01*
X79478543Y-72995500D01*
X79608582Y-72969632D01*
X79671835Y-72957051D01*
X79812655Y-72898721D01*
X79853907Y-72881635D01*
X79853907Y-72881634D01*
X79853914Y-72881632D01*
X80017782Y-72772139D01*
X80157139Y-72632782D01*
X80266632Y-72468914D01*
X80342051Y-72286835D01*
X80380500Y-72093541D01*
X80380500Y-71896459D01*
X80380500Y-71896456D01*
X80342052Y-71703170D01*
X80342051Y-71703169D01*
X80342051Y-71703165D01*
X80266660Y-71521153D01*
X90399500Y-71521153D01*
X90399500Y-71678846D01*
X90430261Y-71833489D01*
X90430264Y-71833501D01*
X90490602Y-71979172D01*
X90490609Y-71979185D01*
X90578210Y-72110288D01*
X90578213Y-72110292D01*
X90689707Y-72221786D01*
X90689711Y-72221789D01*
X90820814Y-72309390D01*
X90820827Y-72309397D01*
X90966498Y-72369735D01*
X90966503Y-72369737D01*
X91121153Y-72400499D01*
X91121156Y-72400500D01*
X91121158Y-72400500D01*
X91278844Y-72400500D01*
X91278845Y-72400499D01*
X91433497Y-72369737D01*
X91579179Y-72309394D01*
X91710289Y-72221789D01*
X91821789Y-72110289D01*
X91909394Y-71979179D01*
X91969737Y-71833497D01*
X92000500Y-71678842D01*
X92000500Y-71521158D01*
X92000500Y-71521155D01*
X92000499Y-71521153D01*
X91969738Y-71366510D01*
X91969737Y-71366503D01*
X91965889Y-71357214D01*
X91909397Y-71220827D01*
X91909390Y-71220814D01*
X91821789Y-71089711D01*
X91821786Y-71089707D01*
X91710292Y-70978213D01*
X91710288Y-70978210D01*
X91579185Y-70890609D01*
X91579172Y-70890602D01*
X91433501Y-70830264D01*
X91433489Y-70830261D01*
X91278845Y-70799500D01*
X91278842Y-70799500D01*
X91121158Y-70799500D01*
X91121155Y-70799500D01*
X90966510Y-70830261D01*
X90966498Y-70830264D01*
X90820827Y-70890602D01*
X90820814Y-70890609D01*
X90689711Y-70978210D01*
X90689707Y-70978213D01*
X90578213Y-71089707D01*
X90578210Y-71089711D01*
X90490609Y-71220814D01*
X90490602Y-71220827D01*
X90430264Y-71366498D01*
X90430261Y-71366510D01*
X90399500Y-71521153D01*
X80266660Y-71521153D01*
X80266635Y-71521092D01*
X80266628Y-71521079D01*
X80157139Y-71357218D01*
X80157136Y-71357214D01*
X80017785Y-71217863D01*
X80017781Y-71217860D01*
X79853920Y-71108371D01*
X79853907Y-71108364D01*
X79671839Y-71032950D01*
X79671829Y-71032947D01*
X79478543Y-70994500D01*
X79478541Y-70994500D01*
X78931333Y-70994500D01*
X78864294Y-70974815D01*
X78818539Y-70922011D01*
X78808595Y-70852853D01*
X78823947Y-70808499D01*
X78836278Y-70787140D01*
X78836277Y-70787140D01*
X78836281Y-70787135D01*
X78875500Y-70640766D01*
X78875500Y-70489234D01*
X78836281Y-70342865D01*
X78760515Y-70211635D01*
X78653365Y-70104485D01*
X78587750Y-70066602D01*
X78522136Y-70028719D01*
X78448950Y-70009109D01*
X78375766Y-69989500D01*
X78224234Y-69989500D01*
X78077863Y-70028719D01*
X77946635Y-70104485D01*
X77946632Y-70104487D01*
X77839487Y-70211632D01*
X77839485Y-70211635D01*
X77763719Y-70342863D01*
X77724500Y-70489234D01*
X77724500Y-70640765D01*
X77763719Y-70787136D01*
X77801602Y-70852750D01*
X77839485Y-70918365D01*
X77839488Y-70918368D01*
X77844188Y-70924493D01*
X77869383Y-70989662D01*
X77855346Y-71058107D01*
X77810510Y-71104023D01*
X77811151Y-71104983D01*
X77806612Y-71108015D01*
X77806533Y-71108097D01*
X77806296Y-71108226D01*
X77642218Y-71217860D01*
X77642214Y-71217863D01*
X77502863Y-71357214D01*
X77502860Y-71357218D01*
X77393371Y-71521079D01*
X77393364Y-71521092D01*
X77317950Y-71703160D01*
X77317947Y-71703170D01*
X77279500Y-71896456D01*
X77279500Y-71896459D01*
X77279500Y-72093541D01*
X77279500Y-72093543D01*
X77279499Y-72093543D01*
X75950500Y-72093543D01*
X75950500Y-72093541D01*
X75950500Y-71896459D01*
X75950500Y-71896456D01*
X75912052Y-71703170D01*
X75912051Y-71703169D01*
X75912051Y-71703165D01*
X75836660Y-71521153D01*
X75836635Y-71521092D01*
X75836628Y-71521079D01*
X75727139Y-71357218D01*
X75727136Y-71357214D01*
X75587785Y-71217863D01*
X75587781Y-71217860D01*
X75423920Y-71108371D01*
X75423907Y-71108364D01*
X75241839Y-71032950D01*
X75241829Y-71032947D01*
X75048543Y-70994500D01*
X75048541Y-70994500D01*
X74251459Y-70994500D01*
X74251457Y-70994500D01*
X74058170Y-71032947D01*
X74058160Y-71032950D01*
X73876092Y-71108364D01*
X73876079Y-71108371D01*
X73712218Y-71217860D01*
X73712214Y-71217863D01*
X73572863Y-71357214D01*
X73572860Y-71357218D01*
X73463371Y-71521079D01*
X73463364Y-71521092D01*
X73387950Y-71703160D01*
X73387947Y-71703170D01*
X73349500Y-71896456D01*
X73349500Y-71896459D01*
X73349500Y-72093541D01*
X73349500Y-72093543D01*
X73349499Y-72093543D01*
X71950500Y-72093543D01*
X71950500Y-69421153D01*
X84399500Y-69421153D01*
X84399500Y-69578846D01*
X84430261Y-69733489D01*
X84430264Y-69733501D01*
X84490602Y-69879172D01*
X84490609Y-69879185D01*
X84578210Y-70010288D01*
X84578213Y-70010292D01*
X84689707Y-70121786D01*
X84689711Y-70121789D01*
X84820814Y-70209390D01*
X84820827Y-70209397D01*
X84966498Y-70269735D01*
X84966503Y-70269737D01*
X85121153Y-70300499D01*
X85121156Y-70300500D01*
X85121158Y-70300500D01*
X85278844Y-70300500D01*
X85278845Y-70300499D01*
X85433497Y-70269737D01*
X85579179Y-70209394D01*
X85710289Y-70121789D01*
X85821789Y-70010289D01*
X85909394Y-69879179D01*
X85969737Y-69733497D01*
X85992083Y-69621158D01*
X85992084Y-69621153D01*
X105899500Y-69621153D01*
X105899500Y-69778846D01*
X105930261Y-69933489D01*
X105930264Y-69933501D01*
X105990602Y-70079172D01*
X105990609Y-70079185D01*
X106078210Y-70210288D01*
X106078213Y-70210292D01*
X106189707Y-70321786D01*
X106189711Y-70321789D01*
X106320814Y-70409390D01*
X106320827Y-70409397D01*
X106466498Y-70469735D01*
X106466503Y-70469737D01*
X106621153Y-70500499D01*
X106621156Y-70500500D01*
X106621158Y-70500500D01*
X106778844Y-70500500D01*
X106778845Y-70500499D01*
X106933497Y-70469737D01*
X107079179Y-70409394D01*
X107210289Y-70321789D01*
X107321789Y-70210289D01*
X107409394Y-70079179D01*
X107469737Y-69933497D01*
X107500500Y-69778842D01*
X107500500Y-69621158D01*
X107500500Y-69621155D01*
X107470776Y-69471727D01*
X107470776Y-69471725D01*
X107470775Y-69471722D01*
X107469738Y-69466510D01*
X107469737Y-69466503D01*
X107464402Y-69453622D01*
X109215787Y-69453622D01*
X109215787Y-69611315D01*
X109246548Y-69765958D01*
X109246551Y-69765970D01*
X109306889Y-69911641D01*
X109306896Y-69911654D01*
X109394497Y-70042757D01*
X109394500Y-70042761D01*
X109505994Y-70154255D01*
X109505998Y-70154258D01*
X109637101Y-70241859D01*
X109637114Y-70241866D01*
X109778669Y-70300499D01*
X109782790Y-70302206D01*
X109881225Y-70321786D01*
X109937440Y-70332968D01*
X109937443Y-70332969D01*
X109937445Y-70332969D01*
X110095131Y-70332969D01*
X110095132Y-70332968D01*
X110249784Y-70302206D01*
X110395466Y-70241863D01*
X110526576Y-70154258D01*
X110638076Y-70042758D01*
X110725681Y-69911648D01*
X110786024Y-69765966D01*
X110816787Y-69611311D01*
X110816787Y-69453627D01*
X110816787Y-69453624D01*
X110816786Y-69453622D01*
X110790370Y-69320821D01*
X110786024Y-69298972D01*
X110740767Y-69189711D01*
X110725684Y-69153296D01*
X110725677Y-69153283D01*
X110638076Y-69022180D01*
X110638073Y-69022176D01*
X110526579Y-68910682D01*
X110526575Y-68910679D01*
X110395472Y-68823078D01*
X110395459Y-68823071D01*
X110249788Y-68762733D01*
X110249776Y-68762730D01*
X110095132Y-68731969D01*
X110095129Y-68731969D01*
X109937445Y-68731969D01*
X109937442Y-68731969D01*
X109782797Y-68762730D01*
X109782785Y-68762733D01*
X109637114Y-68823071D01*
X109637101Y-68823078D01*
X109505998Y-68910679D01*
X109505994Y-68910682D01*
X109394500Y-69022176D01*
X109394497Y-69022180D01*
X109306896Y-69153283D01*
X109306889Y-69153296D01*
X109246551Y-69298967D01*
X109246548Y-69298979D01*
X109215787Y-69453622D01*
X107464402Y-69453622D01*
X107450955Y-69421158D01*
X107409397Y-69320827D01*
X107409390Y-69320814D01*
X107321789Y-69189711D01*
X107321786Y-69189707D01*
X107210292Y-69078213D01*
X107210288Y-69078210D01*
X107079185Y-68990609D01*
X107079172Y-68990602D01*
X106933501Y-68930264D01*
X106933489Y-68930261D01*
X106778845Y-68899500D01*
X106778842Y-68899500D01*
X106621158Y-68899500D01*
X106621155Y-68899500D01*
X106466510Y-68930261D01*
X106466498Y-68930264D01*
X106320827Y-68990602D01*
X106320814Y-68990609D01*
X106189711Y-69078210D01*
X106189707Y-69078213D01*
X106078213Y-69189707D01*
X106078210Y-69189711D01*
X105990609Y-69320814D01*
X105990602Y-69320827D01*
X105930264Y-69466498D01*
X105930261Y-69466510D01*
X105899500Y-69621153D01*
X85992084Y-69621153D01*
X85998107Y-69590875D01*
X85998107Y-69590874D01*
X86000500Y-69578844D01*
X86000500Y-69421155D01*
X86000499Y-69421153D01*
X85980543Y-69320827D01*
X85969737Y-69266503D01*
X85937929Y-69189711D01*
X85909397Y-69120827D01*
X85909390Y-69120814D01*
X85821789Y-68989711D01*
X85817924Y-68985001D01*
X85819867Y-68983406D01*
X85791654Y-68931737D01*
X85796638Y-68862045D01*
X85838510Y-68806112D01*
X85903974Y-68781695D01*
X85937010Y-68783761D01*
X85965797Y-68789487D01*
X86021156Y-68800500D01*
X86021158Y-68800500D01*
X86178844Y-68800500D01*
X86178845Y-68800499D01*
X86333497Y-68769737D01*
X86457668Y-68718304D01*
X86479172Y-68709397D01*
X86479172Y-68709396D01*
X86479179Y-68709394D01*
X86610289Y-68621789D01*
X86721789Y-68510289D01*
X86809394Y-68379179D01*
X86869737Y-68233497D01*
X86900500Y-68078842D01*
X86900500Y-67921158D01*
X86900500Y-67921155D01*
X86900499Y-67921153D01*
X86885732Y-67846914D01*
X86869737Y-67766503D01*
X86869735Y-67766498D01*
X86809397Y-67620827D01*
X86809390Y-67620814D01*
X86721789Y-67489711D01*
X86721786Y-67489707D01*
X86610292Y-67378213D01*
X86610288Y-67378210D01*
X86479185Y-67290609D01*
X86479172Y-67290602D01*
X86333501Y-67230264D01*
X86333489Y-67230261D01*
X86178845Y-67199500D01*
X86178842Y-67199500D01*
X86021158Y-67199500D01*
X86021155Y-67199500D01*
X85866510Y-67230261D01*
X85866498Y-67230264D01*
X85720827Y-67290602D01*
X85720814Y-67290609D01*
X85589711Y-67378210D01*
X85589707Y-67378213D01*
X85478213Y-67489707D01*
X85478210Y-67489711D01*
X85390609Y-67620814D01*
X85390602Y-67620827D01*
X85330264Y-67766498D01*
X85330261Y-67766510D01*
X85299500Y-67921153D01*
X85299500Y-68078846D01*
X85330261Y-68233489D01*
X85330264Y-68233501D01*
X85390602Y-68379172D01*
X85390609Y-68379185D01*
X85478210Y-68510288D01*
X85482076Y-68514999D01*
X85480132Y-68516594D01*
X85508345Y-68568262D01*
X85503361Y-68637954D01*
X85461489Y-68693887D01*
X85396025Y-68718304D01*
X85362988Y-68716237D01*
X85278846Y-68699500D01*
X85278842Y-68699500D01*
X85121158Y-68699500D01*
X85121155Y-68699500D01*
X84966510Y-68730261D01*
X84966498Y-68730264D01*
X84820827Y-68790602D01*
X84820814Y-68790609D01*
X84689711Y-68878210D01*
X84689707Y-68878213D01*
X84578213Y-68989707D01*
X84578210Y-68989711D01*
X84490609Y-69120814D01*
X84490602Y-69120827D01*
X84430264Y-69266498D01*
X84430261Y-69266510D01*
X84399500Y-69421153D01*
X71950500Y-69421153D01*
X71950500Y-66998332D01*
X109152668Y-66998332D01*
X109152668Y-67156025D01*
X109183429Y-67310668D01*
X109183432Y-67310680D01*
X109243770Y-67456351D01*
X109243777Y-67456364D01*
X109331378Y-67587467D01*
X109331381Y-67587471D01*
X109442875Y-67698965D01*
X109442879Y-67698968D01*
X109573982Y-67786569D01*
X109573995Y-67786576D01*
X109719666Y-67846914D01*
X109719671Y-67846916D01*
X109874321Y-67877678D01*
X109874324Y-67877679D01*
X109874326Y-67877679D01*
X110032012Y-67877679D01*
X110032013Y-67877678D01*
X110186665Y-67846916D01*
X110332347Y-67786573D01*
X110463457Y-67698968D01*
X110574957Y-67587468D01*
X110662562Y-67456358D01*
X110722905Y-67310676D01*
X110753668Y-67156021D01*
X110753668Y-66998337D01*
X110753668Y-66998334D01*
X110753667Y-66998332D01*
X110722906Y-66843689D01*
X110722905Y-66843682D01*
X110722903Y-66843677D01*
X110662565Y-66698006D01*
X110662558Y-66697993D01*
X110574957Y-66566890D01*
X110574954Y-66566886D01*
X110463460Y-66455392D01*
X110463456Y-66455389D01*
X110332353Y-66367788D01*
X110332340Y-66367781D01*
X110186669Y-66307443D01*
X110186657Y-66307440D01*
X110032013Y-66276679D01*
X110032010Y-66276679D01*
X109874326Y-66276679D01*
X109874323Y-66276679D01*
X109719678Y-66307440D01*
X109719666Y-66307443D01*
X109573995Y-66367781D01*
X109573982Y-66367788D01*
X109442879Y-66455389D01*
X109442875Y-66455392D01*
X109331381Y-66566886D01*
X109331378Y-66566890D01*
X109243777Y-66697993D01*
X109243770Y-66698006D01*
X109183432Y-66843677D01*
X109183429Y-66843689D01*
X109152668Y-66998332D01*
X71950500Y-66998332D01*
X71950500Y-63453543D01*
X73349499Y-63453543D01*
X73387947Y-63646829D01*
X73387950Y-63646839D01*
X73463364Y-63828907D01*
X73463371Y-63828920D01*
X73572860Y-63992781D01*
X73572863Y-63992785D01*
X73712214Y-64132136D01*
X73712218Y-64132139D01*
X73876079Y-64241628D01*
X73876092Y-64241635D01*
X74041480Y-64310140D01*
X74058165Y-64317051D01*
X74058169Y-64317051D01*
X74058170Y-64317052D01*
X74251456Y-64355500D01*
X74251459Y-64355500D01*
X75048543Y-64355500D01*
X75204462Y-64324485D01*
X75241835Y-64317051D01*
X75423914Y-64241632D01*
X75587782Y-64132139D01*
X75727139Y-63992782D01*
X75836632Y-63828914D01*
X75912051Y-63646835D01*
X75941016Y-63501219D01*
X75950500Y-63453543D01*
X77279499Y-63453543D01*
X77317947Y-63646829D01*
X77317950Y-63646839D01*
X77393364Y-63828907D01*
X77393371Y-63828920D01*
X77502860Y-63992781D01*
X77502863Y-63992785D01*
X77642214Y-64132136D01*
X77642218Y-64132139D01*
X77811151Y-64245017D01*
X77810180Y-64246470D01*
X77854109Y-64289619D01*
X77869571Y-64357757D01*
X77845741Y-64423437D01*
X77844190Y-64425502D01*
X77839489Y-64431627D01*
X77763719Y-64562863D01*
X77724500Y-64709234D01*
X77724500Y-64860765D01*
X77763719Y-65007136D01*
X77801602Y-65072750D01*
X77839485Y-65138365D01*
X77946635Y-65245515D01*
X78077865Y-65321281D01*
X78224234Y-65360500D01*
X78224236Y-65360500D01*
X78375764Y-65360500D01*
X78375766Y-65360500D01*
X78522135Y-65321281D01*
X78653365Y-65245515D01*
X78760515Y-65138365D01*
X78836281Y-65007135D01*
X78875500Y-64860766D01*
X78875500Y-64709234D01*
X78836281Y-64562865D01*
X78836278Y-64562859D01*
X78823947Y-64541501D01*
X78807473Y-64473602D01*
X78830325Y-64407574D01*
X78885245Y-64364383D01*
X78931333Y-64355500D01*
X79478543Y-64355500D01*
X79634462Y-64324485D01*
X79671835Y-64317051D01*
X79853914Y-64241632D01*
X80017782Y-64132139D01*
X80157139Y-63992782D01*
X80266632Y-63828914D01*
X80266633Y-63828911D01*
X80266635Y-63828908D01*
X80277969Y-63801545D01*
X112969108Y-63801545D01*
X112969108Y-63959238D01*
X112999869Y-64113881D01*
X112999872Y-64113893D01*
X113060210Y-64259564D01*
X113060217Y-64259577D01*
X113147818Y-64390680D01*
X113147821Y-64390684D01*
X113259315Y-64502178D01*
X113259319Y-64502181D01*
X113390422Y-64589782D01*
X113390435Y-64589789D01*
X113536106Y-64650127D01*
X113536111Y-64650129D01*
X113690761Y-64680891D01*
X113690764Y-64680892D01*
X113690766Y-64680892D01*
X113848452Y-64680892D01*
X113848453Y-64680891D01*
X114003105Y-64650129D01*
X114148787Y-64589786D01*
X114279897Y-64502181D01*
X114391397Y-64390681D01*
X114479002Y-64259571D01*
X114539345Y-64113889D01*
X114570108Y-63959234D01*
X114570108Y-63801550D01*
X114570108Y-63801547D01*
X114570107Y-63801545D01*
X114539346Y-63646902D01*
X114539345Y-63646895D01*
X114539318Y-63646829D01*
X114479005Y-63501219D01*
X114478998Y-63501206D01*
X114391397Y-63370103D01*
X114391394Y-63370099D01*
X114279900Y-63258605D01*
X114279896Y-63258602D01*
X114148793Y-63171001D01*
X114148780Y-63170994D01*
X114003109Y-63110656D01*
X114003097Y-63110653D01*
X113848453Y-63079892D01*
X113848450Y-63079892D01*
X113690766Y-63079892D01*
X113690763Y-63079892D01*
X113536118Y-63110653D01*
X113536106Y-63110656D01*
X113390435Y-63170994D01*
X113390422Y-63171001D01*
X113259319Y-63258602D01*
X113259315Y-63258605D01*
X113147821Y-63370099D01*
X113147818Y-63370103D01*
X113060217Y-63501206D01*
X113060210Y-63501219D01*
X112999872Y-63646890D01*
X112999869Y-63646902D01*
X112969108Y-63801545D01*
X80277969Y-63801545D01*
X80300145Y-63748006D01*
X80300145Y-63748005D01*
X80342051Y-63646835D01*
X80371016Y-63501219D01*
X80380500Y-63453543D01*
X80380500Y-63256456D01*
X80342052Y-63063170D01*
X80342051Y-63063169D01*
X80342051Y-63063165D01*
X80278313Y-62909286D01*
X80266635Y-62881092D01*
X80266628Y-62881079D01*
X80157139Y-62717218D01*
X80157136Y-62717214D01*
X80017785Y-62577863D01*
X80017781Y-62577860D01*
X79853920Y-62468371D01*
X79853907Y-62468364D01*
X79671839Y-62392950D01*
X79671829Y-62392947D01*
X79478543Y-62354500D01*
X79478541Y-62354500D01*
X78181459Y-62354500D01*
X78181457Y-62354500D01*
X77988170Y-62392947D01*
X77988160Y-62392950D01*
X77806092Y-62468364D01*
X77806079Y-62468371D01*
X77642218Y-62577860D01*
X77642214Y-62577863D01*
X77502863Y-62717214D01*
X77502860Y-62717218D01*
X77393371Y-62881079D01*
X77393364Y-62881092D01*
X77317950Y-63063160D01*
X77317947Y-63063170D01*
X77279500Y-63256456D01*
X77279500Y-63256459D01*
X77279500Y-63453541D01*
X77279500Y-63453543D01*
X77279499Y-63453543D01*
X75950500Y-63453543D01*
X75950500Y-63256456D01*
X75912052Y-63063170D01*
X75912051Y-63063169D01*
X75912051Y-63063165D01*
X75848313Y-62909286D01*
X75836635Y-62881092D01*
X75836628Y-62881079D01*
X75727139Y-62717218D01*
X75727136Y-62717214D01*
X75587785Y-62577863D01*
X75587781Y-62577860D01*
X75423920Y-62468371D01*
X75423907Y-62468364D01*
X75241839Y-62392950D01*
X75241829Y-62392947D01*
X75048543Y-62354500D01*
X75048541Y-62354500D01*
X74251459Y-62354500D01*
X74251457Y-62354500D01*
X74058170Y-62392947D01*
X74058160Y-62392950D01*
X73876092Y-62468364D01*
X73876079Y-62468371D01*
X73712218Y-62577860D01*
X73712214Y-62577863D01*
X73572863Y-62717214D01*
X73572860Y-62717218D01*
X73463371Y-62881079D01*
X73463364Y-62881092D01*
X73387950Y-63063160D01*
X73387947Y-63063170D01*
X73349500Y-63256456D01*
X73349500Y-63256459D01*
X73349500Y-63453541D01*
X73349500Y-63453543D01*
X73349499Y-63453543D01*
X71950500Y-63453543D01*
X71950500Y-62208653D01*
X91874500Y-62208653D01*
X91874500Y-62366346D01*
X91905261Y-62520989D01*
X91905264Y-62521001D01*
X91965602Y-62666672D01*
X91965609Y-62666685D01*
X92053210Y-62797788D01*
X92053213Y-62797792D01*
X92164707Y-62909286D01*
X92164711Y-62909289D01*
X92295814Y-62996890D01*
X92295827Y-62996897D01*
X92441498Y-63057235D01*
X92441503Y-63057237D01*
X92555397Y-63079892D01*
X92596153Y-63087999D01*
X92596156Y-63088000D01*
X92596158Y-63088000D01*
X92753844Y-63088000D01*
X92753845Y-63087999D01*
X92908497Y-63057237D01*
X93054179Y-62996894D01*
X93185289Y-62909289D01*
X93296789Y-62797789D01*
X93384394Y-62666679D01*
X93444737Y-62520997D01*
X93475500Y-62366342D01*
X93475500Y-62208658D01*
X93475500Y-62208655D01*
X93475499Y-62208653D01*
X93444738Y-62054010D01*
X93444737Y-62054003D01*
X93444735Y-62053998D01*
X93384397Y-61908327D01*
X93384390Y-61908314D01*
X93296789Y-61777211D01*
X93296786Y-61777207D01*
X93185292Y-61665713D01*
X93185288Y-61665710D01*
X93054185Y-61578109D01*
X93054172Y-61578102D01*
X92908501Y-61517764D01*
X92908489Y-61517761D01*
X92753845Y-61487000D01*
X92753842Y-61487000D01*
X92596158Y-61487000D01*
X92596155Y-61487000D01*
X92441510Y-61517761D01*
X92441498Y-61517764D01*
X92295827Y-61578102D01*
X92295814Y-61578109D01*
X92164711Y-61665710D01*
X92164707Y-61665713D01*
X92053213Y-61777207D01*
X92053210Y-61777211D01*
X91965609Y-61908314D01*
X91965602Y-61908327D01*
X91905264Y-62053998D01*
X91905261Y-62054010D01*
X91874500Y-62208653D01*
X71950500Y-62208653D01*
X71950500Y-59170097D01*
X99549500Y-59170097D01*
X99549500Y-59429902D01*
X99590140Y-59686493D01*
X99670422Y-59933576D01*
X99751534Y-60092764D01*
X99788366Y-60165051D01*
X99941069Y-60375229D01*
X100124771Y-60558931D01*
X100334949Y-60711634D01*
X100482445Y-60786787D01*
X100566423Y-60829577D01*
X100566425Y-60829577D01*
X100566428Y-60829579D01*
X100813507Y-60909860D01*
X100945706Y-60930797D01*
X101070098Y-60950500D01*
X101070103Y-60950500D01*
X101329902Y-60950500D01*
X101443298Y-60932539D01*
X101586493Y-60909860D01*
X101833572Y-60829579D01*
X102065051Y-60711634D01*
X102275229Y-60558931D01*
X102458931Y-60375229D01*
X102611634Y-60165051D01*
X102729579Y-59933572D01*
X102809860Y-59686493D01*
X102832539Y-59543298D01*
X102850500Y-59429902D01*
X102850500Y-59170097D01*
X107949500Y-59170097D01*
X107949500Y-59429902D01*
X107990140Y-59686493D01*
X108070422Y-59933576D01*
X108151534Y-60092764D01*
X108188366Y-60165051D01*
X108341069Y-60375229D01*
X108524771Y-60558931D01*
X108734949Y-60711634D01*
X108882445Y-60786787D01*
X108966423Y-60829577D01*
X108966425Y-60829577D01*
X108966428Y-60829579D01*
X109213507Y-60909860D01*
X109345706Y-60930797D01*
X109470098Y-60950500D01*
X109470103Y-60950500D01*
X109729902Y-60950500D01*
X109843298Y-60932539D01*
X109986493Y-60909860D01*
X110233572Y-60829579D01*
X110465051Y-60711634D01*
X110675229Y-60558931D01*
X110858931Y-60375229D01*
X111011634Y-60165051D01*
X111129579Y-59933572D01*
X111209860Y-59686493D01*
X111232539Y-59543298D01*
X111250500Y-59429902D01*
X111250500Y-59170097D01*
X111228947Y-59034021D01*
X111209860Y-58913507D01*
X111129579Y-58666428D01*
X111129577Y-58666425D01*
X111129577Y-58666423D01*
X111086787Y-58582445D01*
X111011634Y-58434949D01*
X110858931Y-58224771D01*
X110675229Y-58041069D01*
X110465051Y-57888366D01*
X110392764Y-57851534D01*
X110233576Y-57770422D01*
X109986493Y-57690140D01*
X109729902Y-57649500D01*
X109729897Y-57649500D01*
X109470103Y-57649500D01*
X109470098Y-57649500D01*
X109213506Y-57690140D01*
X108966423Y-57770422D01*
X108734945Y-57888368D01*
X108524774Y-58041066D01*
X108524768Y-58041071D01*
X108341071Y-58224768D01*
X108341066Y-58224774D01*
X108188368Y-58434945D01*
X108070422Y-58666423D01*
X107990140Y-58913506D01*
X107949500Y-59170097D01*
X102850500Y-59170097D01*
X102828947Y-59034021D01*
X102809860Y-58913507D01*
X102729579Y-58666428D01*
X102729577Y-58666425D01*
X102729577Y-58666423D01*
X102686787Y-58582445D01*
X102611634Y-58434949D01*
X102458931Y-58224771D01*
X102275229Y-58041069D01*
X102065051Y-57888366D01*
X101992764Y-57851534D01*
X101833576Y-57770422D01*
X101586493Y-57690140D01*
X101329902Y-57649500D01*
X101329897Y-57649500D01*
X101070103Y-57649500D01*
X101070098Y-57649500D01*
X100813506Y-57690140D01*
X100566423Y-57770422D01*
X100334945Y-57888368D01*
X100124774Y-58041066D01*
X100124768Y-58041071D01*
X99941071Y-58224768D01*
X99941066Y-58224774D01*
X99788368Y-58434945D01*
X99670422Y-58666423D01*
X99590140Y-58913506D01*
X99549500Y-59170097D01*
X71950500Y-59170097D01*
X71950500Y-52602135D01*
X99549500Y-52602135D01*
X99549500Y-54997870D01*
X99549501Y-54997876D01*
X99555908Y-55057483D01*
X99606202Y-55192328D01*
X99606206Y-55192335D01*
X99692452Y-55307544D01*
X99692455Y-55307547D01*
X99807664Y-55393793D01*
X99807671Y-55393797D01*
X99942517Y-55444091D01*
X99942516Y-55444091D01*
X99949444Y-55444835D01*
X100002127Y-55450500D01*
X102397872Y-55450499D01*
X102457483Y-55444091D01*
X102592331Y-55393796D01*
X102707546Y-55307546D01*
X102793796Y-55192331D01*
X102844091Y-55057483D01*
X102850500Y-54997873D01*
X102850499Y-52602135D01*
X107949500Y-52602135D01*
X107949500Y-54997870D01*
X107949501Y-54997876D01*
X107955908Y-55057483D01*
X108006202Y-55192328D01*
X108006206Y-55192335D01*
X108092452Y-55307544D01*
X108092455Y-55307547D01*
X108207664Y-55393793D01*
X108207671Y-55393797D01*
X108342517Y-55444091D01*
X108342516Y-55444091D01*
X108349444Y-55444835D01*
X108402127Y-55450500D01*
X110797872Y-55450499D01*
X110857483Y-55444091D01*
X110992331Y-55393796D01*
X111107546Y-55307546D01*
X111193796Y-55192331D01*
X111244091Y-55057483D01*
X111250500Y-54997873D01*
X111250499Y-52602128D01*
X111244091Y-52542517D01*
X111193796Y-52407669D01*
X111193795Y-52407668D01*
X111193793Y-52407664D01*
X111107547Y-52292455D01*
X111107544Y-52292452D01*
X110992335Y-52206206D01*
X110992328Y-52206202D01*
X110857482Y-52155908D01*
X110857483Y-52155908D01*
X110797883Y-52149501D01*
X110797881Y-52149500D01*
X110797873Y-52149500D01*
X110797864Y-52149500D01*
X108402129Y-52149500D01*
X108402123Y-52149501D01*
X108342516Y-52155908D01*
X108207671Y-52206202D01*
X108207664Y-52206206D01*
X108092455Y-52292452D01*
X108092452Y-52292455D01*
X108006206Y-52407664D01*
X108006202Y-52407671D01*
X107955908Y-52542517D01*
X107949501Y-52602116D01*
X107949501Y-52602123D01*
X107949500Y-52602135D01*
X102850499Y-52602135D01*
X102850499Y-52602128D01*
X102844091Y-52542517D01*
X102793796Y-52407669D01*
X102793795Y-52407668D01*
X102793793Y-52407664D01*
X102707547Y-52292455D01*
X102707544Y-52292452D01*
X102592335Y-52206206D01*
X102592328Y-52206202D01*
X102457482Y-52155908D01*
X102457483Y-52155908D01*
X102397883Y-52149501D01*
X102397881Y-52149500D01*
X102397873Y-52149500D01*
X102397864Y-52149500D01*
X100002129Y-52149500D01*
X100002123Y-52149501D01*
X99942516Y-52155908D01*
X99807671Y-52206202D01*
X99807664Y-52206206D01*
X99692455Y-52292452D01*
X99692452Y-52292455D01*
X99606206Y-52407664D01*
X99606202Y-52407671D01*
X99555908Y-52542517D01*
X99549501Y-52602116D01*
X99549501Y-52602123D01*
X99549500Y-52602135D01*
X71950500Y-52602135D01*
X71950500Y-45348008D01*
X71970185Y-45280969D01*
X72022989Y-45235214D01*
X72092147Y-45225270D01*
X72155703Y-45254295D01*
X72183858Y-45289555D01*
X72272140Y-45454720D01*
X72272151Y-45454738D01*
X72474140Y-45757035D01*
X72474150Y-45757049D01*
X72704807Y-46038106D01*
X72961893Y-46295192D01*
X72961898Y-46295196D01*
X72961899Y-46295197D01*
X73242956Y-46525854D01*
X73545268Y-46727853D01*
X73545277Y-46727858D01*
X73545279Y-46727859D01*
X73865916Y-46899243D01*
X73865918Y-46899243D01*
X73865924Y-46899247D01*
X74201836Y-47038386D01*
X74549767Y-47143930D01*
X74549773Y-47143931D01*
X74549776Y-47143932D01*
X74549787Y-47143935D01*
X74893645Y-47212331D01*
X74906369Y-47214862D01*
X75268206Y-47250500D01*
X75268209Y-47250500D01*
X75631791Y-47250500D01*
X75631794Y-47250500D01*
X75993631Y-47214862D01*
X76063045Y-47201054D01*
X76350212Y-47143935D01*
X76350223Y-47143932D01*
X76350223Y-47143931D01*
X76350233Y-47143930D01*
X76698164Y-47038386D01*
X77034076Y-46899247D01*
X77354732Y-46727853D01*
X77657044Y-46525854D01*
X77938101Y-46295197D01*
X78195197Y-46038101D01*
X78425854Y-45757044D01*
X78627853Y-45454732D01*
X78799247Y-45134076D01*
X78928864Y-44821153D01*
X85949500Y-44821153D01*
X85949500Y-44978846D01*
X85980261Y-45133489D01*
X85980264Y-45133501D01*
X86040602Y-45279172D01*
X86040609Y-45279185D01*
X86128210Y-45410288D01*
X86128213Y-45410292D01*
X86239707Y-45521786D01*
X86239711Y-45521789D01*
X86370814Y-45609390D01*
X86370827Y-45609397D01*
X86516498Y-45669735D01*
X86516503Y-45669737D01*
X86671153Y-45700499D01*
X86671156Y-45700500D01*
X86671158Y-45700500D01*
X86828844Y-45700500D01*
X86828845Y-45700499D01*
X86983497Y-45669737D01*
X87129179Y-45609394D01*
X87260289Y-45521789D01*
X87371789Y-45410289D01*
X87459394Y-45279179D01*
X87519737Y-45133497D01*
X87550500Y-44978842D01*
X87550500Y-44821158D01*
X87550500Y-44821155D01*
X87550499Y-44821153D01*
X87531589Y-44726086D01*
X87519737Y-44666503D01*
X87506229Y-44633891D01*
X87459397Y-44520827D01*
X87459390Y-44520814D01*
X87371789Y-44389711D01*
X87371786Y-44389707D01*
X87260292Y-44278213D01*
X87260288Y-44278210D01*
X87129185Y-44190609D01*
X87129172Y-44190602D01*
X86983501Y-44130264D01*
X86983489Y-44130261D01*
X86828845Y-44099500D01*
X86828842Y-44099500D01*
X86671158Y-44099500D01*
X86671155Y-44099500D01*
X86516510Y-44130261D01*
X86516498Y-44130264D01*
X86370827Y-44190602D01*
X86370814Y-44190609D01*
X86239711Y-44278210D01*
X86239707Y-44278213D01*
X86128213Y-44389707D01*
X86128210Y-44389711D01*
X86040609Y-44520814D01*
X86040602Y-44520827D01*
X85980264Y-44666498D01*
X85980261Y-44666510D01*
X85949500Y-44821153D01*
X78928864Y-44821153D01*
X78938386Y-44798164D01*
X79043930Y-44450233D01*
X79043932Y-44450223D01*
X79043935Y-44450212D01*
X79107576Y-44130261D01*
X79114862Y-44093631D01*
X79150500Y-43731794D01*
X79150500Y-43368206D01*
X79114862Y-43006369D01*
X79065567Y-42758543D01*
X90929499Y-42758543D01*
X90967947Y-42951829D01*
X90967950Y-42951839D01*
X91043365Y-43133907D01*
X91043368Y-43133914D01*
X91087352Y-43199740D01*
X91104971Y-43226110D01*
X91125848Y-43292787D01*
X91107363Y-43360167D01*
X91104971Y-43363890D01*
X91043366Y-43456089D01*
X90967950Y-43638160D01*
X90967947Y-43638170D01*
X90929500Y-43831456D01*
X90929500Y-43831459D01*
X90929500Y-44028541D01*
X90929500Y-44028543D01*
X90929499Y-44028543D01*
X90967947Y-44221829D01*
X90967950Y-44221839D01*
X90991301Y-44278213D01*
X91043368Y-44403914D01*
X91087352Y-44469740D01*
X91104971Y-44496110D01*
X91125848Y-44562787D01*
X91107363Y-44630167D01*
X91104971Y-44633890D01*
X91043366Y-44726089D01*
X90967950Y-44908160D01*
X90967947Y-44908170D01*
X90929500Y-45101456D01*
X90929500Y-45101459D01*
X90929500Y-45298541D01*
X90929500Y-45298543D01*
X90929499Y-45298543D01*
X90967947Y-45491829D01*
X90967950Y-45491839D01*
X91043364Y-45673907D01*
X91043371Y-45673920D01*
X91152860Y-45837781D01*
X91152863Y-45837785D01*
X91292214Y-45977136D01*
X91292218Y-45977139D01*
X91456079Y-46086628D01*
X91456092Y-46086635D01*
X91638160Y-46162049D01*
X91638165Y-46162051D01*
X91638169Y-46162051D01*
X91638170Y-46162052D01*
X91831456Y-46200500D01*
X91831459Y-46200500D01*
X92028540Y-46200500D01*
X92028541Y-46200500D01*
X92051307Y-46195971D01*
X92120897Y-46202197D01*
X92176076Y-46245058D01*
X92199322Y-46310947D01*
X92199500Y-46317588D01*
X92199500Y-47017870D01*
X92199501Y-47017876D01*
X92205908Y-47077483D01*
X92256202Y-47212328D01*
X92256206Y-47212335D01*
X92342452Y-47327544D01*
X92342455Y-47327547D01*
X92457664Y-47413793D01*
X92457671Y-47413797D01*
X92592517Y-47464091D01*
X92592516Y-47464091D01*
X92599444Y-47464835D01*
X92652127Y-47470500D01*
X93747872Y-47470499D01*
X93807483Y-47464091D01*
X93942331Y-47413796D01*
X94057546Y-47327546D01*
X94137192Y-47221153D01*
X95399500Y-47221153D01*
X95399500Y-47378846D01*
X95430261Y-47533489D01*
X95430264Y-47533501D01*
X95490602Y-47679172D01*
X95490609Y-47679185D01*
X95578210Y-47810288D01*
X95578213Y-47810292D01*
X95689707Y-47921786D01*
X95689711Y-47921789D01*
X95820814Y-48009390D01*
X95820827Y-48009397D01*
X95966498Y-48069735D01*
X95966503Y-48069737D01*
X96121153Y-48100499D01*
X96121156Y-48100500D01*
X96121158Y-48100500D01*
X96278844Y-48100500D01*
X96278845Y-48100499D01*
X96433497Y-48069737D01*
X96579179Y-48009394D01*
X96710289Y-47921789D01*
X96821789Y-47810289D01*
X96909394Y-47679179D01*
X96969737Y-47533497D01*
X97000500Y-47378842D01*
X97000500Y-47221158D01*
X97000500Y-47221155D01*
X97000499Y-47221153D01*
X96985139Y-47143935D01*
X96969737Y-47066503D01*
X96969735Y-47066498D01*
X96909397Y-46920827D01*
X96909390Y-46920814D01*
X96821789Y-46789711D01*
X96821786Y-46789707D01*
X96710292Y-46678213D01*
X96710288Y-46678210D01*
X96579185Y-46590609D01*
X96579172Y-46590602D01*
X96433501Y-46530264D01*
X96433489Y-46530261D01*
X96295556Y-46502824D01*
X96295555Y-46502824D01*
X96278844Y-46499500D01*
X96278842Y-46499500D01*
X96121158Y-46499500D01*
X96121155Y-46499500D01*
X95966510Y-46530261D01*
X95966498Y-46530264D01*
X95820827Y-46590602D01*
X95820814Y-46590609D01*
X95689711Y-46678210D01*
X95689707Y-46678213D01*
X95578213Y-46789707D01*
X95578210Y-46789711D01*
X95490609Y-46920814D01*
X95490602Y-46920827D01*
X95430264Y-47066498D01*
X95430261Y-47066510D01*
X95399500Y-47221153D01*
X94137192Y-47221153D01*
X94143796Y-47212331D01*
X94194091Y-47077483D01*
X94200500Y-47017873D01*
X94200499Y-46385258D01*
X99449500Y-46385258D01*
X99449500Y-46614741D01*
X99474446Y-46804215D01*
X99479452Y-46842238D01*
X99532009Y-47038385D01*
X99538842Y-47063887D01*
X99626650Y-47275876D01*
X99626657Y-47275890D01*
X99741392Y-47474617D01*
X99881081Y-47656661D01*
X99881089Y-47656670D01*
X100043330Y-47818911D01*
X100043338Y-47818918D01*
X100225382Y-47958607D01*
X100225385Y-47958608D01*
X100225388Y-47958611D01*
X100424112Y-48073344D01*
X100424117Y-48073346D01*
X100424123Y-48073349D01*
X100489672Y-48100500D01*
X100636113Y-48161158D01*
X100857762Y-48220548D01*
X101085266Y-48250500D01*
X101085273Y-48250500D01*
X101314727Y-48250500D01*
X101314734Y-48250500D01*
X101542238Y-48220548D01*
X101763887Y-48161158D01*
X101975888Y-48073344D01*
X102174612Y-47958611D01*
X102356661Y-47818919D01*
X102356665Y-47818914D01*
X102356670Y-47818911D01*
X102518911Y-47656670D01*
X102518914Y-47656665D01*
X102518919Y-47656661D01*
X102658611Y-47474612D01*
X102773344Y-47275888D01*
X102861158Y-47063887D01*
X102920548Y-46842238D01*
X102950500Y-46614734D01*
X102950500Y-46385266D01*
X102950499Y-46385258D01*
X107849500Y-46385258D01*
X107849500Y-46614741D01*
X107874446Y-46804215D01*
X107879452Y-46842238D01*
X107932009Y-47038385D01*
X107938842Y-47063887D01*
X108026650Y-47275876D01*
X108026657Y-47275890D01*
X108141392Y-47474617D01*
X108281081Y-47656661D01*
X108281089Y-47656670D01*
X108443330Y-47818911D01*
X108443338Y-47818918D01*
X108625382Y-47958607D01*
X108625385Y-47958608D01*
X108625388Y-47958611D01*
X108824112Y-48073344D01*
X108824117Y-48073346D01*
X108824123Y-48073349D01*
X108889672Y-48100500D01*
X109036113Y-48161158D01*
X109257762Y-48220548D01*
X109485266Y-48250500D01*
X109485273Y-48250500D01*
X109714727Y-48250500D01*
X109714734Y-48250500D01*
X109942238Y-48220548D01*
X110163887Y-48161158D01*
X110375888Y-48073344D01*
X110574612Y-47958611D01*
X110756661Y-47818919D01*
X110756665Y-47818914D01*
X110756670Y-47818911D01*
X110918911Y-47656670D01*
X110918914Y-47656665D01*
X110918919Y-47656661D01*
X111058611Y-47474612D01*
X111173344Y-47275888D01*
X111261158Y-47063887D01*
X111320548Y-46842238D01*
X111350500Y-46614734D01*
X111350500Y-46385266D01*
X111320548Y-46157762D01*
X111261158Y-45936113D01*
X111186981Y-45757035D01*
X111173349Y-45724123D01*
X111173346Y-45724117D01*
X111173344Y-45724112D01*
X111058611Y-45525388D01*
X111058608Y-45525385D01*
X111058607Y-45525382D01*
X110957764Y-45393962D01*
X110918919Y-45343339D01*
X110918918Y-45343338D01*
X110918911Y-45343330D01*
X110756670Y-45181089D01*
X110756661Y-45181081D01*
X110574617Y-45041392D01*
X110375890Y-44926657D01*
X110375876Y-44926650D01*
X110163887Y-44838842D01*
X109942238Y-44779452D01*
X109904215Y-44774446D01*
X109714741Y-44749500D01*
X109714734Y-44749500D01*
X109485266Y-44749500D01*
X109485258Y-44749500D01*
X109268715Y-44778009D01*
X109257762Y-44779452D01*
X109164076Y-44804554D01*
X109036112Y-44838842D01*
X108824123Y-44926650D01*
X108824109Y-44926657D01*
X108625382Y-45041392D01*
X108443338Y-45181081D01*
X108281081Y-45343338D01*
X108141392Y-45525382D01*
X108026657Y-45724109D01*
X108026650Y-45724123D01*
X107938842Y-45936112D01*
X107879453Y-46157759D01*
X107879451Y-46157770D01*
X107849500Y-46385258D01*
X102950499Y-46385258D01*
X102920548Y-46157762D01*
X102861158Y-45936113D01*
X102786981Y-45757035D01*
X102773349Y-45724123D01*
X102773346Y-45724117D01*
X102773344Y-45724112D01*
X102658611Y-45525388D01*
X102658608Y-45525385D01*
X102658607Y-45525382D01*
X102557764Y-45393962D01*
X102518919Y-45343339D01*
X102518918Y-45343338D01*
X102518911Y-45343330D01*
X102356670Y-45181089D01*
X102356661Y-45181081D01*
X102174617Y-45041392D01*
X101975890Y-44926657D01*
X101975876Y-44926650D01*
X101763887Y-44838842D01*
X101542238Y-44779452D01*
X101504215Y-44774446D01*
X101314741Y-44749500D01*
X101314734Y-44749500D01*
X101085266Y-44749500D01*
X101085258Y-44749500D01*
X100868715Y-44778009D01*
X100857762Y-44779452D01*
X100764076Y-44804554D01*
X100636112Y-44838842D01*
X100424123Y-44926650D01*
X100424109Y-44926657D01*
X100225382Y-45041392D01*
X100043338Y-45181081D01*
X99881081Y-45343338D01*
X99741392Y-45525382D01*
X99626657Y-45724109D01*
X99626650Y-45724123D01*
X99538842Y-45936112D01*
X99479453Y-46157759D01*
X99479451Y-46157770D01*
X99449500Y-46385258D01*
X94200499Y-46385258D01*
X94200499Y-45922128D01*
X94194091Y-45862517D01*
X94184865Y-45837782D01*
X94143797Y-45727671D01*
X94143795Y-45727668D01*
X94134976Y-45715887D01*
X94110558Y-45650423D01*
X94119679Y-45594128D01*
X94162051Y-45491835D01*
X94178272Y-45410288D01*
X94200500Y-45298543D01*
X94200500Y-45101456D01*
X94162052Y-44908170D01*
X94162051Y-44908169D01*
X94162051Y-44908165D01*
X94116488Y-44798165D01*
X94086635Y-44726092D01*
X94086633Y-44726088D01*
X94086632Y-44726086D01*
X94025029Y-44633891D01*
X94004151Y-44567214D01*
X94022635Y-44499834D01*
X94025029Y-44496109D01*
X94055696Y-44450212D01*
X94086632Y-44403914D01*
X94162051Y-44221835D01*
X94200500Y-44028541D01*
X94200500Y-43831459D01*
X94200500Y-43831456D01*
X94162052Y-43638170D01*
X94162051Y-43638169D01*
X94162051Y-43638165D01*
X94162049Y-43638160D01*
X94086635Y-43456092D01*
X94086633Y-43456088D01*
X94086632Y-43456086D01*
X94025029Y-43363891D01*
X94004151Y-43297214D01*
X94022635Y-43229834D01*
X94025029Y-43226109D01*
X94037872Y-43206887D01*
X94086632Y-43133914D01*
X94162051Y-42951835D01*
X94200500Y-42758541D01*
X94200500Y-42561459D01*
X94200500Y-42561456D01*
X94162052Y-42368170D01*
X94162051Y-42368169D01*
X94162051Y-42368165D01*
X94122850Y-42273524D01*
X94086635Y-42186092D01*
X94086633Y-42186088D01*
X94086632Y-42186086D01*
X94025029Y-42093891D01*
X94004151Y-42027214D01*
X94022635Y-41959834D01*
X94025029Y-41956109D01*
X94037872Y-41936887D01*
X94086632Y-41863914D01*
X94162051Y-41681835D01*
X94194255Y-41519936D01*
X94200500Y-41488543D01*
X94200500Y-41291456D01*
X94162052Y-41098170D01*
X94162051Y-41098169D01*
X94162051Y-41098165D01*
X94147027Y-41061893D01*
X94086635Y-40916092D01*
X94086628Y-40916079D01*
X93977139Y-40752218D01*
X93977136Y-40752214D01*
X93837785Y-40612863D01*
X93837781Y-40612860D01*
X93673920Y-40503371D01*
X93673907Y-40503364D01*
X93491839Y-40427950D01*
X93491829Y-40427947D01*
X93298543Y-40389500D01*
X93298541Y-40389500D01*
X93101459Y-40389500D01*
X93101457Y-40389500D01*
X92908170Y-40427947D01*
X92908160Y-40427950D01*
X92726092Y-40503364D01*
X92726079Y-40503371D01*
X92562218Y-40612860D01*
X92562214Y-40612863D01*
X92422863Y-40752214D01*
X92422860Y-40752218D01*
X92313371Y-40916079D01*
X92313364Y-40916092D01*
X92237950Y-41098160D01*
X92237947Y-41098170D01*
X92199500Y-41291456D01*
X92199500Y-41488545D01*
X92205744Y-41519936D01*
X92199517Y-41589528D01*
X92156653Y-41644705D01*
X92090764Y-41667949D01*
X92059936Y-41665744D01*
X92028545Y-41659500D01*
X92028541Y-41659500D01*
X91831459Y-41659500D01*
X91831457Y-41659500D01*
X91638170Y-41697947D01*
X91638160Y-41697950D01*
X91456092Y-41773364D01*
X91456079Y-41773371D01*
X91292218Y-41882860D01*
X91292214Y-41882863D01*
X91152863Y-42022214D01*
X91152860Y-42022218D01*
X91043371Y-42186079D01*
X91043364Y-42186092D01*
X90967950Y-42368160D01*
X90967947Y-42368170D01*
X90929500Y-42561456D01*
X90929500Y-42561459D01*
X90929500Y-42758541D01*
X90929500Y-42758543D01*
X90929499Y-42758543D01*
X79065567Y-42758543D01*
X79043935Y-42649787D01*
X79043929Y-42649763D01*
X79039875Y-42636402D01*
X78938386Y-42301836D01*
X78799247Y-41965924D01*
X78754848Y-41882860D01*
X78627859Y-41645279D01*
X78627858Y-41645277D01*
X78627853Y-41645268D01*
X78425854Y-41342956D01*
X78195197Y-41061899D01*
X78195196Y-41061898D01*
X78195192Y-41061893D01*
X77938106Y-40804807D01*
X77657049Y-40574150D01*
X77657048Y-40574149D01*
X77657044Y-40574146D01*
X77354732Y-40372147D01*
X77354727Y-40372144D01*
X77354720Y-40372140D01*
X77283099Y-40333858D01*
X77233254Y-40284896D01*
X77217794Y-40216758D01*
X77241626Y-40151078D01*
X77297184Y-40108710D01*
X77341552Y-40100500D01*
X115558448Y-40100500D01*
X115625487Y-40120185D01*
G37*
%TD.AperFunction*%
%TD*%
M02*
