M48
; DRILL file KiCad 10.0.0 date 2026-03-25T13:21:58
; FORMAT={-:-/ absolute / metric / decimal}
; #@! TF.CreationDate,2026-03-25T13:21:58+11:00
; #@! TF.GenerationSoftware,Kicad,Pcbnew,10.0.0
; #@! TF.FileFunction,Plated,1,4,PTH
FMAT,2
METRIC
; #@! TA.AperFunction,Plated,PTH,ViaDrill
T1C0.300
; #@! TA.AperFunction,Plated,PTH,ComponentDrill
T2C0.500
; #@! TA.AperFunction,Plated,PTH,ComponentDrill
T3C0.600
; #@! TA.AperFunction,Plated,PTH,ComponentDrill
T4C0.650
; #@! TA.AperFunction,Plated,PTH,ComponentDrill
T5C0.750
; #@! TA.AperFunction,Plated,PTH,ComponentDrill
T6C1.000
; #@! TA.AperFunction,Plated,PTH,ComponentDrill
T7C1.800
; #@! TA.AperFunction,Plated,PTH,ComponentDrill
T8C3.200
%
G90
G05
T1
X74.85Y-110.006
X74.889Y-92.509
X75.15Y-127.84
X78.55Y-81.975
X78.575Y-99.325
X78.625Y-116.875
X79.8Y-113.5
X80.0Y-111.806
X80.289Y-94.487
X80.4Y-96.2
X80.44Y-128.265
X80.6Y-73.6
X80.9Y-131.6
X81.1Y-108.106
X81.3Y-126.125
X82.8Y-88.2
X83.4Y-65.675
X83.6Y-63.1
X85.2Y-69.5
X86.1Y-68.0
X86.75Y-44.9
X89.0Y-48.9
X90.537Y-65.325
X90.891Y-70.287
X91.2Y-71.6
X91.211Y-81.404
X91.324Y-86.724
X91.7Y-73.6
X91.75Y-75.65
X92.2Y-93.4
X92.675Y-62.287
X93.175Y-86.45
X93.5Y-92.9
X94.625Y-66.337
X96.2Y-47.3
X97.035Y-96.322
X98.0Y-64.0
X98.0Y-65.4
X98.0Y-66.5
X98.0Y-67.8
X98.0Y-68.8
X98.1Y-73.4
X98.9Y-73.8
X98.9Y-96.1
X99.1Y-70.5
X99.2Y-62.2
X99.2Y-63.0
X99.2Y-64.0
X99.2Y-68.8
X99.601Y-81.566
X99.639Y-74.261
X99.806Y-73.235
X100.3Y-69.6
X100.5Y-62.2
X100.7Y-81.0
X101.4Y-62.2
X101.5Y-95.9
X101.9Y-81.2
X101.9Y-88.8
X102.05Y-86.95
X102.4Y-62.2
X103.3Y-62.2
X103.5Y-69.6
X103.9Y-88.8
X104.4Y-62.2
X104.6Y-69.6
X105.0Y-77.45
X105.8Y-64.3
X105.8Y-65.3
X105.8Y-66.4
X105.8Y-67.4
X105.8Y-68.3
X105.8Y-69.6
X105.8Y-62.2
X105.8Y-63.2
X106.075Y-92.75
X106.7Y-69.7
X107.225Y-87.05
X107.4Y-82.2
X107.7Y-83.912
X108.6Y-69.1
X108.65Y-81.55
X109.6Y-91.3
X109.953Y-67.077
X110.016Y-69.532
X110.3Y-73.6
X110.3Y-75.8
X110.9Y-81.9
X111.2Y-108.1
X112.2Y-114.7
X113.77Y-63.88
X114.1Y-109.2
X115.05Y-102.2
X117.525Y-68.575
X118.975Y-103.95
X119.725Y-72.075
X119.95Y-86.575
X120.0Y-88.325
T2
X73.05Y-43.55
X73.05Y-135.55
X73.753Y-41.853
X73.753Y-45.247
X73.753Y-133.853
X73.753Y-137.247
X75.45Y-41.15
X75.45Y-45.95
X75.45Y-133.15
X75.45Y-137.95
X77.147Y-41.853
X77.147Y-45.247
X77.147Y-133.853
X77.147Y-137.247
X77.85Y-43.55
X77.85Y-135.55
X115.05Y-43.55
X115.05Y-135.55
X115.753Y-41.853
X115.753Y-45.247
X115.753Y-133.853
X115.753Y-137.247
X117.45Y-41.15
X117.45Y-45.95
X117.45Y-133.15
X117.45Y-137.95
X119.147Y-41.853
X119.147Y-45.247
X119.147Y-133.853
X119.147Y-137.247
X119.85Y-43.55
X119.85Y-135.55
T4
X91.93Y-41.39
X91.93Y-42.66
X91.93Y-43.93
X91.93Y-45.2
X91.93Y-46.47
X93.2Y-41.39
X93.2Y-42.66
X93.2Y-43.93
X93.2Y-45.2
X93.2Y-46.47
T5
X75.9Y-99.256
X75.9Y-101.256
X75.9Y-103.256
X75.9Y-116.875
X75.9Y-118.875
X75.9Y-120.875
X76.039Y-81.959
X76.039Y-83.959
X76.039Y-85.959
T6
X87.2Y-101.0
X87.2Y-124.025
X89.74Y-101.0
X89.74Y-124.025
X100.6Y-101.0
X100.6Y-124.025
X103.14Y-101.0
X103.14Y-124.025
T7
X101.2Y-53.8
X101.2Y-59.3
X109.6Y-53.8
X109.6Y-59.3
X109.6Y-118.87
X109.6Y-124.37
T8
X75.45Y-43.55
X75.45Y-135.55
X117.45Y-43.55
X117.45Y-135.55
T3
G00X74.95Y-63.355
M15
G01X74.35Y-63.355
M16
G05
G00X74.95Y-71.995
M15
G01X74.35Y-71.995
M16
G05
G00X79.38Y-63.355
M15
G01X78.28Y-63.355
M16
G05
G00X79.38Y-71.995
M15
G01X78.28Y-71.995
M16
G05
M30
